<mxfile host="app.diagrams.net" modified="2024-05-06T05:25:45.134Z" agent="Mozilla/5.0 (Macintosh; Intel Mac OS X 10.15; rv:125.0) Gecko/20100101 Firefox/125.0" etag="gP3dJPFniH7zb565C4AE" version="24.3.1" type="device">
  <diagram name="Page-1" id="P8EtbY7QsVTmRauvCMsp">
    <mxGraphModel dx="992" dy="638" grid="1" gridSize="10" guides="1" tooltips="1" connect="1" arrows="1" fold="1" page="1" pageScale="1" pageWidth="850" pageHeight="1100" math="0" shadow="0">
      <root>
        <mxCell id="0" />
        <mxCell id="1" parent="0" />
        <mxCell id="t8Q2t27Iab3_0A_IBycy-1" value="" style="shape=image;verticalLabelPosition=bottom;labelBackgroundColor=default;verticalAlign=top;aspect=fixed;imageAspect=0;image=data:image/png,iVBORw0KGgoAAAANSUhEUgAAAsEAAADICAYAAAAJITyVAAABbmlDQ1BpY2MAACiRdZE9S8NQFIaftlbFDzroICLSQcXBgiiIo9ahS5FSFay6tGnaCmkakhYproKLg+Aguvg1+A90FVwVBEERRByd/VpE4rmNUBG94eY8vPe+h5M34I8bWtFpmICiWbaTsWh4PrUQbnoiSCMBBuhNa441mUjE+Xe93+BT9Tqiev1/78/VmtUdDXzNwmOaZZeFZRriK2VL8YZwp1ZIZ4X3hYdsGVD4QukZjx8V5z1+VWzPJqfAr3qG8z8484O1gl0UHhTuKxoV7Xse9SVtujk3I7Vbdg8OSWJECZOhwjIGZSJSTcnsb99wzTdNSTyavC2q2OLIUxDvkKgV6apLzYmuy2NQVbn/ztPJjY543duiEHxw3Zd+aNqCz03X/Thw3c9DCNzDmVn3lySn8TfRN+ta3x6E1uDkvK5ltuF0HbrurLSdrkkB2f5cDp6PoT0FHVfQsuhl9X3O0S3MrsovuoSdXRiQ+6GlL+crZ/6Z35noAAAACXBIWXMAAAsSAAALEgHS3X78AAAgAElEQVR42uy9B3gc53UufLAdi94LCRJsIgmQEjtpqpBqFtWLbbmXxL62E+fauXG5LnHsxIn/+yT3xi2OHUdRJFmyZKpLVhfFKlaxAyBAAGwA0Xvdvv95z8y3mB3sLgCRkChpv+cZzJbBzOx83znnPT2FkiM5kuOSG0NDQ+TxeslqsZLVapnw+GAwJPuJjs3MzEw+3ORIjndhDAwM0OjICKVYLGSxWjV6ZfoOhoKyjzUmQ/vmYbGM/5/09HThKep1ciQe4XDYvbfp18XnevcEFhfeFry85JPnk0/l/TlSko8gOZLj0hWaPr+fHHZ7TMA7kZBUx+XkZFNvb1/kc7xPjuRIjndWqR1hABwOhchqoucILccAwkb6Bj1PBhTHAsHjz2ul1NTU5MQkGMO+joeGvT3eNGduf5qj8FvJJ5IEwcmRHMnxDo7R0VHyeLwxhaFRSMYTjvFAcBIIJ0dyvLMAGF6dUDCogVSrdUIQbLQOK9pWdD4ZMGwGwiEG3/HAcdIynBwf5GFJPoLkSI5Lc8BSY7fb5DUswhB+RgBsBLrqO+OWCPSaQXFyfCCVLHvyKUy/Ijs4OEhBpt9EAFgBX7VFAWIDPZvpOt4A6DVu4wB3gvtIjuRIguDkSI7kuCQGrDSxrD7mz9T7eHsFhGN9nhwfvDE0NFTJSpY/+SSmdwAAG0EorMHKIhxvqDjhRGMipXecoDdYgZMAODmSY2wkwyGSIzku8WEMizCCXhF+CZJqjODXOJLxwR/sMTAwkOd2u+02m60t+TSmb3R0dJDf7ycbg86UOKEIlikC0olo/UJihpNxwsnxQRxJc1ByJMclPiCYInGBuoUoUg3CkrTqJMcUmb7F8v+SAHh6R1d3tyTCGQeS4sKm0ITJWIaNwxgyEfP7SViF44VJBPk+EL+MDYp3ciTHB2EkLcHJkRzvgaGswUbhNxEAVsfm5+XFFNJqxPo+Od6fgwHO7vT09PXJJzG9ABil0GBxlS0lvpidTgtxIqsw7kuBYHOoRNAAypPW4eRIguDkGDcGBgbuO3++ZSa/LGMmMVN3TTfz+6bUVFdzWVnZl8z/EwgEKj0ez6/55QbetvP//ZiZy7Y4TPQX7W1tOfwyx+VyyZ6Pl71+SK/afD5/LzOt3oLCgl4GM99Izs77et1JgpxZ8CWKH8Qx8UIeIKzVOZJhEe//4fX5Kp0OR3XySUzfQKjR0NCgAMlUl2tiAcwAFNZhMxgGCIaFeCIwnKjO8FTj/hOVVrsUKkh0dHTc19fXr8tdy0zN6h0Uucvyr5nl35diGA8q+ZhfM+DfwL9vO8vTr9lstpg0cP78+V/09fWJzDXI24jchZzFFPN1RebyMb0FBQW9zDuTcvc9MHj97BscHPx9bm7eUzxnLepzW/LRTBmIPL91yxu3bd++nYIOO2Vn5JDDEiav11PR7/FU5Kal0cGDB7+4cuXKFAPYCNfXN5DHM0rhFHnkG1LCga2NjY1UVFQEBhM5lj974PcPP/b52lP1lJvqovSMTPKFxnQVS8iHXUnI4ijBdQMBP/UMD1NuXgHtOXTk6x9asSyp2LxPh91uj8QBx7MEGQXiRMk1xgQcCO8PEhA+c+ZMzM/Ly8sv+NxNTU0Raxr2sKbhvMZrxno/3SMJgKddNszo7+8HQPLwnIcCPPe2t5mENpkQCSMAnkxuwNsZZsvwuzVYLlb/8bE/VjQ0N1G6w0kOloshX4AC3pGKrsHBikVzF4DubGVlZV+I/M+Zpura2toKvIbcZZm7weFwVDEYqiksLKw0nn/fvn3h393/ELV1tVNxfhG57RbC/BllL+Quy98SvPCMjtKAP0DLFi/GdYf5ut9PUsClPQ7sP/DEHx977NnKJUtaEfKjFLskCJ7iYE1i5au7dtHLzz9Pjtw8KsvOpUCqncLDo9TT2Uk+v48KCksBKh5mUPEZaKIn6hqokUGwaNQZabIfGhyW1+ZM3Vff3FP+u4cfIl9PN80qnxOf4QYDsk8LhamTCRLHD/T3Qtv5KRP4RSdIAPmhwUEBYk6Xa1IZzGaGrqwaieplTlRL80JGIssKfo+f5w7Z3MwoGRDmRCknl8KAWxLWYAVw1fM3zkW817EGQK8Ki5jsXL4fxokTtTTMiqNFuvEZS1EF6eTJerrssgUXBK7VHOH8IX6udrtDzjs66okAC7z3+fwX7bqX+uB1Ngj2h5e85fMGCx6sevW84YfX4FGYtkCMvdr8hr1sfp/PN+IN+N1Om6+kpOQdBSUsVL/e29tbD8skz2+rxWLB7/WFwuGw8ThzaISKEVZ7s0XYDIaN/CuSH2DYm0urjYHZ6FrDkx0KACMc690Ki4AM/dOfXq54/IknqbOzgwoKCsmWrXW+hNxtqKujvbm5tGjhgogm2dra+vChg4cqhhnspLrdZGPg7BsdIV8gTMXFAxVMo9syMzM36krrwz//zW/omT9uFt6P88draGKUvx0NjXR87lzKzsp1TNdv59/xU6/X63A6ncxGHLiO3bDZDHu1WWPsjVuFgeYUDSqaHNJpNKBf3mb4bNJ0y2s2wOtU6JVfB/l1QP9sHN3yevV7PKPvCN329fU9/vuHH26aObOMNl67MfJ5EgRPFUiFQiWBQCDyHgBYmFdaKvkGnDTU00PtXV3gyAt0JlIV9HsowJs1M4sZ0BhxgSghjI2jo7W1fKi1lRxOh5zTPNJIY3IpNMYcC3g72tlFJxtOUXtbm2M6mNCRE3V0or6eXE4nZWZkvC/nFpncbR0dlJWZSWuXLb8k71G5LI2g1Qx61X4ywBbxwAoIY/9+jQ+GEIdAh/YfivFc8B0+D12gMhA0JToBACc6VoFwKGAA0BfbIsy/OwzgVF1TR7VnTstn7wb97j1yLLLk9P1Mfa+Qf8WFXmOE5xiKRl5uDhSROxnkVL5DAPjNrq4uK8/nAZ7PWqZRbGf4KxDWCMsMP78PKwDMwDhunHA8MDxZI4GZ5iNeIQMgngoQVpbgd9MazNfe3MkytVNP1jMCVLvFRgwSqYfl7tDgcIR4GFQtGBn10SjL2wwGwJC78sxYdvtg4fX7N6hjmzu7F0B2Dg4M0rz58+X8sWSvcWQy+O7gPUA539u01Nvu7e2rPnS0qqKZr5Ga6iL3xVNCFphoUNFkegxcmP5O0e1MVj6Ybtcr5eRij8svX3p23YfW05FDh2nPm7vRGptSmA6TIHjKlp5mCvh8lF1WxmApg9Jc7sh3xQyekHINVwoT3HydidzBwPE5V24eIUJMixMLUFCswPZxQrIkK3N2Lmu1PgabBfkaIBkZGqWWjnZNMxweIXeaW66N752+APUyMM4vyKfCvFxyulLt08CEqkIMEPvbOqjJMyJuKGHEjvfP8vENDoiLDSPjEumgpDK0YwmgWFZes2VoSsqdbiV/vwJhoxXLEunENT3uYzxHXMPhsMt7MPiA32dQpK1C9+r6AN6WaXBlsxCd63SO8RcAiT6e3/cL/eJ3qN+gflNGWhqD/PRJN5W4GAaC9vb29bpCs4a3A/zxMQa+2CP85Dymgt8Ph3QLmzH2NqQbimNZiGMBYRUrnHANvs0wCWO1iIiybbiW0YVsfD3dY3hoqGJkaIBKSoqof8AtAHVM7nopj+VgdnYOPKuzI8jNZZ+fmptNNrSd52MdOq3ZHH7KzkhFK/rtEUDrtM+H7MxjBTS1IG+c3B0Z1qp84Pq4rjudeYnbS20t5+W6OVnp02YJHmB529PSKnvjen9fGBR9Y8bEbMZOUF6ZbjdM1/WWLF0a3rjhatq7Zze9+NKr9KUv/49xiP8DPZiow8eOHeOF3UpZOdlC4D4Guyo7tuV8C215/XX6wQ++J66Y0sKicecQ7XFggKwOEbi5OtM6aNOBLkAvtFCH1Sg0oxldSopFQg5sDHTzc/LoXFMz1Rx8i7o6u8jnHROkAL20YhktmDOXvEwYCM2wORwQvBedIO0Ox1ez092/tfDvazlVT831DeT3ByknL4ecNit5Azr44r3XkkLOUJisNoNbTv9cDXyvhvrc+Jl5xPvfeN/HOic+czNjN96LOnaYGUz/wCDNn1tOq5csp6KZpeR22t6tdRhlKTQLKJVxbga7oQuw1Bitwe99JfVMK9PPTfyyYcaMGSOtra3a/Hu9Ea+LAp/q+eK9ERAjpreMldwLBcMKACNRCvNns2rrLhAMy2t3WqYA5WBQu/bFtgLb7bZbwU9ECXDaxdXbwoK7/vQpso36KTMrcxydRv0G/TsjXceiu4loMtYx6nzG806GF4zRhl/4Ke7R5/UwUBqlnLJiod/iwkJyuZy/fCfW20B/f5Wy6POGH7CG53oe76/gbSfT6iHeN5LmRgaRefj7cCgOGDYC4lhWYUXnUw2TMFqFJ2MFjgWIFX+6mBUjGhsbwyfrG+V1bk6WyFxsWllIK52sraMf/t3fUX3jaZGvRrkLfj7iciLGkHxOR5SXFadzhDSfu3HNyPO0OiBjvzZGJ47cNH2tKwDc2dVN9YeOiNzF8HgZEGdmidxdxUAqu6iQ3EVFBIlss7umxRLMa/i76bnZz+H12doT1N7eoQF8BowsoGDuHidf3Ya5MtNtPLkY630s+jV/Fk+Wm7+Ldw9enueh4SEqnD2T1q+/mkrz8sGztk8XrcLq+8jDj0i4SyPjmBMnTiRBsEloXfvCiy9tfeiBB5mm0qls5mxZ+HCNwOXS3t4q7koA0WUrllPB4jFtMZYAjCwEh6Ol5vTpMcZtBxBOoVDAT26Xg7Qwnyg1nsJ8/UyrjU7Un6SqPfvETVPKwOwu1xjjuY8F9cFtOyLgDdZhm80GwT4dBNmS4nbLvYZHR2hQB2odnQEa7OuTMILcggJ5TnY7C37+rqe3l/r6egmYvKioRD4HcNZ09xhAd5I34p3C994J/le9D/A8B/h3jGRmy9yl2xwA/u8KAI4lfKI6TsVogRpLICrL7mTBMYAwivu/l0d1dfX+zs7OvUwHl9us1r7jx4619PT0iLnBMzpMI6Necqc6x3lfjGEJF2Moqy4A8MBAv1YpgIV6llObz35vSAT9yPAAz2da5PiLGQ6BuGSXywUrZE0wHK4IM1iw2uzixQr0DWgmyX6m054uGh4ZFotWRnqm0CkGaHxEVxrcaWnkcqbGpT3v26Rb7yTpNIEdVv76Qxofcqa6ZB6dFrHGt0z3emtvawsP8TMyK1E88vStnOkV2tRbvNUxPdfxHs5CPFi/WbmNN4y1heNZhyczItZhVWNcb7gzESjGPRrvT9UTvhiW4Pb2dvrdf/yWamtrBZxExKAe8gBrKwxQmQz8lq1fL1bYWDLX+D/qNTaHd2Q8cLNrhiajISqF6RMyFOduYHl95thxysjMoL+cPy9y3DOeUTrV2KhhAL4XyGgA84DfM13txw9CFgk9Dw6LTMV9jyD8o7NTQ/osd91Op0YHLF+7hgZE7hrpecAfnJQcnAytToX2J5LFwFfgMem65xGKOtPR16aTZpctX0aLFi+mA/v20+GDh5Ig2DhQruzn//oz0fyam5vozKkzEpfr1BcYYn9EO3Mm1oDTmGEEfR6JnVXD0z80nnFBICE2yeeL+tzj8UuoQ2trO3UfOyYAGIT4Z1etp7kp2mI+FbbS/MYz9KOjR6jh0OExzVFzfU4HQbZGtGYG2uoZQPj4DSW70phBOZwuscyMadl2IcRUdxqlxrDmwComC9GaErHsiAarPxdWIiKfqeOdBoBqPIfxPPGu43Q4xn0nvyXNH/ku5H/nu8kaLcCJAG+0vhQdEqFAbzxr0WQHwHBhYeF7joYZTJ7m9VjDWwOvu15LSjhAKQwQwlhPgZjPwxgDHLqIyYGI8cWcYj0WZKRRWlraGJ3wS1ile0e81N/fL+E3TtfFTTqS5FWrtVm3QFZotGGJ4mGg154e/X6Z3gAi3e5UoV+r1y7gGEoswASOHQMN9oT0i/830puZfuPRejz6FaGpH2P+X5wToCTIDxX3HotnTcdgGgn39fULgEqgQCFd42P689/LWxnTNCTvOQaVvTqKD8UCmomG2UJsVngTgeKo6jExQkYmC4ov1igqKtrO87mh9sQJwoa1CfApc85gD0qkKOkF+VFWTjFAGe4DIQsIGYjQH6+XIPNxyFkKeolXt6wbWS8+JEAPVYXD4SUpKSnVI4a8HAWAcb3vL1pMV88rj8jdT7eep0eYTv+1uopo925KLymh+QzgnHDnTNNQsgjrXYFagGCfHl4Fw5NYhiFD9ITcMdlrFQzjcFIUTZlpySwnzZ/HksWx5Krxu0TXMcpdUbLT37mEy7lz59LV11xNO3dsp5deeSUJgs3jxps+vH3X7r0bnnxic4TwYP1UEQYAwlhULrcejzQyXg+C1aSps50OHz4Oy1QYAfsA1pmG2GEMxCmBOGH92blzTzg3N1OI88UXX5Lvu/lzXO9vKpfQT65eS2RIhANRzp2vuWu/u3+fAGEJj6AP4X6nxxKs2vamukVYwo2Rl5NL6z+0jnKysukYA/Lunl5xS2IsXrSQli9fLl2TDh05yvvRCKGIkGWiAGBWkFQJNOXmVAINn5uPV8cqgexwRjN9dbxRaKtjjP+L8+F+QMgA9LDMy7SmhN/RdQer3USCRQmnRLGORiE4VUvw+2Gkp6f9eGRkeBkLzyYGwCOWyBoAUOE55fVniQGwVBWHyPphOjx//jzNmDFjyvcAKxnif32sCOO1AOBc3YXr1RUdZzoBEg8HUmhktF8SQ2wSI+y6KM8BseR2zb2bQoZa8AA/infBCoNwiNvvuI1y84qotuYYnWtujQjSwoICuuG6a6UEIyrb9A4MRZTEWLRnpt+oz3XBaKZfM62TiRcYadjID9QetCsbHydeJrdmePCGRBGcNkswKuX0dPfoz8A6GU8CEvRymcaRJwJT/35+Davwec0eH20VpgkabCSi/akozW+3rNpkwfpkxuzZs3989113bH3t1VcE8AIAI8YXMlcBPXzuSOCZgwUXo7Gmlo4fOxYGLTU0nBmTsybrcE//MPUcOkiu9MwqPp5O1JxgevAJkG6pqxMZf//aVXRlQW6U3F1UMoN+UqLxBADhTKaV+XPm8Np0TxeOWqlkURrL3F7d2rtg3hy6ddMmGvT4qJrlbm93rwBeAP4Vy6+gyqXLqaGuhupPnRHZBtpRyiZo2Ehv8WSpUmRxvNFwZPzcLL/NclfJe/U9rg9AbJS78tvCKWTXrdUBu2OzTi/TMlwuF61ZuZIyM7PorQNviexNgmDDWLhw4Y9vu/XmrTu2bxMLbHpauoBaDBCnsgaPUR8zXYNrBkHzw9lEbV2d9MxLz5ODmZorNZUWL1xEZZctFK3OM6qBSVeqk0I+K9XyYq091UhpNpswUtT8RYiDgN158+jT82dGzl/bel4j7OJZAoQ/z0C4obWF/r2hkVqaW4SQHXb7RZ9ThHSgrFTEaskAGO6YioUL6POf+xzNLp9NsKK/wAD+/PlmysnOoY99/KP0pS/+ObW1tVFd3Q/o3NmzIoChnff39clzzS8ojBBkd29PxMWD8AnEG4NwcD5o6jh+xoyZQjw4Fu5PpXTk5eVKQgxikzv4HOo7hDTAEg3rAs5nvg5cScoVE9Q1bpupjNs7AYAnAr/m17G6xhnv9+1agmH9VSER7TxvRcXF7yn6LSsrO8Hr1BkIBHqU9MJ8avVaUwiPI8QMH1Zac0iEEQjjOXs8nkmHJ6DetwJBKHuGhiawPCMEQizAXpOVX3+fZguTj/kAjgVwtlguvGoDrM9IhtNjgaEpz7TqgArrBtZgAGDQVRbT6b33fpwWscL6xBPP0AP//V906vQpcaWuWbuavvGNr4sS+4tf/orO7NgZcTeb6VTWcf+AhFYIXeXmR+i3QxKLNPrF9SAY1bHwImVlZ0fRL0A43L6w5KmQJPANgHKcz0j7GfjfnNyI1ctolOBnPy0guLe3L9yp/36zvWECMIz6srBUQCPK1jcAYZSawnrFzYcjYDgOEA5fgBU2XuKsMTwinhXYHKZ1sZLibDbbNtDPdddfR888/bR4XtPcaRrv9tklDELlwsDyqyCtjekloNNwlm45PlFfSwN9XXwOF+XkFtDCxYvJnZlOgeFRycWBzMU4z/NXz+CxpaeHshF7bEmhvsF+KTOKa8HzqgFgzevqazsXkbliEWaZvLm/XzzGSJyzTFNMMK+nb7rDY2tgcEiTFZctWEjf/NbfEDwRf/uP/0jVL74ointF5VLatOlmuu322+jlV16jul/+UmgJcra/r3dM7paVifXV19tP3azMoepGNuOPXJQF5ecNGkSYipE+AW4V7anwR9AkwDlCNRSdG+UuPFw4H+atn7/v1+lW8Q3wAu+oZ1o8ceYBeQa+jLjg6upqWrF6Ne3d9SZt3fIGWSg5oghy5coVtGzZigs+l4UXpRdtbpn4EIjvMlkXLYaYJBw7jNIt/oAAWQW6EQO8SNc8QYwRbYyJUo1NixZIvDC0V5RuC4XDzul+TgCM0NKdDqeUbrEyAc2dd5mATVi9IZxmz54bYZ42xuUgEBAQBCkICIINYBoWYmV9AsGBQGBpxucgOhATPgeBKk1UCUAIWwxYnwf5/Pgf3BsIHd+LW0wHtyBEXCeoEzDOidchxOEGxlwzIdc7FwucCABr3ZBC44RXvIoQsQYE5lSF5tv5n0tpMDA5C0OnsjIEJDxEA6Xxyjwp5muu0IDj4zXViGUBNp9fxQCrYS6HCICcw4q002GT+/T4Qxe8nqBU6gB4EW+o87c4GA6TM8Vm8pb4dLCoWZ/Ly2dKyBLiL0FzUNxxfxkZGaxYa/TrYUCM+ENFP/CegOawiSeFjwdNKvoF2FWKqqq4AmsQACuOk3MwDYJ+AYDlXF6v8AbQb8TjBvrl70ZHhiO0j3OCfvFZxLXqdk43vYZ7GChpYNcybv6N+zjDrs/LJ3m7h3njRt6W8etS0kpRWY2gE8ly5m2yVuFECnAkQc5sGY6hcMeyAl/sqhAFBQXbN1x9tRZ3zvOPNWGfoE5vIE7+N5SnEb0cYmStgzZ1OQC5m8q/2QuLJmSuh481JHdBlkKmmmUt9soIBZl8b1aW3C+sx8NB/3QZEzcYDTOgQQlb0iu+ZGdn0fxZWi8BGO1Kigto/gLt3uHVhGUY/wM5C/qTvB3+/V4GvyNdfRGvLapaQb7ieFiVkQ8A+oIsxm8ELxW6tdiEbnEePE/IUwBgReegSyV3jZZjyFirLscV38DnxjAou92ilJvvToPnhhC7r9ZEaekM8WDDGPDAQw8lLcHmkc8EuXLlFRsQM4LFIzGtUe4AQwyvKRwCVQZQvDt7ThatWXulNMNALWBHKgO+IY8QY4SIde20tLiYCvPyKDU9C8REu3ZsE8KC+2d+SWm0gGdt1MB2DRa8IiECETJe7zsypxIraNOy3y0UpkUL51FxUb5o7mUlxVRSpFlYYVET6xFr3XPmzqVPffITtG7NagYXZ+lp1vwPHjwkBIfSJbfceielZaTTay+/SM88+5zEQH3q0/fSug+tpdq6Rnr+2aeorX1AXEHLV68Vzf7ooSP02qsvSWIFLFg33ng9bdiwgRmbhbo726iPNeH6+nras2+/MJCbbt5E99x9Fyzm9Mrr22jr66+KtizPzlB+ZjqadagxOjpqY0YfZkETNBaxj2W5gaBK1PQCwi5WOaW3C2Rh/YXW/F4d6WlpfQArsIwA/FqkPqhdwiESARQFhAU8sPydN2/epK9pPBZNL3RL5LjjACoBhI3xwaNhmxgB0dHKShdmCXEzaAQADodD0EA38nYL3oM+veFANP06NTenauAxc+ZMygS/Yv4GfrJg4WXyeR8rrmiS09vXK817PvKRe2jturVMzwP04gvP0muvbRHQcv1119KNm26mrMx0evnll+VzgNi7P/IxuuaqdXTq1Dl64snHxZp75fU30KoVK4T/vbX3TdqxYyc11mvPbe3a1fThGz9M2TnZ1Nx8nvoHR6ittUnOB158x+230823bBKL9+uvb6Ht23ay0O4RITudBbv4etWwjoFOJ4o4M1YdiTdVvKGCCRDLfAa8CE5EIeUWBpnjwiPihR/Eqylszg0w87JEpRTjgV8VjjUdZQVZ0fraytWrqi7jNXey7qSEQ/inkJehPKczV5fRlevWyVrwDPULUIOcdTDtM4SjkM8jZbmcqem0dOlyWgrQxWu+93wzNbQ0S4WlNBPfVDLXaHjCaJmdQ44mh5aQ7vNOi+Uk7ErdroBwBCwyzQYZvCs+ctm8crGcDzmHaPbsclZmZ0eOg3EH1XEWXLaQPv+5zwhAPnTwID22+QlqqK+juXPm0u13sjxeu5Lpe4i2bnmF3ty9l+bPm0t33nEHzZxVRkePHKUXX3pFZP3NN99CV6xYJt7sXdu30JYtW8VzhPN87KOfpkUViwQQn29u5vP10cmzZ+no/gPSFfeeuz9C1117tfCN5559kt46fFSUavCIFBcrzZRCXs0IcPCiA2DmX1i34B9QfPD6ums30mOPPirehyQIHq+V/viajddtBQhDcpwxJEIJjzFWFh0OgdHG2tGmkhJat24V5efn0zBP9LmmFupgIrPYXRGX4qgODhHyUFY2MxJb1nyyTmO6g0O0wzFKa1n7VNZgRYxGMNzQr7TDiBVkmgjSKS4XLCK/bm2VTjyBEQbePnGl4/diwc9bMJ+FWI4QKoRo/8CQPLdrb7xJFl86LEMMlsHcoUmuXrWCbrnlZvns+LHjrKF55LObbtpE5XPKReD16a5WxDGWMMgeGeil3KyZdPddt5HLYRW3zto1q+jr3/iGLPrurg6qrLiGgUEaPfvMM7Rj5y4RsLfcfofEBYGBfPxjd1NWWird/8ADklE7i5Uai8c3reuLf8s3+fkdYaGCukCdvB9hYRSO6vSUoONbLAuPEoIX24L7XgyJ4PsNI3RH1mowHFWOcMyaZY0CvjGsyRfmBeL5AIAZDTsobRJWOxFalrcfh97b2+8gLfMAACAASURBVGfLyEh3MA+Bu2QeA18kEdzF2zK5BgsYZQkOMJhRAAPWopERzUICiy/cnrCElZZotNzNiusg8yEAVwBgCLK777mHEA5QVlZCV111NR07ViX1PT/92c8gnIwOvvUW016XpsB+6uN0D4NmdGE8dPiINj+FeTSztFQAMOq1wnWL8W//9mu6/PLL6c+/+EXU86SzrCSXlM4AP2aw/YKAYCS03H3PXWJNcjFf+djHPiZWv1deell+E0otWdIufpKNXgu4Agq9MYwmXvhDvAYTMY6FsoIlgnkr4HVzmNfNKX7dwa89Rqtw5LW+voyhEubqEWYeMVGnTHMJtXjAGNedjq5xSE5jXlOzYcPVFQDBkH0waEy2Qo+q47tk0SK6mhUuAantXRLLPjQ8GKkTrMncgOTPrFhxeSR5/SyDtYM1NRIO4WB5D5mqwiEwWrs6pdSHksOwCJ8fskRkLj+XacFRjlAQlRKqxqyldq1jK1+341wjlcy5TOQhZK54c2bPFtk2rFuM4VVBJYS777pDqiLAU7R6zRo6w78XAPn2TTfQPffeI2EV1VVaR/Xrr7+WPvrRj0q1IBiWPL6g8IkZM2dQ2Yxi6uvs4Gvm0nXXfZj6e/toyxtbRTG+9+P3Cp13MW9YvWa10OMDDzxINQyiN91yG911561SvQr3d+/HPy5hVm9s3SYxQWEdC6E6xMUMY2K+SPDcqOotoKO+/n75bfDwrVq9Rqp9JEGwaagYpfkLFkq2KjQpuP6VpXUyAxaW9PQMmXAsWiRRtEtpGn8EBOM1iDMTDTcMIDsnQyvVgqjBI51e2peVKv4zFY9EQojBCDECKA8zcwLInMYSaTo4cJCRIAvyC+R1TfVx1t4LqXTWHAaaXlowZ5YQHKywPayJoZYwFtw1V1/Nx9bQyy+/REsql9DNt95CN99wDa1Zf7UIvkMHD9Dv7rufzp05zcLzbrqFv4fg+eUvfinxxiAsaI5btmyh7KwssfhWVFbS6tWrqJUB27UMsMHIH3yQie9EHf3lV79M1/AxEKSXX76UbrvjLvIMDdCP/uX/itXru9/7Ht1y2y10gK+7Zcsb4nKFWxplaYzVPS6iMJ3n8XhXkVZDGim96KXdzvcM6w/QdzhexzezIHsnkt4m63695KzB6WlSmxdrR9Xm1SzDwbjg92I9S6ObHNccHg6YKkOMvYawAii1RKotBKfK5CtdLuf/Yj6DOIEufU3BuniNDqy0e2LA5LJbZF2pbpegZVhb4X4+wQAASu2sWbOFTmfNKhfaRb1kjDymn0033kAbr1lPNSfr6ad///dSJvIOBrCbNt0kgHnFihXyezZv3kwPP/wHifG8/obrBVy/8soW+sOjj0k41BAL7J073mB+kU8bQb8VFXQFg194iXAu8IHt29+kx/7wewbZV9Gf/fmfUS7zmQ+tXUNXr18vwuuPf/yjVKn5m29+kz7y0XupoaFREnNV6SznRW480tXVVTXI/AwVPGKFQZjBbczmNvET6Ip0q3CqvmGBVLPABhDGDwrHo814McMpU0hcM/KbWMOnK0zwnE1nc4zs3Nx7b7ppU9Vjj22WWFtlcIIcgdtalDbT75I6wVAAmNZRKxjJ5S6XFt6Tm5VBZ/ie/YYSaSpsBiXS8nJzo2hSVU5Bkyqj8UmS0A2AGGPfcEjiWwFGEY8c8PunxfDEOKJ6z6Ejkfci/5ypMg9NHb3UOah1Ybz88iVMe3OosLBAFFQYL0ZZliFmd/XKlbTuQ+toy+tb6MGHH6Ev/dkXaA3Ly+K8LLqagSxk46G3DooSivN/97v/W2gSuTzw6Ow9cFAs6gg3RHin0+WkDddsoCsYVEP+pvPvv4rlei/zi9/+x++oj0HnV7/6VaHjNFaYYMy68qorBWw++OBDomh/61vfonvvvZdp+ZxYkodHPVr5VdfFk7lYNz09Y8mrUOD8Ej6lrQfkevye7+flF19MguBYIzc3b/uGq6/asGPb1kgynALByFQFM5972QIa8sauVwjBppgKHnwspgjdxxH0iqAOh0Mqjo+8/jA5vD4pvwIw/NAww+GGpqhSLYgPhnZ6v3+YTo5YpZMN6gFBwLHWPiWCDIRClSNDQ19nZofYCyRvqP0Y8bEwb23vEqIH0MZ7gFF0tgvY3HTi+AHKL2KGMWsGa+NaTFLd8cOsc2uJDRCSEHKLFsyhI4f7yc/3CUvxbNZcZ8yay0LyNbHowCX74RuuI/SIf3PXXnr6yafohg/fKH2+z507S7t27daEMhPSovlz5H5aW1pEOG266QZacNkieuFPL9BDD/1eEgUvX7qELr9imVj2UKli5YplovXn5mZROkq2pbqotLRUEg2eefpZCX9RlqRzzExQBslkQRlgsISSU038eXOa2/0wSutN9lkPj4wA9J7TBR80CNQPPQljhA5iRjTDS+zENhX6oAmv0ISgdaoZ5gZrqlRHeK8ONLpA1jdoC7HAVl1hACj1+ljBSY0PfgPBC22bHO3CRgUIllAUdqazchWOAsDy3duzcAD8buY1WIH7x7k8DGbN1UGMAx4ZADi9jKKEM2VkaXWxjx7cT26mhVn83D7zqXI+V4Dp9IhUmQDtFuTliXdnZtksOnS0SmKH0ZBi8eLFkmW9Z/dueu31bSzwlotyWzqjlIVouwjem2/eRDNmFNGcWWV0kGkK2e247sySUrH0wXpk53uCC3b9leupuaWdHn7wfnr88SfFpXoj0z8sURC4s+fMoYb6egYdASooLBKLMEoezS2fJSCY9Ao2qA7R2toajmFJBJuEpamVgV8LP8NHJ6JfVgTCUAi06h2WCeY+fmLcBElzkMPXMfAF2oLREeESQD9SUzikm4KjmmugpJrhfIlaMSdU2uIAYKMSjmMy9TJc0zUA+GANXrZsRcVrr70sQLhA2uhqJdIQqz5/6eXkjqn1ZkhiF0LgorxpQa9JEdFKpMHtDt6gEkgREiRJ5bl5InPP9ProkYFm2mRLjbIIw+gEAAyZbMvNoXSWP6kB5G4Ep4yjvD7fxpHhkU/yfUbJXaOxA3K2ihVRY54K4u0B2sHLGlghzczJp2s2Xqf95kCQdr3xKq+mVAmNWnjZfFrOMk9ZipFEOnPmDFqzdi29OjxCu998Uz5H6NM1V18l3tKtjHmQ6D6P6Wrd2nV0ioEqQpUEfDPgnVk6Q+gVHqJSPtcsPjaNnxmsvv/JIBhj/sJKke/AQWv5HHNml9Gxvm7JDcpnhbaQ76eAATsUZjQoQ3wwZHl/bz/kTtjpcpnlntAtPxeh24yM9F8yDqlOYGwSAAyaU4Y70IuiPyR/4/mwckv/5//7aRIExxo5OdkbUd7s9OlGau/oFtAElz4WA2pnwmoiAHjEG4fhRdckheUpBa1R7S4Toxlf8kqBGxAjuuMg+xREt6PpBF3j06T3gXwXnWjpoj4Gk6qVowhw1EacJEEyEVayANpcX3eyAq4jY41FWHmVy1TdcVCqLDhFY5bEBdQn5OcAgNnEAPXk6XO0adMmWrJkCe3e9SZte3OfxAoVFRdJBz4I06ysLFq0eJFYh0tLSwSQ1p86S7/57W/oBdY6/+knf09/9T//SoTx3/3ox/SNv/5f9O2//hp94ct/IdqlW0+U+cQn7qUWFpan9SYkcNVk5+SJ1amts0evlDEqwNqDxIeA5u4tkMQAB915x52s1aKT1zDV1zfwnA7pLmmbCPihgI/a6uqpip8vLE6GZwJJUMEgvgJ93PNycr7YeIaZdW7W9on6nSOrHFUJmJARywJzPvbIatgH/srbcRA6r5tB3SocMlt4Ygk8I/AdV2btbZRaMrv1326psHd7ZJiEtriQlVssDtCVJLqLEFKCczh0jw/O2c+XswWGKcUAgtEwAwkvNgOQmUy8JWJTGdxVYP32MxPv7O6jYRZIcPt6Evwf1q8kNTnGrC2ZyN7mDbQLoPeRj3xEBCQE03/89j+0qg38HOECBwhi4UPlZSV02603swCcLQAWFnfEDJ45fYq+8+1vSVjETKbfX/3q3+knyFyvrqL/8eWv0Le/8x166qmnKJeB65q1q+jkyUaqOnZcMwgwCIGAzMjIJM/wADW1tgn9IsSpT4/Xz83Pk/sJhebS9ddfL7yns6OTWnl9QgmQMpYupwi9EebVB1FhYnxcaYlS8NMYEGXk5XwZ9FuUn7Odn8M4+gWQ7opTCSKR5Tce4DV/HuO4ZbolGFU90nkdIT4SSjd4gt9M5/E8NeZYYbw3rupY3eXiWYXxnuXhO0KzrHxXPvqHR8Nw8QOsFhTkU2dnF51qPCXeWOTcuONYudExLiU8Nt9a8nZQ1zDg/TD8Zr9H1oZKMBv1+kV2Ih64hGUurvMi8/7dLGM+1z+WzAoLcX3vqDSzUhUpEHIQCAQmbcJk+t3W39+/obqmjlq6u+LGPrt0mWv2wAo2YDmYxnTbcKqRCkt89NF77pDQxGeffIre3LOHwetaWlxZIZ5a0DeSZZcureC5tFAmy2DEtlfV1NDmP26mHTt20De/9U364Y9+JGFH//zP/0LHj1fT1778Z/ThW+9gWi6lp555nhbMm0eVSyqlwQRKi4Fmi4sLRK5jPZ49q5V0lWTBoX7hSyjhVsn3ACwzu7ycrt14rfCR5uZmTfEIa9Z+qfvN6wx0u9/UsEmXuxG6xfvSvPwvQ2GC9wDKk/nZAQBDyYnHT8G34AHDvX/1L/8iCYLjjcrKyhR+0Jv7BwYrU1NdFWBYWDwNDJp2HDhAJ6uqTT3MjRqnLUYyQojCejgE4pNcBvepsgIL49ItrSm8ueeWs3qoAeGTjFGHMt3C6BFnDKIvKcgbd32e+AkJcmBgoJqJsOJsWyt19vRGsq7jDRAhLD+wAttsY0sGmqFYY7v6qLa2ge68804Bm4glPHL0ODO1EonrczldAk6Hh4bEXYVncfjQYdlqak9I3DVCIBDyAIvtpltvoS1vbCG4xh569Amat2iJxBkhHhHzsOTyZfT66z+juro6mjV7tiglcJPiPtevW0U33HSTBP5XLFok9zM47JG5w30BnABAnDp9RoRs//AoE30NKxN62Rad8QwwsEDP9kQxhk0sgN2pbppZULiBhWl4XnlZSjwADMFiWBN4MU/fkJ+BQvqohXeAtzO8QfJiUoLx4nxjgV8Vi6r2FxLSAOCrrMHvRSAcr7QZEteG4V2RsmnRNCrl1C7yfRivYbT82uKApAkEaFjKKLISeepcs5R66hsYnBT9wv2raNevZ2Vn6ooh3h+vqaXbb/cJfeL4YwxQV6xcLlahzvYO6mYwAusPBDAASTUL0caTJ6i5tVXKrYG+tu/YTrfcdivdcOMNtHv3m7Rv3x7aunU7XX/d9ZKQivAJ5A6IwH7uT9Tc1EwLFy2knNwcMTLUnzxJ66+8UhJf0Sls1YrlYn1ubmmjnq5OsfrC+4T1Xcu0f66pidpYaDY2nhYeUMDCFl3xRpnPdnR1ibBLOM6epuysbJpbXLIBgJd5QGSCurq7YZkUJSYtbfJhAMYqEdZJzrEpkQ6uNKAepw6IYRGGtt/FNO3j3z5pglahEebwiImaaiggLHWlXc53lG4/+alPpjQ2Nm4OBkOVaWluicOGK30/A68t+/ZKCUxV1nLExBvHyVzm5SkBBrgMc4wwEnQQL9lQ2vuyTIVxCQl3j7udWulTBsb9A0w3DIBV62Y0tAKoS7E6JhV/A8/i0eoTdJZppn9gYFyjrHhyV+6ZlUTQHcK78gpgUMqm883nI78Hcg2geM/evQw2N4qHE94cVGvyB1AeLo3lXTdt37qNhkdH6djxKjkfEtPf2PKGGJ8Qv//0M88RajY/+vgztKBiKa1Zs4ZlSIrIZYDL3/z7b8RDgxAmh8NF1XyeyqVL6PbbbhfwDJC6ko8tKsilgHeE2ltbRN6mMl+BTKqqqpJyqa3tbdRxvlXKqSI0EesNdDsZPAK5m9ecW1FWWlrFdFqTn5cXqSvMsso6MDAYhNJqVjijlCaEqqEKBisISRCcWDO9NwaADLd2dNOO3XvIHQwIgURikwyW4HGaKjNnBXx9ZssBAxWrwWI3rAhUtzSjLXKUJpieqvU45++NHZdsmsaYcE7hbtiye68IDywEEBqAopEBGi0DcGm4XU5NI2PtWMrK+LXuUmAALleqLLCm5rOSkCbJfazpQSt0p2fRggXzZb9921aaP2eWxA8trlgsygSOg2vzU5/6pIRCFM+cLQkNA71dEpf4zW/+DZUyOIV7taGhgYF1tSTBrVq1itatWyuxSwDHCLLfu3efbKhN/Pf/8A/UUFtDy1asEKHuY2Lcu2+fuIUQWlFcWiK/A5bipsb6SCk21DxUVhCESqQxswEojuqyZLCSQJvs6++TrZGF9qEjx8Mrli2NAsJMpNt0C/B4IKu5vsBR7+TXa3j/Om/bWHjV8B6JcypWeByYjdVKOTQNpc2MgPq9PCRUiH9HB4M1gGD5TfqcBKYhtjpgANkWiUnT6hDHCllA3KVjgpJQo6OjYa1k21kJCQD9IqMa9AvvBTw0iRofwHOB9S4gWLc+peohTekZmVL7t6OjU+i3k5VaqYTAyjw8O0eDR6WCA57f2g+to/I5C2iov4eOV1fREVZk0Rjn6yxE4eWBYHlz15uicH7jr7/OAPg6sQIdOXJElF6A6iuWLWM+cC2NDvWzAF0qMYzgY88+96yc44tf+iIt5j0sgigDFfB5JQ8AA7HGOEa5PRGDCGucGBAMblRjTL+Rdo2WTvC2kdEROlR3gk61tdKJE7Vh5ldL4Grt7+uTUBNHpEFIyGBoSBwWYUyMm8i6bxTOhuOR4g+mbNEBsQLFbbxuRxUQjuf5MXqKElWQiHk/Bv6GkvPTkQg30Zg3b944ubt79+4wQPAAy9YUBqSxjE/jQCT/9GGD3DXPkTI+qaRUyN0e3ygVuNPJzfJVZKxZ5upy2SjvvdaUCTWFmtOnw6+z3O3s6tJpL40yTGvUHJai1jAUOwXcYDXNLSiWmOcRj0/oDPIP/K227qQk8yNMAQojqkhsY7kLJRMhYnPmzJFY2VNvHZDzfeYzn6FlV1xBxSXFIouhbKxbu4auv3aDeHOw9mtY2UWyOu6lZMYM2nTTTQK6V/Fx8MLAWAU5CMMV5PTZ02cEFMPri9KKbzDdourHZQsX0py5c0SewLsDBRi1iyXBnmVtQKevdIBSE33hO8hh0B14Jd4jBwhbU0tLhTJADQ0NvdLV1fVdXXEMx1IyjTQJOunvH0yC4KmOhlNn6fT5c2LiR+/wWBqp1Zr4scIS7ItMUCgKAEdLLmckBqqzq1s0U2TCqlAJWD4CUpjfpyUH6MpsvOtisbyya7dYSCQxhrVJMDowUynw740d3uHzW6LbI7u15J7T7Z1ktbsi8dLHqmqZuTolflcsoN3tVFtbRwMsMKurj9PjmzdTdk4+XXFFpWiqe/e+JdZcPC8E78+ZU057DhyiPz78ELV3dtNHP/IxuvnmG+X+Hn7kj/T7hx6QWGRU01i7bp1oprBS1jPxHz58VFyyqF28dt0asVB7PZrQh+sULrX7//sBeY84Qwh3zGUXP9cTFptWrzQlHBGYYCpSg1QXggH+3KZi5JgpOfVi4Jg/r16vdCczly3bdoWv33hVigHobjCB3piNLVhYwd3zWd6g+u9kAk3Tu0p1kxZCHo4b9hDDHX8xxnvdGmwcMr/woDCtoByZxRIYZ5W9mGBYrsFMW4FfVGHAmoIQAM2gMVOks98EiUwKAJ9sOE1H6mrJ09MnXqjsVHc0/SL/IOCPCM1gwB9Zr4p+PXwvqtoN1v7Ro0eZdWh1PutO1sn7Y0cOMTBOl6xtJMdBYKEUGaxHLlZokVmvKe8W8aIgEXHZ8uXSdGP//v30X/f/t5QdRAINElPBb5556ml66plnqXxWGX3+S19h4Vspnhgk5eH8cH/v27uf7vvP/5T/U5Yc5EuA38Ey3dzcKrR8LQPhslmzqK7hFJ05e4ZvvD4mDYCfgW6dllDkWQiDZN7gkPAuPPdUGhoZFUX21Td3U8/AYBV+M9aJFgccy5pr5veWyQDbmO+NgtlYUYLfIxj1Nh0MY0vXwXAL/7YhXjOhWL9ZVY9IZBk28h0zIFafw3gwnYlwCWknHEZ8bCRWltfPbx986A+a94JlRRqNn5O00NQ8XmbLoCslWu6mO1Opg9dnizSB0EIFYR0WIAy5HB0KmVDgwziyfeeb5OntJ1dOlsgNyF/wA8TyA9RJHlFgfGhEqkGxg8cUdFJbdYzsTre87unpp5P1jfI96AmVL5rONWmGKJaP8MSADr7wxS/TNRs3SrWEltZWka9oKAKlEuOpJ5+i5/70As0oLqLPfOHPafkVSyRU8PHHH6dXXnmV9rIC8oUvfIE2bNzAtN0ndFt/sp5Bci2dPtMkawhJ/vhNiLlFqEEaKxNHmW5/+++/oc9+7rOSdAswfOjQMUmIa2CZDL6EsAgFfPE8cL/gWcbnMRLwC9269LwkGOZQzxhAeAvjDzxjKOB2ux2M/c95a4815ypOGCBdGf+SINhg4UWNvAYWBJjA7Nw8sUAgJhSB4HAHHj5ymH7y9z+S0kvKJXLRGYAOtMD4FSHWHHxLtLQol0BBIZVVVoiVWLqupWcohhxzTltbW6u37jtA/W0dYuF0626uIUMReuWCMbpp3Iy9ArYxKzAGCmaj08vLTz6h1fhjjRTxv7D27tq1QwLd8b6mpo5+9rN/FWtvcekMqudF/2+//hXNnz9PtERY5Tq7e+nAwYNMwJ3SXQ+lkUAciC16fdd2qqqtJd9wP9U3aPG/qC143/0P0LYdO6XQeXtbu7R0RcmXcr5me3srvcxEi1bOly1aJETW0d0t/4uM3ieffpaBt1ZTeICJprOjXX/eadK+cSyhMRDRvg0PRwMl/LxUSiQUCaW9QtjXnTghbbDXrF25BPFKiEGWguEmIWO00pjGTQyAgTaLWZi9EtKswgiUAieeErpVoRHvdQA72dGo04gCGUbAAQuqR1eK7PKZdVrvBdYlAGBcU2qE+0YMIRDD5IEHhoWhTUpu+RQAt5jnGDHAQu8MFAGAISBsWZmy5oz0i9J+SKAB/ZrdibiCkX5RvkyU1qNHmEarpUwhPDGg1zOnfi6Z4KiOg6ztf0XWOK9rxOieOztAD973H5IkF7I4qLdDq2bU0tpB9//XfeTOyqOmU/UinKCsIiQC8cYj/d1Ue7JRaPEMC2ico6y8nAYZeOJ/hc68PrkHxPfuO7CfMrPz6ar1a8RaB94r88vn/v0jj9KRY0dZENqpr7dH6B8NPIKm2EooBYp2gwae5tCT8dRrhDMZ6fcYK+WogzqvfCaDwLE6yokB1VhLc+M+FuCKV0nCXFvYsHY36IoxNnQHOkxaci00F785WS5RaESs90YLsUq8RcjedCfCqXHyZH34RHW1WCgRmgNvw5+e/xPZHAx2LNq6P8jyr76e+X+qPRIKMSHvixEGFmmqEgHbWkI6AJxqvqEszEeYjzccOhxJzBMewjIJIHP9VVdJPWwk48EybfWMOhMB4H28XrH+sooLBcRhnmDBNa5JJWuM8teozMIrgyYVoJMnn3xyzArNxz7wwAM6XadLmUFYXw8wDXWxsozkUIQm/vbff0UlZXMo7B8VpROVkN7av4flX4s06arhOUAyKz5/ZPOj9NIL6UxbrRJqBLqtrT3JCup9Yg1WdKs80EhcPXZci+9HEi0UKBioIIsxAIS9LLN37tol3fy6OzvpPF8LMt5o7VV7+f0xng020Cis6MAv+L0jHq/wu+qjh5kHLAYPuYWB8F/zPf+EaWgkGgCHJIkPJVYx71DYUQEjCYINHovXXn6p4uFH/iDd2tTDR8IFXOUoFt+lM2OU5Zq1WCsmj84rZIqbihUOEd91Zjb9p0SszADA+7ZqFSrWfWg9rb1ca6Hc3tRKz2x5i2r27IuES0jRbi3mzxnDklS5e9/BivazTaKJmgUoFlVpUSESvaS80Kh3jPG7HTbW1FIkWazlbLPGKNJTpdvMaRZoED4oro9aoW3tXSIs0R4V7wFOQTxYrMhMHWUGgHggbHa9j3s2P2t0noECgu42IFrpXsP/c5qF8rGhAxKzCOCN+F+4TVERAkmKAK4gUPwfBOiVV19Dl19xhdxTQX62aKa7du6kPW++qbVIZk0aFSC2bd+paf8sqPEZQjtUGR5lDZ8/q4wsdr3rHZ8PnYZU6SU8H8R1wbUFC5IAYb4XWJHxvup0I5p+VKG+sQaoLRErjHEfj2kzk1zCwk25QCGNjuoWoP54QDheWSYFhC/EGqxKZWEPt9qlOlRjB3gjHI7o3+wZHRUmCkUL5fUSlZgLXqBFGFZGnB8AWJXpkQQV3bXc5+mhga5+fV3nyrE2DUzZiCJOIoTSVPIcViCL+TgrhsOd3azA5slaA6BVcYWwaMyeXyItYiNryNAhS70/zcoQ/g/rHUoj6BMuSdCrapeK+F6AZDS+gXJbX12jd3vSKq4BxEKZVfQDuhYr7v63Iu2RwQ9QXB/AZR8r3nYB/JnS9hyCU51DdQVTpQ+XViyim2+9na9dIPwX9TwhqF5/Y4ucFxtCl15++VXdXa/dV6p7rOxcoH+AUlnhXrxgQdxngQYKTax0g37V8zPS79l2xCpmsUDPFv6MuFQoNIlCGyYKl4hh6Y279mJ8t1jXZWbqFtLdTNcNTNfdCI/ATzTT+EQl1Mw8KKTfm11/7u+Y4nrqNP2/n/1c1p0R8KTrcdigHwBkgPJl69dLWII5HEELZUiZhKzVqkOETd0TMbeQncU68D92vIZqoYhlZtEnbrmaispKaKDfQwdrztIxBrS7GczhXrBmXRq/tsbzvG7ZvVsswDA8KbqFkojfiDj92QVFZDPknai1mspgEVVOunt7I6AYzwR0C48Iuq5pLcP9Ig8xQHeIr8X3oC/IUdAcZDzkMGJ2xYiVo9FMe3sHnaitEz4k7ZQLtPjjA7t2B0t6ywAAIABJREFUR2SxkW5hnMLxQrP8HnQ7d95cuu766yVpDrImh+8J4Q1vvL6Fjh6t1mp6w5jHwBdyPyJ3eY0BR0TWPSy9fO9LcxaSIxwkTyAURbOCtZhfgTYBhHF8Fs8X8AMU2D7mjWfONEusdHZ21mf53l7m9bxDeVC1DqxBCYkMhcJ0//3/ST/jdYcyuEkQrFxkLte9s2bNqgII6mzs0GNyUiPNMZRGqLQXWGmlQkSMxIGJwiFiu4A0rRQxrwDAaLoxVFcnAPgbX7mXPnH3XFq6WGNO7W2jdPsdC+mH/7JVtNWIS0cyLcdz0FOnTlWdPHdGkrwASLFYoUFhIc1i8Fg5dw608BoG0l9zOhzbGDRv5AWzlU+1BAKaF3wVSoadbjgtpWRU1zxYYPwWmzCWEY9WvkVzL6dIG1Tj8xLCZsID2Q4OjVVjAGOy2MIiaEGIOF6EGi9ULxkKhOvnhnBV57SKSzM10l61q7ONejpLqbg4XxpsHDhwgLa8sU2IDwTu1sE/QLIxvAOMRdzlox4KMKGhTvCC2WUQBlGclRlBOe/KWWCUl88s/XZHR0fFMX4miCuEBTld3MzZWoxwfYMwgFIGE7AGwx1uU8JJtURNYLnh7y7TXaAsq6T2DxbaGRi0gwaUpoTrREDuQqzB75W4YNwnBIbFithba5Sb1xjqgNcO03e2SVRmgBKgnmu8xDt1PnSnGhrSrL8AuoVZvEadPJ3eIXndbOnhdTIoQj493S1JJgyeXEYQnOZ2b/YwnYK5w+3HzEEsSQoAY8ybM4eWzJuDa9QwnfwL/+YzvD7PpKamnjELZIBg0K9Xt246bfYILUG5RNtUCD1pe+zxieDD92hz7NQBCvgH6FfRD44BvVv1zpo4HjQaUaIBLhFvn6597ralCr2JtZiPxbWgmGpW72Hqam8TKxvifZHYg1hg5RlCjDCuZ6Zf8B+UXhvq7ZPvAWAvmz8H9/NZfhaIlWjQ3f7z+f0CnsMvzR8c3IDkQjwTxY/wbCWRloUskoZRvB+hHj6ff0rrMJZFeCqKVZxj55FWOg08IYu3fUyT+G0wt0XqjCswLPRqAMbm5hrGhDnprMbXRGmqdxIAY8wsLd7Oa2qD2dOp1qUyThgt0yOT4EX4vT78vGA8QGyNSkjPtGtW3bbTp+nMsePSxOon376W1i2fReWXF9FoxwAdP1FBv/hlJj324k4EKUsZ0/lMfw6nu8R8flSB2PfWEVZcuyKGJ7FkooUw09mKOfNo7txZcMtv53u5j9dmPa/NBv3f5/P7BSx3f3/8ZAM18j0Ba4BuQYuykTVi2VYtyfF+WD9GeXtAc5CnoA9zO2rQu5KvGXoVCXgtI7QsVSg0unWSIzInaj84NCBecYRVdXX3UiaD66amc3SYwS+8wvheyV1YmI10a/NrOAJgHp4mUXzycmlpUXFMuuXdAq/H873yntkV8OoBDMOIh+cKuQvc1jU6TE0t7QDhM5xO51dHRkbeYhoc1jodWrQkYL7+o394lH7yD/8oRs17P/HJJAiOgGCHo/rkyfqaXbv3Vjz5xGaaObNMhJdqm9yM2LjmJgHFWBzxagS/3YGuTiI60jOEGM9I57RR0UT/6furKbVwjAmU82sQJsZffOdxsQij05PLchWIu8B4XgZq27btfyti8QCTVBYkAOB1Vyxl0Fi8BF17ImBVq50Z4ZqBUOhaZ4ptq5eZjx9FqPWyRVjgEKQaKPYJUUGo+QxAGQSpQgjUyDDEmqHNIo4BoCY9EQDH+vXyNupYsVx1e2KeAwwByTE7d+yk3Xv2RjRmJPegpB1CH4z/r/4X94vP8XvQMQ6/R4QBsqJjNMvgNXJGB6IYD4RCwcq0tPSq/VXV4t6CJUmSSZjptPT3UikLdCQwWCU21CLnFkA5iYoNOuiE1efjOgB26e7yU7rQC04kXIMXKcbVaA2+lEcOM2GAJ1gpQLNWKUGWIow6EtrijK7BHDDtYw1UHpnK88Q9BIZ6KGBNpTkl+ZRZNINSM4I07O2hsJcVv/Qcms0bnW6kzo5uuXZurp0ZgMOtu7lJZ/7Uw0AZVktZt0y/WBe9zPzBuC+bVU5XLF0Mi1IU/cYabqdNQFlABPFAhDaxQbiG9Pg7vMfrUf29Uj7NNKloB//r1a1Uiu56u3vH0Sk8R8OG7ppGurbrEVzwLJ1+6Pcx6RfHKx5ipH0c1zfsldrtuFfMEZohpKWlxXomiIuC++xh9QGS4Q6eqI3Qr1jxXamSpV7I6wkgGJYthEUYrbTxqz/EDomIZ/GdTPKcYZSIlq3VEsYe5nmUV4SLDi6HEYpRSi2WJ8jokVJKYJrb/Y7T7OKKih9/6lOf3Lpr1y4xNAF85ujd4kDHWAOQu4hRH7emTQnp4zwyIcPDMIwUcwtxB8swJGwxj0N5TXiCH/n1x2jNhjljBhyWuWt4uw+GqL8gAcKZLAsRJ5yekdZvvkZLS+sGADVleCLd+AMAvHTRQlq2eOG1CWpUyzpluXuYZVGVf2BIGsGAbhVgtUTk7higxXvQGOjAqdMnaFHROSzAER4Vg5YU3UIWKxqMR7cqrAoK7HPPP0+vvvq6AGZUq0FlFwyEQOIcQwOakmrkGzinlDEdHqaRHK0WcxbTX3p6ekq85wG6DYfDlQW5WVWuE06qZuUYWAYWYWx43drTJUpwUUHudUxXM5gOT8pv4rWNJFt4ln7xi1/Kmvrh3/2QfvzjHyVBsHGUlc382oZrrtq6Y/s20SwUAMY+ql3yhJr81AstqeQ4MGEE4mOBoOXhN75+pRAgNFFYgDGKilPls098fjW9vq2DHn36Na02biiI4PER43mbW9o3dCuXrF5kW2J38vNpzdJKMpYFijdsFsu26upqCnlGJQbYqE0KyKDozHaLLXamuxK06nsRgPb4AsD8Xaxj1bnAvntGRsSthkQ9BNFDiQEhKoKOdy2ZX73OKIRSt29UMm4ntjxaq5kolwyNeKqOICxjdIQyrOmRIP8OBtfFDGKYaCOhCUbhFAP0xhqw+tyuC71svj/8CFU5wh9LqMYDwxcjNvhSDonAnCOb3W+I41YAGKAXmzWQSjaX1bB+rVNKiEtkAVYD1x8NWHneMyg1R3MxDrUCeGrsNjjUK0AYta1hLZZudiEJhYiS9F6P55G29rZ/AnN3ODQrsDTFYDosZwV2xRVLUMN1UoWgR7wBSZyD8u7TeZmiHfsEdBuL/oygWb2PnC8GnanPFJA2f4f/9bNARZWKhro64b8AI3DFqlAMI/+I4iXg1Q5HxCs34PVHOp0l9r6FK9EytqS9SwCKygdIY0UW1+/lzwqkm5U9piVxotCIiYDwxOeJGToBM9wVpNUaByiGNQR5A/A1d+ghU8OxbKDmEIiw7pESAMwA5d2oBIEOrWhzju6AL774ggA5JXMVHSvLoztBWJfDO/l29+C1Rj6pktRUffmv3HN7BABrFuBuVojcEbkLmby/rkXydJCsbrXas6I8QYHAxj17DkTiVzWLtlfofNVCAcBL+FlXT8hH+H+MoYkqhFDRmZlexQhlM1l6Da9j0Y/xfTy6VTRr/h5g2w5llRXQ06dOCc0ouVtUVBJRoJUFO+q+1TlhrLBZJafB0z8kFvRYNbsja1hTbFNQ0hDyFVVy8GwlnInPCzpG/eXc7AyLZhD0n1TXERnY1CxdgNGIZfGixeJ9SoJgI3dhzQwudIDPA/v2ixUizXSMbwrENtmBUAhtgjULAnqYg/BvumaphEAYATAGXhfp2ukNGwvptV35Ytr3aPfmNrjvN751+GgkFEHFI2GhrqpYDEA0KQGK8IhDx6ooNDwqrVYXL18mFiWbw/F2mN60zV+5xoCirgVAGgjGBphjGak++T2w8A/7Wfh1sFAsLJnUNUGUAwMDNb19/RUIOUGYCc4Lxopaw77RYQbLOZprngWzZHCb4nRjAWATmIWqvF6fW0iE7bzBXdTDx3kTWX6jYxWt7+skOdR6Rh1ghMIkir1Ulq9Y4DfWXBiVC2UVjgeIg3oFkFR3qtTmVKA3QkthG6WmBCjk6KR0Xp8oXo/75es6+CpRINjj8fiQpKW5NTUBAsEKi/DiRZfBsrFkss+mo6e7Z3RkOHdmcYmEcgm40C1/Rpp5t2jXBCLiXs/Jz9erz6mRtvE/OB70izhKBlCb+ePKRNfhZ1mFZh/ZGalSjxXWX1iDZePnjZJyrOBSQapr0jG9UxmJEuYmcRyS5G6FQ4C0GOFjzFPgJYIZDskrfdC9gKVUaITFtLaVZwql8t6tShAYeXm529dfuX4D6tUi/hdeuezsnPGKHN+/2/Re0zAHiWIcH5dnW8fLLV12igd4zfLMCACGrAUAVnIXXljI5DULSwUEw2Dl9474o9fV0If7fVorYJvuFQDdlhQX04I5s2smA4A1hdG/uVcP1UFXRE9JcYQuJkuz0023uI/yxYsuSO7Cyo+1yDIUfHDDRNfs6u4Oo/3xrALGRmh6hdwmNNzh83pDVgl58Pn8+VmZ4sGRZGMcH2bsspDvFW2cn3n6afrOd/43nTp9OgmCzaO0tHT7qhXLNwAEQ3NDOTD7BDU8xwvNqT1WgF8FhL26BQNWkIKi3PHCrHckQpQg0rnl+RLsPTAwMO5Yr8fzYSVEtU5v2kItzM+H1fsHU2DWW9V55i+qkIxq+dzQVjNe7/mYz8dUi9hcgzdRvdPJDIQkKECjLELma5rvBxYbKAjDXT00NDzMB01e2XGnp9+bk51V5Wx3atn7er8SKZ3m1YCv1WKNWds3EYA1DYS5rOTjnLqVB5wcMVPwlcNsHQ4GQwmtUyr7+P08YLXDb0QinDkcQj3nePG/SkFJ9Bwj55mguoSFSUTALhQeo6LNnwkQ7hmzROvAxsX3lmNaE/5RPe4P9KvWzMxcKZZfM1EIRNRv8/uxVtbMmjufFjJPU/WvU4N8P5PgV5OhSSMtT+Y7M/9QdGiMaw3qLeiNPCbeNeCJQUw/wOtEMeyoBnT+fAsF/FqDkEyXmwmpV64hNZv9em1pvyeKNlHuDolUZmCaKDwiWjZY4gLdROeJ5+UhrbkGtNql/JuxHur4+cEqjFjhbh0MD0pZNavVqxLmFF9081p4pypBxBv5+XlfW7N6VVX53HKpc6usnv4JmkkYwyF8Jk9tSgKrsQqHUHk4eK4AY/D2oj4uZCpka0yDkP45kuWQOCdA0O+PAgisWDlUTW7jui0rLYUC+8jk5W5Ii+PNTKdF+ZeL8WoqsjaeXE1Ep7Foc6JjYtU4x/oy0rWZ1vE/ijZAt1L9wTOC/9ue6L7Q56Dp3DlZs9l5hZTZNyBhEEG9TjrKIaISjtcz2uNLFZdfCDH9SG7FPC9cuJD+9m9/IMZMeB7+9gc/SIJg82BA+eOrrrpqK6pEwLqak0jDjNM2eRL6U0wgjJEWCkSASmc7SgCVSvxvka6JGt0yGKdeqhOLtVNvaWwsC8ILymFshwxQBgsHqkAwQ5w0ykOcTs3p0z91pTodqU6X3ZWV7nCm2OzecACrH5vNsFebNcbeuFXo1kwwccS0zdQtGPm6BSNdf1DvyBrl3yMtW/uGRiQzF0ltkxno4mWzWFLg0oO7WmocWqJbdCqGYBZ2k7ESmY6FVrTG8AzVc29hhiJAeCJLEpjN2wlpuJgWsOkcqKuJKgwePTbYfL+Tuf9EdV+NI95zlDlj1jDsSiE7gLUjjSy+YRoKpFC63jo5YEsVAWcojWZlZp1rOo/PLBTBG9JYKLpcznun8lyKi4rrV/HaQbZ1Vs6Y99aJeroXUD0EdOMNB96VubaxUh+wj7EHuFPhPs7NzICQrEwEgDF3CHlCrCASV5m3Sdkl0KrRS+MLjc1/KBSMAsLm9THF+N64NBbrPPFKqSk8yNsK0kIj4MdHCTWUDGjXeSpcEQMMgIcZAHv4N/pxnvSMDEdOTvbRd5tmEVbG81GzeuXKCoDgocGhiCUY/NQzUf5NesaUwiFiPXd4NSFDEaN66kyXhEMA8ELWmsMQzxxrp7MduhKR5o4hE4bt5m5w0rUxXQxqk75RnpvK6urqnxYXFjooK92eZRETtt2wTafcJf3/1WfqGPU/6hw1ulHGuAVi7NXmN+z9zD/8/X19PqZbf0FOti8/L+/78Z4Hr5EwahCHDKXuUFHCGSN/h/kq1niWoldJmNYrvKxYsYJ+9vOf0for19Prb2xNguAYrgOJUVq2bAW99trLdI61DlhlVXk0YaLBAM1FdQhZ8ReYIBfDNeMuKqKW8y30yqEzYg3+HoNgEJ+qTKwA8P7tp+n55+oilmPdPRGhylAwGNOErZf6mlLKc8WcOd9/N+bD6/Mx9HaM8j6X9z28L+V9C+/n8b6R95UabrFYg1qpmlhMgPUDiy2oxV0amYdsVq0cmT0YKnIwcPonVMWYjMsKbTAhSJVVCW4g5baOdPkJafGoCgRPBQDHAmAMhBBodSWNJcu59d8D5jQcTGDGVOeaqF3nRPc2UUjAu6rEFhdLveC+/n4BwmJVQswfXNkBzZ0dqxqEsgK/HdASGx0GxSKJ0IhsVqgsznSWJJpr06nXCkVNXMwFnyfMwnGEmfV5XbF6jhXPO0g8ov5xlhfLFD1TGPPKyz7D5/00r78fQAHmNe9nevApYWQSTkahFUuoYcM5sOarmefM432jgTYVrUrcxSToV3CCgYZt+msjHQsNa3QaGke//Jk9VBx08LP8pzjJNRGl9ezZs9TP6wPWRksMSxc8ZraoOr+xYviDRhA3zqKbyLqXyCIcXzGzJmzCoY8Z+tasg+A2IwhmADzCANgDDwOD/xQGHL+9VOi2sKjo3rvuuqsKNd6NslY1YgKdmGOCRy5SxRrMCXg3ZCi6oUKmwhqs4oKNchfA+L7NZ6i2tlboOIv/ZzA8bm04ogFZSLynVocLi2VKcreysvL7lByI4w23tbUJ30QlHW3ieE2EU8SqbMwBgAeHjyvSQwWtrOQGYTlG/O9zzzwr83bVNVfT//yffyWt3JMgOJbVpLh4+4c/fMOGnTu2S4kyaKOqRJqW0ThygVcYe+xek2tGCT0U5cZ4ZdsJmlMakFIt0ESVSwbB+r97oIbq20cFNBPfU0CrhddpVECNhGjsJkWGUkyX8oAA1fc9+r5F3zfq++qLfMmfTuYgAF+Ut1JaaCRrXAqbj7ckomzXhMBpAkZtEpyrSMsOh/UQZusDuvAbjOlq0AW3JrwdAmQnC2BVabDJAPhLYcC65051CggWSytqWqIcD1p+GxQAAb3hIIIEYwKVhKAkTu0lBY6sAYfAN8T7AiTlug00j4SXUQ/f37C6H5S2GmJmLdqFDoATKqo8DxPGvI4zmCUAhxdoOGg00WaPkXYvFfpF45GWltYIAJ4oVlJ9L+1aY5RJi7TCjmMZnqznYaoK10R0yOt6Jq8nWOuGFQjm9wNMCyP8f55UlytYWFj40UuMz1e3t7XVrF69ugJuamTvI9xAWYEBhs0xwcbhm0LiurlOMNrai7DM1crDQaY+9rRWC1uVJcWABXjv4XP06rZjWp1fnX+GBwfM6yKRlvqekLuX0oCxCa3VAW6lY5zdEZNPG8NElEFD6xBnl3wRdKf93X/eJ930fvD979HHPn4vLVm6NAmCY42cnOyN1TxOn26sONfcSgV5OVJ/D0Wp0XUsl7UKNLKIz7ACcbT58bQBl54CwEKQOnPLLisTLbO1tZ1+9WAN7T88EAnYP91io6q3qulIp5eKs7OlhSqAudXnJWMNWUuMC2rB48EpW4LfrwPZqB6vF8H429Pc7q9NxgKsAPCE4MAa3Y3p7ZYzM2abmw18pLnSS+D6YeG4m7QSbr1ihI4TO6aY/mSAMI4xu2IvtoC/2EMlyGnKX1jiglXJJUusew6r35UyzhpsrA0cNSeMcOMBYRWLLIDXF6De3h7yeFLJ5dKU2IAfMXAe+Q7HOh02sWYws24zTxXAGlr/WnnunW/DAvx+H0yL23x+/warxbpdr3Mek37RMKilpaWiq6tTnrkqgRiPRlRSjyOBwTY0QWzmRBbhyZZQM59rMoqonnyLzExss/FerxPrzczKWn4pzmVRcXHlo394NIwkbtR7LikuoP6BIWmMhDHsGbko10mJEb6jErtQ8iw8PCpeWDSlWrKqUoxQGKjEdKy+hYYtFppdWSGVIXBs0NyNz+W0q5AaBcwMAC0pdw10y3xve2Zm5saJADAsvaBZaXIUgizVq9L4YmMtX0hCgVwauWjzo2Lf0fDkNwyGF1cspvkLFiRBcLxRySMQClUO9g/8H2ZWK3lRl6A3dVV1NW1+7nl66+hRAamqzWI087PFYWx+KXESfaxOLOFwpExayuCQCG3pU84DxAai3FnnjrJFgWCN1/dKwkbIawBeFy0c4v04env7wk3SQhIVHCwbmEjQ5a0mPT09UTxhNQCwElJIMtESGKJbXaKmsi2GkDPXGp0I+E7CQgSfHVTjVH7tZgaxn7SEOdVqeVycMAC5n3yy9hIBYRX2EM/ydCl3j7vssgUxPz9+7JhWZoxpEQYbkV8MgkPhlMk+b/2ZjIHkmM9Bty7b7SkCPkb1jnXG8wRtPkq3Z1GW00K9Ix7q7ITHacDC61BNfsBs6VDrK9Ea/aAMZInj+cPa7nA4NuTk5EiXxlgW7/b29irUnBXlFNn1hpAYseayMDXX0wUw8sUhQ2UFVvvEa8WakMYTJctNtBYTAW1VhUaVBMOxWVlZjazon7hU5/STn/pkCs/hZr8/UGm32yo0GmumF/70gtSiHRru1rrJxWhSFQy9/dh2JMal8XNKg/smL4/cwQAd6RyhkztqRc5DBsPQ5M5Ip/mFRdK5Dp8hNNKsONv8AXuC0KoPtNxF+BOqsqiYfAa2GxDryzw0JRZ9t54/L2FlyPNQBgwxKFkSr32LVs1ACMjrGZWyaDCOfP5zn6VTp0/Rti2v05e/8hf0l1/9ShIEJ7TkWSywKtxuBk7oiLJj9x7p7Eaui19gHJomc2CaNeIVIKyArlETjgLfnqgEPaPgtBuBmbIoJYlR0zARY6SywzGQFMGCsgJAN1ZiDaxJXV1dFXCNwsUitX9ZeQma3KGaohFdAs3YsWmiUmYTAbAYYwYLYiQvZOpzjh8E8wliTIdDMU4ORoLfkZpqjVg7FRg2xvzGu+6lFgs80RjV44MBhDydnZqFOEUHCQhXSQlPCIQnEZMZZfGXUkH6BtCN8+N60jgFrj17BhUW5JK3v4uOHDpKI74gzZ49O2QWmDaALGVZ0ut7IrZ1usIb3gsDghMCUlcIdN7cK2sadGr06OBYtcYRKqPArgBhotjegQlo05gkp/ax4ovjWXOnOuJXn4htKbZGAP5YTVwGwO8J5YnvcVzS55YtW8Lbd+6i7oE+SmFskxbj/6yW6BrI8YY5HEI1zhk28Oz5c8ulQYWSuQDCpTr4FVkxpIVFIjHOa3eY58QWr1W9hcIfWLmLcKTWlpaKUb1jpXS/5Gffx3RrBsI4VgxUzLeNYUshEw+2OOJCWIQJsjIihkA/qmfhPJtuuVm+/Od/+b+0d89u2ZIgeIqjkwVoa1dbzKzQscmZWrY0QiEUCxsZa9RGaakuSnG6pK5nf2c3dfEGly5KopVkZ5KdJ7WLtZxOEOrQoGizVqvFiIhtCcq7BT6I8wdNlAmxCi4WCD+nK1U6QoGgQJx6qbkKsyDF6OnpqdLKjNkjws3I7OxxYgwhiAIUM8ltStZHo9CNMZAJu46ZRIYOhlEtnPFTUMUJR/5R2vrq5ePwOwCEsTd2RkskvN9rABhDNQJAmIQAXt3Sp8IWAFDNRfSNzz5+SET8+dLqhGr1iAG6fSkjZPU6IvGoxUX5kjT3zPYd9MyfXqS5ixZIpYJ4NGqsOsJzcscHkX71sIYqVkYlvETRYoS+mR/yd1VoYiPKbnt71ZmzZ8cBYHOt7gTCdJwAtkwBzMZTXKM9QoktwsYaxdYJAXv0Mcr7gGo3rNi/Z5WmpnNNNMwUl5mgnJ/REpyoRBrCAY1tk83zWcCy3Z6huc77WU4gBBLPL2dWFmWnpdNwICggOMJbTPIe4RBx11Ao/IGUuwghRDz+8PCQ1vjHNVZ7G+XLIHdh+VXdLzVjVL/QqCrBFopV1z2GBwe81REGvYQKSAsXFDroYuwGur/uxhto5qwyev655+jN3XuTINho4T129Ag1N5+X2JFM1vxGPAx47FaZtM72DjpeXUU//Lsf0ZC06osdCqExrcSP1WeaTGNMsBoA2WjZ2c7AF/eFahGqUUd9fT2Vziil+QsWStwU5edJ7HA8S3Cc8YHTSKFdNjc1VcDiC8anLMBjoMUuIBPfQ5CSoXU0g+Yw6gdb9bquUVZBYwZ/wB+pEzwVy5JZiJmFZ6L4QxNzgKUHCc1F/DkS5tBu8iwDMaD7iD9eWSMBGsxAQr2OV6/0Uh2o6mK8RyMgQLgKXOUqJtRcP/jtABlkJ8eqF2wdq/0rlgyPHgoh1SlCvIb42efk5QoAZkBHr732GtVUH6dVV65H6bMoEKwVfvdR6vhubgc/gDwa1qEKCFIjAFbzA3qGQIUyC5ergOCOjkh9bAhTpQBqceCWuMIVoUzxEudCekOUeNZhi8U6IX0nqik82RJ9E51XAWB008rPy7skATArpeET1dVy/wVFheMUjXNnz9GRI4fp8cefgGuW0vPy4p7LaAlO9MxcKfHp3gnF1W6j+tOnqLW+IUru1p44QbNmzaKKxYsEKLfEMYTZ/AFbUu6ODYBbVZM7jZUIrG9jTWzQLTw4UDZ4/qvQ0AleWi2pbXzCY8CQaD7B+BCf7wnRe2D04a2PrwG+u2TJEpo/fz595rOdSRAcIQyX89pXX9+y9aEHHpS2f7kFBQJu0LkNLf/gRkW5NGR2L1iwgOZdoTVrGrnQEmk01iwDezeFBQBD421p7SC0cEaFCrT5m79iuZYsx8QJggSBrli9mgpnz5T/Qa1DY0yw0KMBoBndqh80SzCUHMwhAK5TF6CxrHwZJGBoAAAgAElEQVRKkKKcCogXwgP/29/fF8cyG6KQxN2ZLIgmMDyWrTqtAFgNlBa5hbcy3UL8JmmtlpEp7jUCYcTHWviZpKHt5CSqP1yqccCwYmN+B/r7hXFaTEAe8fzKfZmbmy3xwDbyCxCWEAXdOmwesHqj5Npkhz+UooOoFAEhvXoCLTrIWVKtMl+u1FT5/sDOLfTMi1toz969kpmezQLe5LkJSBkvV2rM+PIPGv1CMHpYaVMAOBbYAf2CxuCxAx2jAQ7WgEMvkzfGdPXmNdbECTbqGqHQxamKEktBu1jDeE6t9F6I6dpN2bm5Sy7VeW1vb6MHHnpISo6hxX3ECOR0SrvepuazIudgmFq2fr2EI8STueaYYMm/CfpjKCt6kiCaT6SkCE1CdoI3oIVvbe1JOnrkiIBfNPAoWTBf4n+bqmvo4MG3hM+sWr1KZLHQ/HiemQhXfaDkLppbwOuKZ2yWu8Y1C28kgDDoFrHCehJnJG4/kLgaSvQDDkTitBewHCjla/cqazHooqe7W86flZVNc+fOTYJgNdAy+ef/+jOpUYjyLAC/6CCjSmChRAvKtQgoZoJBiMKQd3SKDNA+KasgiGvgfCs11NUJAF60eg1dfvc6mjV7BuWwoGw6dZqKn9xHhw4coOpjx8YEgFYmJhCPGCUm+ANGjHCfMjCqUvG/ToMAjSekFBAG8SJWCQDYnNAWT4AZ46+d48BtaELQOxWBG0rAGAKaFRiNNWCucDBTQOAkwjvadSAcVgwETAfWq1S917sZXOAeL/UQCElSBKj3eEnFbCsgbA+OslLy9gCHsTrGZIbdEiZEvKHyw0Bfv2SOZ2ZlUnZWVsT7UMAKdltbO/3i57+iZ597Xv5v5cZrpLW5KdM80YVXklYL9n1Pv8MjI1UQjlr8/lj4UjyAqQk7f6R9Nj6HYFTx2JMZqA4xlda0k7EIG8OLJuoyZ32bSo/xueA5ZWVl1UxDGbqLNtCh1eF0bYBRB5tR7hpLkwIEm+sEGzvGmYckLPsTG10twgJTIrIThidUgAIAFjPiTTfQwk2XU9ncOazMdtO5s5fTsaf3Uu2B/XKPhYVFlF9WRvbxc2gzy4APGgjW82eqADhV2KFVa+Y1bp0qOgDPhsfOCGqjE1ijQ5jiyT94cPQmN1fx2xLSGnqEVWgawgC7+b6QQwB+kgTBhnHLbbdt37V774Ynn9gshbORTagGiBLgGIs/Iz1TA8DxOsaZwK4l0i0sfnUIFQ5hzciUsisIeQADAAC+7a8/IuA3Yo1joiz79hwq3DyTXn7iaQHCuF/b+g9hIfmSGqk2EP6A2KLBgYEIIcazIJkJErGZcLsCPENjVADRnOGvLKpScSGG0FQWJiPxG5NozN2oLgD0RuJPDcPJjGMlaX5fp87xwWE6jUAYWjEqZGgaues9UQs4loUa8b6ILUNNYIuEPGjPOGxNZ02AAVFIA8aSAAcLviTChTWmK8w1fMH3gRqWeH7Dg0OyHgqLCiknJzdC54gtdDIQ7h4apgN1J4XGUQ8VWenoFhmPRgPjFag7eff8+5l+kaCKRFTMqdGSNJElVBOopNWZ9YxV5VCVEiLCNIxYbUvcNtqTpUVL3Dbc8RtqmEH72wG5sUKYgnrCK55TTk7OJZ8IN3fu3B/fdcftW19+8UWhhdKZpXroikMaV0DuwgAF76x5RADw0CA5TKEriWKCMfdGj4s7LY3SHU5qazkfCX+449MfpyvuvSpyDOTvjLJlYojy/V03nWpslPvKLyiktPSscQggJiwg8P2U973cBd2iHCFCD6D0G+N/4yl4inbhkQStQB4pWvUZwG+k4kmEDgIT0ekyloloxewPGOR1ZA3xdZIg+P9n7z2j5MqOM8FIn5WZ5atQQBW8RwENtPfNRtOJnqJIUdLOkNKeEWdG1JzZHR1pVtKfmf2xOzur3aPVaHTOrESODEltqymapkTRNtnewDS6G94XXAHlTXq/8cV7N+vmq/fSFCqrsgq4wDtpKvNl5rs3Ir6IG/FFmUBu+Y+/8JEP//ytN98QYwpBQdQXt7G40e0JApIt5KpGpVQRi9sm/8vvKVIqx4oqGCrlpZb+xp81OTYmCmH9+g108H/8kAggPNHYzCxNTrNC6GgVILzxA3to+6UhOvXGWyKQiFyw0shqyrmSls2v5rlE9bxsj/M8SqtZFq68A1evVTANgXRL/hI8UxiUgGzPZR2MnaGM9cI4nR2iWqOJBaQ7lIFfu/v69+IBXtBW8yjy8ydMIJxihSDID1EXtztWlmeprstKKYTD1i8K4KzXDNdlHnQCLVqhaHetyoZKh6g1OqdadOJ6RqR9b3up2QIcjGQiQacvHqfvnT9E++8ZpOGzZ0XWZ6anRDl7yo25/BCVxuQpjyyuX83ya6Q/jEjOOhwLa/5+NZCotlhxzXHtIceYl7J5dnlqBsCFBjmGtxMNtqNbxG/F++C4rwT2EJfL9eLJkyfpySefJDTJwFAtk30ZtruBGEX5XyY7v8eEHgmetgQgEMRQ6RASEdauMeY8EPCXAk9wTP0+rwBgyOL9Bw+WADB2XZXNjbRPiC1+8F98nKJ//Kzs0o7zEWrx20aC7fVDMb/a5RZMLNhJbW1tmxd0Umtat4fWtQ6ZNdImCmVyq5xYO6dGzun2zOP3Zt3fzu8Bb3NWvRevV3IvAPsu9NVWrtf74r0H9tP2XbvkcTwRr/yGkH0BVD6TKpFjS4QQ23g0lw6RybvIbW6bp7KFspZ/yGGDwGNbaMf997LgtZUAcNli4+cwQOUC71nOZSTwZzTFfUeyQ5T4fyXXNTLP0dANjQiMJbqknocw9pgReKQMGC0b/SWhzhsd+mouXJnr2DbXvc0KgLFe9KMS+FVFPkq41X2HYzsfH+HjM3wc4GMtvyWoKxUoG9XKV12Xbdu2rZh5HxgYoFaTLst67RI5T+k6ubXCGLsW1YrzGekwVrq4akMUNqKW7DSBugvzC4OAtQR2ArAa/Oznh+nqlRvU9eCApEEg3x9rNenxlrjCTSc2p85ZcrDnCuQ2rFb5RS7+8PAN2YmpFv21k9s5MOgRMAjnqGDKiip2sxrTjCqYMw21XQ62cjKV7NnJ7UKjugvvJJkv+80K1HV2dqwYJoje3t6XHn/icXEYEcwBA5KvhsYwpUhwxMjNRWEVamvEFrLzJDU9ZOYGs7nLm/nByNtHzYd6bZrlczIeN7/LGrGpsK/KxmIACMMG4zlEgzfsHTS+A78vkczYRoLhvHrmF0muWrsL2tHr166KvkPxmdo9tQ88zWdKUrYUcx+RGhV3yWlRhdzKnkH+VP1F6Rw2wSR+LWiBXDoAVsxIOZPd6W4k2DKQo/TgfQeeRr6tMj6eOjo1rW1rY4/yOh0+fJS6OtuNvLSCmye1taRsRW75Me5fPH+Bhi6ek0WTyhXo1pVrFA6FBdiCfQKCByCsBjxSfXS0tkt3OYkE8/fNaYlsd2IkGII4JlQo5Yn49jmEbkdDCuAMXk2A3+PvHZeI8s5dO2nL1q0iOLNmT3tV6WodaJaBDl+1UC9VizRVKgrQt3jtHlsGgDB+NDQ+CN2RK3UFNoN/QxHXCC1l57x4/4qb/1Z0c5ycpUImIddNaMrIpiRbmlnkyiJqKjqBuUBqBdhArBX7drsGiBTjvQAh0aix85DzzDnB2G4FAJ6YmKSXjx6jU8JaZwKAUERSmYqtEYpnc+VFl/zAk83OOV7lSn5VRoJv3rwphTQYqsNTrRFS/XkAX8hvNBqVoquJsXFaN9BPfX1rBVzrjoU4fGU8uwWLIS2XP2v0uFbwWylXuBJbRCV9NVcIl5XzdHS0Ny0ThNPo6en+7SefePzE13l+EI1F8Aky47PoH6e2yb0tLRR3u+gS29HDh4+IvEzOxMVut4B5ACkieZfsvBoBpFF67dZNtsEt8tqrV4dpavgm9fT2UCei0NuNdacCT1abK44GyywAMwBbMZ+pKRJsyvaqs7sq/xd2FzvfHVqRtR3Y1W2m9e/Qk9i1RUOqUydPyc4Z6MyQUqanSEhKi2xizl1qFQlWTW5MecsUzDvWSLK6fxcEW0ZfX99/fN/7nv75t7/zXRq+PixCEQzV1hADoLXAQBbRnldffcW4wIEQ7du9m1q3baECIr5Jk0ifBZDiSbp4+QKdPXtGKsbReOP68DVq7egwItE2bSLV1owa01GjcACRJ4MdIu/IDrHaPdKhoSEBwArE1sJ2YC2mEQclEmYQ2CrMCcePH6f3+JiemhQhWrt2Lf+9lQ1pwowY+krRBX0EaijAqSXVwWvmtuZKucOFeQDY4vnaAmCtqGArH59S88/Xp8jX4Bp0WTaTKWbMKIwUlrlX3kYR5KAtHKDR2Aw5YXijlbJzXqa+M6NT6dkBMawZFGxJrrFG7+TLMNBioB3xRCQyh+jWq+dP0uuj78prEE2CkR1LGGlW4ULRSHuw2k3NAYeSR5rFahwl/l/TkCr5tRrKyq2GC2UAWDp8suweYmCUy2XZ7/FLbqk4KWasQMlVxvIZcDgQNXZp7AKK79sOCNcKgJ3AsF2esFFIVKjhd+dNp0HqWFYcFzBfh5M3btw49f5nDg5+/et/S7ForJQSUcvwdrQJBc7Vq1fo+9//PuuAIHV29dI9+/axrg5SLJaS+Q22BCjodTPQnqK3j73NnxOlCOv5WZapKZZjFLrJuMDgl+UTwSc9BVENPDdjBkEA1ufpF5/XY6eDzbldVXZX5f8icIL1bKUtrOSoqt1U9TwAMArVEIh599g7dJTnSNrKs04HCEaqaErTf3pwSI+4W6gN8YFQ4ClrYV1Fj+VOHkiJQGRn//79kvyOAjVEJMwmCsbkVag6Ba1L2QwUMmwkUwYAtnu9VjDlyuSk4M7FANnHHlBybIImj9ygyAfaStFgPSqMLdWx8QnypzNSsGeeJ6eBrDsmEgwAjGpPb6kStTYjpeclqS1rGGCAaXiiZy9cFgPq53OC6/D0mQu0Z/d2RyaFecYvkysJeq2g1ynPt46IryMQNgdaLf+SKf9+/v4uBmnXEqlMor0tUty0aZNcB2zn6+kAKyE3GMWs4AtGFyIwRYCbF7RHAI+YpywUZMR5HejgVwEVBXrns3sUyhwacYS0lL8C+7DB7qAob+QBv339WAkAi0PLsg0WGFHi/Bo4IF6bnGCHcX21GVKdv7tSzqATAIYBBqiBQUQ61IkTp+kK2rOa3QKvDw9TazhIA+sHpFuV7uzYRYIrsUPoVeuVHFunojmn7nL1DuW4Qx8NDAys2GYYPb29n//Yxz5+4pvf/JYwNClnL2qCTchGqIpTnipit6Qo+loKBLUUFzu9KLzdSG3heQb1GoJdKba7o1dYtK60iZzC3uo2V9bRixeEbhE7OJDb/Py2yR4Ftqxb9G63a9XYXT1vX7E/1BJ40tetyJ4mt0iDOnn8BF0GK4/UbOTpxq0xinT20Jqutrm0CLPtvd0c67LIf8vx4dJtph48upsO4TCQo/T+Z555+mcv/KxE0aIIs0GTBmVtS5HGRhd/7+xfR+zVGuA5nhbQnEqWR3ASs0YEaOuWzbR7106DMJrnJfZ8VIRQ5URdPX1ObpE/qIRReadjb14WoAy2ioSZ08QKXEfbngq5VatCGBFBGhkZOQEArDrRVAOmdkAGgoj8QQgywO47x47RufPnGJT4qKu7T4ze7PQ4nT17lsJtEdq8vl/bIq+tWMfOkNo9Vwuw1fOAawH6NlE1AOFP8vOtbGAisVj8cLAleIkBcIzXf9Fl5qbq3c8AiJcaCKvPtN5a/64PRPLDDOBhqLLaNUgjyu33O14bNRAxdNpJsIIxI42ipQSSo1EjJ5j8Ef4e7Eh4i/TWm2/Sty+8XIooKfm9cGlIrisiUKFAoKqMWgzqtdUgvzqRvjKkVue0VgCs5PcKr4k3Dx2WtDTI79q1AzL307OzdIl1KxqVIP9UyVqtOx52r3MCwwsddp3k9Pv6tQCQQFQZ28c9PT37VvI6AI3byK1bpx566KFBFMilxgw60pRpYxUYthsqKrvn4G566olHxJFMJDKUTKWIxazk4MAGp8yIOQrxhIWCjwvnL9DPXnuNRhEyZCAcnZ4mF9tW3WEt2V12XC9cvkwd/BnZjk4JWEXnl1at+uAT5BaBIqQWoe6mGuuS08CuDXZd4ZCeO3eW3mMADLkNBoIluY3OTNKt61eoo3W30fDGdE51IFuBfz9ojb5b7ehdEGwzGLwePH36zMnLly4N3mBPp6+3m6anpunw0aPikSJdwUqRBi91jNf3WDJJG9aup0ceeaRUncvnKg5duWqACTMvKZNKSDe6nTt3kt4z+0//638rvph/Q3qjwzje4AUBY9kfS1L/urU03VeU7Ro854rGqKurh5V6J12bniwFl+8UYUQHKRVBUvyh9QJgGBUowhZWfkhvOHHiIr3z7rs0fH1IUlRCkXYKt/gplTGiBonYDMVNB6YMONXZDTO3xDRkDtdkK6/nQiye7GAl1rNhw8aXBgYG3igpfemwNl7KNxTkde3akjbMUADXelspOo3vp7rHlcjYQy1SDONUZKUD3oDPXVYQaMcOoYMSAGY4m4heISdYdEh7O/V3tUqq09f+5u/o5PXrUnBTaHXR9MgoXbh104yAraF0MiWFsr7svDnKruZIMLow3rxxQ2QBAYN60x/mnBCP7FwgZ/DSpUv01uFjNDJ8VaJLbe1dEv2VIphCRowqOvgBBOuGUKVDeNyeumV4IUBYp0ms5iw76S44DtiO7+rqOmVt8b4SR9/atXufe/bvihFeC4jS9q3ppqvXb0o3Rehoa06wYoeAsxvm272Du2F3XQqkvf32e5RifU2swwGEAYpRHNe5dh3df+89JZuLrnUvHz5Ms/kc9bcZqYjYoSm+wDZ+06zU3SDtEE06hkdHBAAPDKynUb4POlM0RrqTQLDK24ezrwBwbcXhczpUpU2ALhJ5++8dP0lvHz0iaYeh9m6xu8Gg0eExjVqVaEL0K3St26SzrMbjbTq5BdI48e+mQ9Qx9uzZvRdRRp7cEwCz2LJjYzj4xptH6KXDr0u0Fl6gap2sk3aj9WI2mysL99tr8MC8ScHCgFATe0ihoL9kJKWHOR8oABAj6/GSzwTA6rNRGMeLbB5FGoTUM7/t6ooWRnSiQSWqXG+NQL8eQ6K2bxA5QH7Y6TPn6L13jklrXaQ/hEPGvnk8ycYzGZftGX9LRIot7KK0iidYp2qpNWpUaduulucXCozj0RiK5bzrt20L7Ny54/8oj6hGpO1sPh8ttbBsNg5hpwgxy688pwMrtNONxaJCdYefYdf8JJ8vByd6swynaINVhhEBBkfrOIPuH/zsVXr3veNCsXjBlFvsDMHJbV+7Vgy50C8mU46/UbVN1gEaz81vrmT5RRMarC0jGhRZUCqAweftkwOG9ARf5xOnTokhhfwimgSZi8ZTlEnGSroZuwFOtIR5+4p+SXUp1hE1XigQtq5HJzCRNSPnXV3dcCD20ioZn//VXxFbawaj9sJROvb2MfrBiz+n42fOSJ0MOLV5cstsbtxqR9EYCo5pslCiSFPsEHByGUDtZb1f5jjA7sbbWqm7s0t2ZhIMum5euEw35fyG3e32BamtZ42kWCHgFeLnvZnyXd6cb87YWm3BSqZIs+btWxtg1Oq8KQCMqC7ANNIfTpw6SbHZqNBKtgaN7o7sswjTloRz/YasK5aXalbQyOUXeDtXuONgP++C4ArD9K5dSiBNo1g8eQFh+1MUYs9RCSRSIWRbho0sooX61qWe/yKgGJXksiLSUolfJoixWeMcfD+dM86Bts0+X0TyjRX8wnNubPnypEIxxG7elOh0RiNU5AXjcyqMa+YuQhW9O1Ze7ImegAEFoFSFCdZqbycPVO/UpMDsMF+7yxcv0fTMDG1hIIW+4qC9uTUyQpPxKHnZiUBeIbgkt24coL6+HgFSal5VtzLdkNoZPL2wpp6UByd+xHojSNbiG0TE4F1v3baV8eOmj9i9B0VdeF80alTU18MYsRTpE3YRYvW5dp+NCPEUg6RKtD12AMnKDqEDYkQk1LqCYvf6woQGLd/+wY/oxZdeoQwb1I29veI0e5NZcnW0zMk7zysiUOypGrJvwb9Zkx3CStkVi8X+TwbC/36lyW86k9l7/dq1E8jZBv9vvduoevoSCmbQGQyG9BLL79T0NO3Yto2fH5R1PTI+RbMzk5RhAIsoMJzagbW9QqOHtYxD7yJnB3DzeZeZ5+uqKSpciTnCLj/YiTGi0u9HDibO1dXdtaKo0GodOqjvW7sWoLh4bXiYjr15SIDnunV9pMrRpHic7SXmcnpyjtJMUaTpcwqKUgDh2XQWdvf3+KnfkHOwE4pIbwbvX2cUx2FnxuV1UzDpFVvr9RrnCbC9TwMQJ5Il4Iw84jpGdiXOCRpPDQ1dGbS2La91zRoBJ3ep0A327OKlS3T50mVhA9k3uFd2Y1F7dXN0gmZNUgDU1HS0tYOwoJTHXxa0yFa9nFW91rsgeAHRByx6gE6WRop5vKwe87ItAoFAZWvOoFk6ZVV0JcumIksFu2KbnAHoWCDHWCBx3pJ3w0YUj31urwDinLlQAL6lcM9Iz5i/NzM/CgxjtJOB8LmVJohXrlyR9Ae/NDHxVwW9OoBRDgkEGNuniOwAAMOzRZHDgfvuBUWeEKnPzEQlR+n0qdN0/uJFI7q4azft3L1bos7YWlfzijUBofZ5q4tTPeDX6fFCQa9OWwMAjDy7DZs20qbNm7GdetbBWcJ1dzGoKOrOnCqYs8vXtYJQp7/Xe+sU/a0XbOfLOF29fF2KNW/nOUWElWKGU4YmLT//+Yv07HefF8MKCkPIrhFRZMAbN1yhGMsyAHCCXw9aRLuhcvoRTbJEKMMr0ZAyAB5UDWxURMhpTTuloOjyO3TlCo2OjEoE6f4HH6A1bCw9DHzgtF24cJ7eefsdGrp2ldoY+G7avFXolqR1quoiZ3JGq7xRdY1z+epyWk9U2F0l0m0Fw9ZosHK8AIDx/fvXrFlxVGgLHSwDz/g8np9D72emp2gmbOy+Kts4MT4hwCrnAIisFKd+IxirK4xTbDsHoQ9RYzOhsUHlILfsuHqzeZFd2U9QjbNYtoVppFi+DrzZnH8xd+yWeyjefQWA6+kqqutMvA/zBNpRpNWhq+ZGtj9bt25FYaTILQJRaFt96vR5unXrBnW2d9D2LRupf6BfALAqcNZlQ7/W3lKwolTTgjtZu12/uyB4gcPv8720vn/D0/BMQi0tFOnupkChSGn2ENcabqxEI4LBYNVIq8c9v+jjwYcepJMnTjDwumREmbV2yca+QEg+Dx5tDiAwlaYiA/FHHnmMPnDwaRoY6NdDooIS7dIhVhoAxrYYBBHGAhEkIxewOl+oVRghiKA4w7Y4wBNyvXcxsO3vX2cCrCty7k2bN9EDDzyAghOZZxRLbd++WYqusK2eMwPubsUtqzgHPe7SFpj6HvMaYiww1aHWphzVnlMAuLdvjfAeV9tOjUQiRVaE7snJiYICDzrodMrbtYLh272tdj7r97GLRntM9gFEWK3KUD22OlfVKp7xN6TUYF3xNaIzp8/Q66+9LnmKG7bukJQlQw7zlA6W0y2GYjGK9q6h3bt30n3334uuN8N6gLHCtLSsJPk1GmDcFBBnV8BqVwBnB4CV/CL/94K0lo+K/G7YsF7YQPAczg3D+uCDD8prO06clvdu3NgvfxPu9iopB9aBnP98jekQdmlPtbRZtltzup5TTVygkxAhvVNsLjvoL77yyis0iBSnq9fIC47eUITy/hZK8jroZvneu2kzDe7ba5HLrO1jcw43z+mLLSeffvqZwVF0amWntCccMXZ3SzbXtJnauRCBhnN7YMsWevD+++v5OZmVct2xazM+NnbiFvJ/C3kzban+dCBVN4H838mJSbp46bLUQ+29Zx/wigSUrrDdhWyvX7+eHn/8cembcOZ0qwSW0HoetlEB4HqXDxkMSPMCFndB8AIHK5+Dhw8fLvaxIkKeCjqbACBl0gkxrOgj/uijD77EwOLzcxEDa9tkj6MkPPTQQ2Ikzp87LwsgGDL4CRUhNz5LJ+fGwkjx5/avXUv7D+w/xZ/7h5qy9VRY4JsZCA+thGuu5w/qFeS1R/7mDKgi0EceEqLAu1mx7tixnaanZ+jvn/smfff55+W1v/jpT9PnPv/LYkz9Eg2Ni+DgFgC4tP1pM78qHQKfq6L+BQvrgxXw2m/F5hcMhp0GADB2LLp7umnP4GDN0aTOzo4COyLumdloodbI7GJHgms9nx34LcmeySKQzdpLoOK6dFLmTnnBqkgDa6W3t5c+9MEPSHFcBx/5orskszqdEiIfWaH7yfs3b92y88CBA5/jp/9jjSA4slJ0JvL3x0bH5jFAVHNc7QxpKBSmmZlpaWAzMTFBjzz6qMjv6MgI/dVf/TW98MKLfN3b6GMf/QX6xCc/wc7FLmEDgP6AzCkAPA+ZOPKaFuv+vQthi6jUQEPlAEOHoBnMmr6+Fc0EsZDBskFf+OIXBAQHfT6xi5ApZf92bt9Gu8xOr2XX1WYXtOgS2LNJ022fZxtzcm1v1yDouMDg4g+E5PyQV4+mm5X9RXocnt+6ew8d2LvHOnde53leGb4Ldm1uDg8P6qxLTg0wnBw4pSvB/oCdGwSxwLqEiP1TT79PAO/58xfoG3/393Tkjdeou6uTPvGJT9AnP/0pmW8AYeyqZcxiVrfHY2sDdXaI8vxrue8jLSfY+n6pCboLa+sfDFRdvEjQZOAZeKnJZPIgX9Sfq8fzI3xORRjzFT+DWJES7Zxf4slHJTgokVRFOLpFbWCluJ5f8+/wRDgc/rzL5TppiT74nCjSVgIAVp1okD8oUTOtE009AFgZUAgjAPBbb7xJ5y9coB3bt9OePYPCCfyX//0vGQB/j8Gw8Vlf+8Y3KJVO0ed++XPirU5OTUvuYSoZl25jKk83J86G2dkkYPMAACAASURBVG6XAQ2E0Jq/WdBaHDtFkhayfVbvtVAAGFvH9QDg0tpsb3clUykPf2beCjKxvaW+y3JFgu2i09Zh/c52SlFnv2Aowv+qU+DlzfbocLIee+JxevKpp3i9hsRQ6sAXa6GlpcUuOnTCPMqwtcdmi9fkHA+vBPkFfaHK36/XgdW7SyF/HzmDkNVDbx2iS5cv0/577hGQCwD8la/+d/rOt78jgYjJyXH6i698lW+n6Iu//gVJcYJ8Yf1IkWHLHI94oQhuZ5tiGbRO9npL26pVGtBUjQTfzsC6wvdGJK6np+fUSq3nuJ0Bu4h6kFQqdaIWu4u5QQ5wNl2er+tiW2wy+VzRn2eZ34vzJxKJE2wz/zXb3GGW1Zu45es9zJ/Vz/exU4Mtw/5sJvPffH7/M/y3F+v8KU3fLAM52ACfKm0pbNbd1J+G55YgIWwvdoFAFXljeJgeffQRAhc9mFz+65/+F/rJT18o1Ztcu2l0iwQQ3rJls6QvqgL4oKY3a9nJwRpA001PBU9WdvHuQtqFDUV/ZkQYRQBdDoagG5PtFHVwiixVOicPkBcrRfgVR6+zciR4LQvwrSYWxJPsOQ5i+xTpD7XSn9nlA6utGADgI4cO06uvvkrdvb2SQ4g2o1//m6/Rn//FX9DuXbvpd37nd8XT/2t+7itsSKEAfu1/+DVJyndLmkORbwulghpl7PR0iGrRrdtJe7Bu61jBtjnv80j7oWSQAgGPHPRfa9asqTskwWsyPz4x0T4zPR0DEFZ0aSoK6wQ4lzoSbBeptgPGtVC96QBYl1UVFdaBGq57KBKhtsVjEMipuQM7hKXgsqlBsN4AQ+Xv1wuAlVMCAIy8TrRSBQA+fOgQduTonv33iAx86zv/QM/93XN0gB8jWjg9E6c//dM/oWeffZYd3W1sUD8pANpJjqxFrXr71fIontv2sQ6G9YY39QBhPVACPaNUtw6A167tg91ZNUwQdUfYDTaHmuyu47qaazA0VO38Ft2HNCU9Ven/dfqMYjDgc57nYlNfY8XbrfJ/kf5XL+sShuT8s8xCbmEnXnvtNTp/7hxt2baLDtx7r+T3Pvvs3wkAfuiBB+ijH/uYBJm+/o2/pa/97bP8OiOdCbs4knJYcItNU7bNKaXIO5/HHVgpVXFd3YWzDR9dUGqFXNZ2a2YhOTZ1jErsEE0LgJGIrxPoWyvIa2nLqKhYQqbxg4CdOnWOjh8/xg5Amgb6+6WFKoDxqdOnBCA+88wz9KlPf1xej2K4P/l//oQuXkb1aoLCfB6rT6EiwUqIkL4CA5ov5Ct6pwsFvY7ndADDukFGBFhynbdsARhc8J5cR3t7Op/NdsTi8am8iVScQKYOWJcyElxLRLja0D9L8QRXGkix6OzsWGxRyCmDImu7fMs81KzyC0MKw4d1qOS3XiOqHAvILwze1WvDdPLdYyKroKfauHGjXHMUwJ1kmQbN3KNPvI8++KEPSbT4jddepm/+/bfoMstvIpE0DLLZglwzkHNG21os45kPeGulMazGAV7JiFtbKasIWZc0+Gi7Y/KAb3fYRegRGXYJLZ3bFgQv0WhadgjU3VTj/3Wyvbp+RMAKTifOc/HCBTr69nt0+eI52VnZtKFfdmRRjH729GkpCAYA/tVf+1W6fv06vf322yzjZ+iWGRHGTjZkVkivtFqNQu1RaQhU3lqAq8u++664NB4Ez7EI+Jb6sytFgjuaVRDROlERwStBrBQBtQqjqkQFyEUUGIbw5RdfYhD8niz+7p4eES6j37mb1qzbIFWraIZy6uRJOSCgaMGLrjUCbLXvoCrKdUWbIyO/U+cZnctTytsyPDh52JX+ZjWmVmWQM1MvrAAY50Jl/ObNm24rn5AVWSociazl69idyWTddnRkeM4KjNXjhd6qc93uefTzqe+pf18reL44dM0CzNxaFDgv90Ej1wAADKCUy2vpTCshEoz8fTTAEEd7ATyiakBuAXIxTp86Ra+9+hpduHpDOH47Orvk+Uw6xa9ppd2791CEjfaRQ2/QoUOIFB+mI28fo0hrRCLGOJcRsS83hPr3Uu1XdUfD0sJ6UTm6ywrl7HiJWf8hGgcZ7unuvmOYIBo9iu4SU87bjfoMbzZnG1zMk6dprwuoX+3qbuqxvRitrREpRs2y83b8+HF65eVXaWx0WBpgdHR0Sj5wmu0ugDDal4MeDTs777zzDr355hEhBEADMNSsGHKQFRvmKuTL5MbtwA5hkxPsrhZcuhsJbvyQ2dSjwJUK4xYVAbs9lXKCp5vRgEIQ3SbVlGeBeXVoxaiivKBbeffEGWl53NbaTh5/UIjz0YEGEaPBwUE6+L7H6c03nqT33n2HvvzlfyMCDOH86C/8An3wAwclt3NyYkKMkggX8gjNbTVlKP1uKlGkVYoE2ymSSoqlmsdbKeqEv2XTGUomEgKATSq0284njEQiJ8cnJp6cmZ4e4u8+wvOWRWqBEyBejLxgKzhdjKiyHt1wSo3YtnmDRIL11+od9BCpRPFbg+S3Uv5gU4FgRaSP/H23NLFYWPqDMqQwkijKefvIUTp/4SJFUxly+70s2z2UzyQJn4PCVlCifezjH6PjJ47TCy/8jN54803y82cjdeJTn/oEPfb4YzJnKKaz4xL3elz8fb2sk3MV268W5rbRbaONOqe3Ln+1pETMZ4/JC40UztnT339HMUEsmpNR3WGZbOTnV2ARyTWj3C6kAM4qt0gthD5EPjG69V26eE7qasKtncY5MykaZTsKu4uC84985CN09Oi7smPzws9+LtFeyOhnf+mXpFYHKRPT09Niw7D7M08/gjnF55JrnTF3vNUODpxav4F/Zw0T6xzRvhsJXoJI8NyCyZYmqAkiwcFmEkQAYGVA6xVEXRiVAUW737fefIuF8RhF43EBwKFIG0XCfG5/C43w39859g6xAqDBvXvpd/7d/0S/+OlPUSu/Bm2xcf+ffeGfo5GEgGkYVT1HUDeKqNiG9+vkcKjX67+nlmjv7QBgjFQyJcUNfWv7aPv27YgmLVo+IV/js6zw7uO72/k3tFkBq5VHuJ7o7FLcKmCOQwF463exe6yiv0qRIjLZqIrvzs6OnL9AZcpdG02TDmHm/57AWpuT34WZlva2VsnDRyHNG6+9Lh3gAIDRRaor3Cp0hR4GraPjY9IhThnUL33pS/TpT36SenvX0MbNW+g3v/Qv+PgSrWMQiddMjI+W0hB03eL2+GTrt6urjXVEa01OrN5go9pwklG3Y+fIvOxQIQIGKjQ+7jgmiAaD0IaD4JxGGF9tLTWD3CJvH/m/VtrCmkEGyzrSdeD4nj9/nl5/9TU6d+60rH0AYMhsQLqN5qSI9fzZc7LGH37kEfrtL/8r+tCHPii7adt37KLf+te/RZ/75c+KHcdrYXet8qJkCk1vOhl423Vw1X7HrDENBje+CnigMA+AHc/djQQvIQhe6sEzL/Nr1yyDF2WqWQSRPcfBaJkB9SyogxS2T30+L125ckUiSNg+9buL0nEmYOZVZrMFSidjFOPj5s1b8loQdT/88MO0ZcsWeYwB+pau7m6aYU8URhTUSnZRBkR68N1B8j3LYFkn25/jCS6UQLACT1UjGTa/v5ZcQ6UwAIDj/J3bGKBv37FjQYVwlQZfzzGeu+3pdLo3k8leZrA4xL8LZbx5VSxXb/R2MSO91ltcc8UGwbcungsf/y1jfG1PXo8QKKYLaxQ6b+F+xs4AQNuSebTusi3ApogEI//31q0R6bqliPTrMaR28gtDeuTo23Tt6hXJGUSxYUDrVBhnWcpkc0KRBnmF04simo287q7fuCH5v5s2G5zeoGbDc9MzUZFVXbdIk5t8luV3iqZjGZFfdZ0BXqyFcQsZjm3SbXiDxVCn00YEuKcXXbIWZefmbiR4brjmQOlEoz7by2tTfb61bXKzRIJHR0fn1d0shHUJu65gxMHvPXHiBB1luzvGDqoht+1ma3M368osJdj25tJJQvc/8PHv2rWDPvWLn5YmVYgeR9DQhsGp4QQPlxpqONlAFMAmGUzj0HWjpWkVIo8FXc4Q9faaDa7AOHEXBDcaiObzf1LIL1tOcC6bzTbtHCsDqhggVAepej1RJYgGgLkuOYEobPMGQtTW3lWWC5g2t0TXdXaz0Vwvf0OSPt4PY7r/wIGSQUIu7cTEpGxNWilZEGkAYwSE8u3DR+jMubMU6e2jPXv3zosA1NLxbSGg1+n9CgCjOGH34B4aGBhoSKiSAfYf8xz+GTsKXfybevkpUAjdYmCJ5LIoQKROnVZh4PsVtfsAoEU+j/69i+bf9KNoOYBQXfxeULgFaG6ny21ydwKhATyie8U6fg0M0kze2KIZ48dRvh81FaceBXYrRYotQzRLmZycpUwmAeeioTKScdOcU9VkhXEwpCikwRamqiSX75zJ1KgbC/PkF0w6AMC49pBfZUgxILvYUg2z7HWtHaCernbZ6YDMS+EYn+NAT48wACClCbSGSJnAlqouex4TDCNCFWU5effYO3SCP7eno5t27N1j8ILH44ujgGtIiVCyqwBwGzvtaN5zJzNBLFYkuEJaRCPTIZoaV6kCuJxWAFcfpjEAMOwlDuxawHFFAdyt0VGRK8ht0OehVDZfklvs5oRYPtsjiPLeKtXtoPEYgk5KbtGcA87t1OSUUEzqqRCQJQDXyakZeu+dY1LwvmX7Llq/fauA4Ww2VybrLFvgyHNhx66H9cO1K1fpO9/+Ns2w3vj4Rz9GDz780F0Q3PDojcfzDHtaP18GAAyj6a20Rb/MBvQf9AIauwI4y3UsLWxVlCTRo7ZWMX5gcEAe0tmzZymdjFNP79pS9EiEEO/LGC1HwQyxbfs2EUBs4cQZ7CLnV7VIzuWy0iL54UcfEcOOiJ+e/6vuIw0CXuVbRw7TK6+8So8fPEhPPvIYJRlTTc9GqZJuuZ1UB7263HoedCUDAEah3+Dewdtigqhl9HR3/zYrom/OzEbRMPE6zxPKes/x577NQKaHrzsQkTpgkTwmgHWbkdigBjTd5t89/Dyunl8DuAoge8xDgeKCAqjm+/G+83xsw2Xk7zOtvR+3ALl4Dm2i0+Y5ItrhN58HEPbx9+82ozc3eL1lYVxjiRRNT42T1x8wIwqNpz2yYStILKf8ogEGDBDWIXYbFsLfjTFPfk+foHQ6YxSkamkL0uo4aUSFYDQ3bNnOxpCvP099NAogfFVyt28y6A0GgsIegUY4GOAFhnFVqRA4AHQhv9jBOXzkiOQSP/boo7T3vgPz2p9nC66aG93YtVXWgbDTfQBgbBEjvxy85DoF591R/wDoaZGCyHIyhuKcIzm5HN/L7Xbllltu4Rhi/bfVWXdjt2szPDJOJ44dpUtXb4icQm5LwRgTAGPnNdASoY39fbRuoL/kKCNAcoZt7tWrV2mM7W+Y5RRyu2nL5pJ9t6YNYV47O7ukVfqrr79JV4cu0y92r6HBYEgK0wGCs3M7OFmWsQzLWAE4qL9/QJpkPfvsc3T9+jW678C9wiF+FwQ3eIDLkBeeCKRdLjAWYbFYbHG5XMkGfHyMmrSz1NjY2AMwQNj2q8UTtWt7iJweFMYgXeHvv/U8fZc9vLV9PfTQo0/wbR+lElEan46KF4p8JAWAD9x7QCJ4MDoocsLn47v88Ec/ov/vb59lg5SkL3/5twQEI5oqQEczjADAamu1DKj4/TVHa2sFwE7cv3bgFwORMYyNmzeBD3hJDCmDmO+xF/5lBrWP6c/z43G7qbS8piFpOXzeU3W8fLKCUZzSH5w7d57i0WleIznqQjMMOJnuxpdW2ESC48slu6AwvHTpogA+OJJ+yffLiywZOs1d1ZDqkSTk73/3+e/Tj3/8I+rt7qT7HnhY5Dcem6Gp2TkHFrnA69atpY2bNlIwGJAIlNfvlRSqibFxev6736N/+qfvS17wJz/3WVq/Yb0YuZIB5bma4/P2yGNdhl18HgDgbFkaRE6aK9hRpFWKQqoUKB0IOzm4UsDKvwX6bN3AwF0qtEUY2KULt0ZKNtdqe9kuNywdgtd2U+IqpB4iYiu7mAtIOywFnhgAo1j83Jkz9Oxz36T33jtBG9evo3sP3EcdXT1sSycpFk/J6+PZNIPbCG3asIEB8lp+v9vIwzXtJ5pWoTDu8FuHqH99v+T1923YWKI2taYNqTbiBke/S2QYBbMiR/PTl9BcLMrvK+D1Si/5A37ZbfH4vM0ftl8tI2XmrYjwmWAYvMFadBitUBoBgssAsBdb9O7mqIVkIVyHBY2cpLzfV5NHqgtiV1e3VKMidwjA9VsMgFW3t/NnT9IsC2LAH5D8QYwwG1AVHers7JToL/IYDYUYFKUAA7TX7D/fwecHuI7H4zQ6OWv5Imkx/DBeSKXIsfcJ+pdgwB4EwxjabRHrxlCPDtkBXScArcAvtoywfQQDvn3HdhT7LVlBTSDgn+7p6XkU95PJ5L9lpZNW0dQCvI/yPDifGcl1m/oHaQvQeEiu7SEjVSFvvg6v2U5Gt0SkW4D4vM+M5Aa16K7b/Fun+bfNfNwk2QzxFDxud47m+Dm9+UIBn5s3n8+Z0Rn8PVcoFHGb5eeyfD/Dr8VveION5rdAlzY5dosVfJL8XsYpnkDNjs3tDNUso2QMjN2dZYsEd3Z2uE6fPlOMxaKU0NIGqhXD6fKLaC5y/86cOUt/89d/RS++9ErpXJcvnC3JL5k60s+GdD0D2oGBPtEVeK0hK9hFyouzunnzRnrggQelsHXj2j7WuTkB2DC6uIZFl0+7pgWJ8I6NGLRQkF9QqtnE4KXNbqGQKpPnSoVXlaLGeoQYf0uxvMI+QJ8AsN+lQlskm5tOl/JJFQd0LGWIDOYTTawaCYSd10Zx2SLBWHfIlweTghH8qQbmPWU7r9gVRdDJx7bmtdcO0de+9pf01puHTC5fFwPLi9SNIIy2693b1kEDa3upQygkcxSLZUo7mXgVnOjt27YahaDsvILSMJVMS3eLDHZgLf0V/NjR4d+hUpzAIhX2BWT31WYUTTtg2GCTQULxrns9TQaC0YYYXgqqAf3+UAndz1tEmbk15PSaBS9Q89zqvDA2aFF6g4EOtrfzPCFtlkpwu61p9RiTFWVD8fWvf50Kbj89eGAfdXe1sfnKWFuYNIqpYdwEFk03YARV5BJHtaIaCCK4MwFWYSxwe+rUKfrqX3yFXn7lVdkmQXUphOb119+U9zzyyEP06COPsgB2SuSoe806CoeCAmxheOA5IqqLHE/c7hscpE72cgGc24Iheufd98jjclEqkzcjSYbxQnFdKOiT3CcU58xG44YiwLlMYcRayed9lOf1k/fP7yZVS/TXCfDOU1ZejzT7QD97pHns2bNnqVur3oTROXbsWPHMmTPyG1kGJk1gGjMdPFWgAOHwm44fgG9HwWSXcDs7Qg9UVu56wVhePbcbShz55sj7VNvhdtfX/nO9hG6bZsOCt15763BhemL0+VQqJ6gm7fOXPEw3LUsXqPhyyu+ePbtd586dLyIVIcfyq+cWVoouQcbB2ABjDE7fr371q2JIYczA6oABjt9goIX27d0tOfqQM4DcDpOLWYFakUW+xbpHZOre+x+g/oH1Ap7BBHPlyqWSvCr5VfeV/F4dHqEpNqhKfstWgPnYVcxVBLXV2qFb/6afA3oI6xH6cN26dUsOgFGXce7sWYDCMrvrMvVYscFpfMrmQtbwWbC5AZbn4Ylxio7cku+Va2GgU8jNazKSNpsnBLIasOI5S7Mugl0YnZ2hbRu20D379klUWHJG0wk1nyhYbxQIbkpCYOSYY75RLJpIsBOZ9ZWoSNXuqnXHVe3coHMb7G6xWKAf/fgF+upXvkrnz50VVod2diAz6Yw4sl1sax948H62pXvJ5fGzjPkpyDIv6UypjF6YKLLbwe9/7IknaNeuXcLaBJm8dvkC/y1LWYuoQX59aL8eCEhjDXympxIjUz7v4SNeMHqfF53satOAYORWvvDTn9Hh0yeop7PbMaqmgMuSRCtZGGOZNN26ep1GGQiLcgi31HWOGYCTeIK2b9lCu7dtLtGQzM6U24YG/YSmBMCmQLpAjRYJh0+ggAURYV6tZfyiuicqTQnauqXRBcYbb7xB32Dn4mc/f1EqUQfY+AEM3hyeYqM2JS2QYRTvve9eKbpT50M+Zz6bKt+qhBLlx6hORT4eCL2jiTRNIorkckshDoBxWDNmiSQrkFRW6NNU3llQA2NWRg69i5uNsNq2Oq6qafn3AhgDACOdY9PmTbSHgXxbW9uSFtQUCsVh5Id+78c/5XU9RW2spCgY6mID1wV2joWOHF9Dby5b9rikuGyeV89lCi4KscKEUp2aHKNb7KjEeI1RKFB2/nDRRXFXsezxvO/AayGRyjwyOLjrqSefeuZkT2/POezk+FKJ5Rah+HJ/gZ07d7hu3rxZRNc2OBtwUivJL4rXuru6BPj9049/Qn/z9W8INzeisBs3bZL3XL1yRXZ09h+4VwDwli2by+SkYHZR051HZbg72rvESKKYBvI7Mxs3tmM1uYUcB9mQJ5IthvxKRLnoaGvqk4P5ucJ2BVoqXQLRL/yedf0DDc/dd/Reb9ygb3zr2ww4R6ilu5si4eWtt4QORUHk9eFrdPnGdbGf9TKweJM8rzFj9y73VE5AcEvAaOHLy0EiwbR8rE3LypmGnYZYLHaS8dYggk/YUfGKzHrmyazx2E29vb2StgTKsh/84If0re88L7m4AMBr1hjBrBtjo3KuPbt38bGH1g1slMLhEuBlwAp5krQE8HGz3crwP9yH3IYYF2VF12ZpfIrnDjbV6oDFssLzHwlmhcc/m2U97PZW2kV+j4yWyRWNUNOAYCi2m1MTdOHSECXWsGcfaVmW76EbRnV/LBGj2XxOwGwoX59ixHsoFqW4aTTtugM1MBKMnJj1zQqETfofF3KVGEwOIkUBhhS7FrhOartG5SEh/WFicpJ+xIL47HN/L4K4lg1Id2cXJVkoJqeMdIiDH/4wfYqPffvvEQFBpDcnHZjy4n3qhsjo/mbkCqKpxPjkTCliiy1Y5Yq1WQUHVap+D6X5NXrRYwvfd9iamRfJqAX0OkV/1d8Q9UBkG5Gke+65Z1m2U9kpHT6KbntnT9HY+AT1hiLzAOeSO1kBQ3+MTkzS8OiIIbsLMPAJVvzQTW2tYVRZhSOhoD+ZTmUmYrPLLT6JZpBhRC8hvzMzM4OxWHye/KpCtAgbURR9oer7xz/+seTvIpoD+V3DRhatjWcY/CIi+6EPfoAOPn1QCmQkZcCMluZMEGyN6OdNec2kEzQ1Gy/JJz63zRMqi2yFTfFD0SwiS3CWcF+PKOUsOcG15AJXeo0dADbqETJSrLNhw/pl4wJGFH3kyjUaZRlpz2SXze7q9he52ZBbFUDyM4DKBPw1nwOvnzbnMFcCc/PsbncDf0bztoYzI8K8xve2hELPxcTuxsU+KopSBX6RNgDWFuTnIm3pe88/T9//px8IbSjYHCJtbSK34wyAg/yag08/RY8//gSt6VsjaxvyCRuVtzSSyUtnxrn7Ru5/vCSXMld2wBZRYMgt4wGXr4Xl1yNAuAr+SSkZLFpkNMdYDpHtpgHBorDaO6mfPYs13V1yUVERbeHYs33O+ve5H1l7m0v9fS35Quk5dT8cDCHRCBn31U9mvi7EEw0APTMbEmDgEQWYt+s+1CjOz/W0AgYil8VicS8D4ecmJydLQlkwI8MQQlCOnTh+nH70o5/Q9/7hH+jGjeu0besOFsZ1sp0JnkGkRDz04P30hS9+ESkBxIZZ6FYqRXQQBXKzsKKQAts3iZgBgkHxotgldHo0FXUC/QuEWoTWpHBJORCjG7sxVBH86s9VBL6aAgF1G64VcisR8V5sLuB6ht/nu9nR2r4uEUtSpLND5HcxeFZtAHdN5zWKF7UIoEPkNsz2Kk750q3d6GCj2trbc5yBUgxsF9jCDS9PCkRTRYJ1+WVZ3Ts5Nf0cG8hB5BtCduFvejxGC3M4n3CUvvcP/yhOLCI5SF9CIRzk9ybLM7Zmn3rfU/RhBsGIjqLLG6JVVufRkAM3uShfig5D9v2BEGWS10V+QY0YMAv2rLKr7E0QW++a/Kp1JTuN6XTNILcS+LWmQ+gAGPmQDICXlQtYgE5vN6XdLrG7Ki8atlPZ2gCoJT2eeTbY7tbO7tbzPJ4T2TV1L+QWslmT3dWjShNGpgN2lPW0SVx/LR1iyQf/tqbgCebvgTW3N53J7J2enHyOHY5Bo1V3ynRgfZKyhMDQm28dpX/83rclzRDRWqQtdbZFGLjGBACjwdQTTz5K73//+2VNo05mdjZa9nlO6UIe0ylUzC8Bf1cZJ7hVZiUlgr9XyOe2fc08+16gtJP7lDfp1JqpMO4KG5dNAiA1AVkIEK4H/FqF2mpIHbmtze8pwqnAsf4cQIqpOMWTTaekaAkLLIfcp/JF4W/QNQVV1I6VAIRdLpcIJTzU6ZkZ8VDRhALZ81j8Fy9coL/567+mH/7oxxQJRyTdoSUUZvA7KhFgREIffOwJ+tTHPiwdYUbGp2h2alwipXbbJfOKV/g1a3o7aXy0VbpRgVEiXUHAcnn2SgtGJAWgVUWS9CjwXKFQbXqvEvi1DhUBRn7Uvv37G8YFXOtg4DHszWbWIZIEA9bmY7DqAs/t4hdiej21iUvEH6BcqEChqWlBjOLI2gLhyp5obnoWufVgm7jYRCITbyb5Zb2mG9UT4NnF9qjH0yK67gLL79e+9jWhEsTYsB4dm1pobGJKIsCQ3/cxAH78icclYjwycktyfyEToLXye8p3UlzFbBkwhoy3hoPS9W2SQTVoErF16spnxLXJWYJzYlB5acbNz5jT99ZIsHcugqUB6kqg2C4FQoHhrBQlZYRWbtu2bcvOBczf60oxldrkFBTCbR7A1Aasqse2ttPydyc7LaBXA8OYA0lDLEO0gXkBpnmPHQJUmEu9jkgbXXR3kFk75zhUOwAAIABJREFUshepidFo9MT09IykNkl7eF6rZ06fpj//86/SyZPHJe0QABhye2tkXFiUkMb05OOPSRAm1BKQoFPMBMBWx9UuPx4OKOQdtgxBnYTZ1c3BxrAMeow6nXRNpEIur5vcKgWxUCyWotJKB7hc7mZKh8gOJWYmNsXiMQrxxVWeYK5G4vWGeEuaIJciSdaIkt3z5n0Y3WI8KVszrbGkKEBZePNTIhoVCd6x0oRS91BbgsHnXCw0a9as2Xv06NHiyOgEe5nj1NnRKa9FNBj5g4goff6zn6GD739GvFfkp0KY1EK3GjCr9yik2iiGY2HcvG075YpuqU5nz2WuQt2S4pCfcycNHmKeWyhvp3QIJYgqglUPAC4TXBhSXk+IkHn5t+69Z5/kZi73vMVisZtSnDcbk1SEySWQ3SD/6lSx/DEGrg8KZGIRiGJCHFDkCbKaNaJKNaPMvGzJ5qanJ2PR2CjPcUG4K/1NoTYnmlF+TaOKvMMXp6amnmZ5fKlv7dqDx997rzjDa4OvY6ko9ubwsOjEHdu20vs/8IESM8stacBhVIV7vZ6yfHkrZaDbLDQVBg02zijeEdaWmRj5WX6NtAjMV2Ge/ILHFPnjSn7Lgh/sZC609sQKkHUAjGvQ3hah7dt3NAUVGjvTQ7PR+Kb0zCzLi+HAWuXW7rkGLyL5PNhc2E+rtxdmwFu2a2NGi/XdHqQvunit5cxOnzpzidm980/47n+5C4ONoVITIbczMzNPh0Lhlzo7Ow6+8MILxYmpSZEv5O6nkylxWgVc7B2kj7z/Q7RxY784rLdujUkNhZJPnVbQCoCho2HXoE9b21qpL7eGbjCwxk6szgpjaw+LhtJXqRB2oFnk2V3I6YJvlUt/INBckeCu7q6hxx597OmCCX4jLUYyfC6dkET5ilEINkpW1gid6QH3nW6dzqMM3eTEWAnQYiDFoVq+Y4DPkS4Zym5aF26hHevXM3jroGQ6y0eqjPajgZFgRK8GV7KHqh7v2rXr1K9/8Z/Lb0FVKvIJMVBA87nP/jI9/fQTAmZHR0eN6KzNNqhTVFcR8sOTXdPbzUDaI7yjCkyJS6lFH4v5jDyOtIZpcnxMPGOlGGyNorllC14BrztbNeKbtzGiKsKE7wRGCoDhnbt20t69e5uCUmnDhg3DT77vKTo7NFQqbnGS1dLvytz+zmC186XSGVZ2Qcr5/NSpy27C3LXRH1vkOsTPidy3dYQ3ru1rQ7RftvozTbGjWWhm+Y1EIgf1x1u2bqWP/sKHpcB4EsfkuKQwoJDmox/7JO3eta1EOZhikCNyh9bFDG685Jw+pBeV4hYMEnAOu6anS0U4kNViPlMmX15f0KhcD/roMoNSyK8eAc63uB11RaVhl3qB7VsAYFAYgmYK7dlBM9ckcjv09MFnnr5w9ZKAfmV3rfJVac1Xs6212F5l59XfYvGEpBAmgiHbPGU77VJ6DnLL6ybQs4av9TZhnsCuBICRKlbkefqVu9C3stwiRRHFcAff9yT9MJEwujCy3CJt6cH776MPfPCD1D/QT7MzM5L+UMbpa8OrrYCwDoyVs9vKAHsT2JVSBgMM5F/JqayPrBH5xWPY3Rw7qYGWoIByJ5lkB3g6mc4k3Waxnx1LS1PlBPd0d//G+MTEr4Mo+eTFS0IxhQp7rw33pN32y2INyYFipdXWGpEWgKh2R2Sro7W95siA+m4wwPLezq304L57aG3/OqFoSSWzVp7gRpXk5leRcO4FjV6orZN++sN/lEgouHwff/RRBsL7JT0AnKBJczul1k44ec2YJpJpKQzAViW6TM0JV3laTCbvoha/m1ojEQoF/RLZuXolK0wilYbLNOouC9j12BQM6IKqbwNPT03JcwDAg4OD+5plfjZv3vyv2AH5l8dPnaNzV4eM32XKbyPl1RaIuD3SzWiM18N0dEpylDsYcJXJb6flTZ3zz5MKJOR9u7fuGNi3Z8eOtnBgYHI2eiOTbwqxml0pssvG9KAUwfX10ac//jEaGR0pyS9oCTdvXi+OK8u3YRQ1GRBKJXPnzHAiSfh+XcVsWUQ4Y8oIclw7uzqprb1N5NTvsc/d9pudp3wMvA6H3hKQVEzaUbXn6soHtuYwyjpKpdiOzApV1NZt25aFCq0CCP6NGzdu/Pqpkyfpwi2DMzkQCFS0j42SZSW3KNQbn54Que1xqA1ysrt4HeS2h8HZ7i3baXDfPqFem56JC4uPFnw6SXdHxTE9PXPi6rVr0j3Vy9dtempSUhbA0HTv/gPU09sjlLZIf1BBJ3eVdCE7IEzAQvwcIsI4ctpblbxj7oCXWoJeyTtOxqKSO4ycZDDAYAc24fWWfW7O5KhX4Nwokk/KbhQGUjCaKh1CYqZdXb+3Y0v+j0bZ0M/yF0VBhYrEqS4+ekvL7CIU3tidD89FujqolSdc0V4hwR45hk7FT/pQ7wEIxlbS+r4BWr9hs1BwYdEgIdtI0M8qpdmoUvr8ahJK0KqBkqmr/VdkMUNZd3d3y1YNrms2m63bUFmjSzCGPr/fAqLBFztHH6MMq/BSYquQ5xPV1Uq4qgFha7Q3rxXQWNe0DoABHLCLsGvnTtq3b9+yFtTYjd7e3t9btyn+RyPTk9K+UpffxZLXWobwyrJSnDG750EGQf0EuVTyW5JRB3kWKkbzfWjS0D8w8DgbgHdTyfRkJpVILqRQalEBg8fzo5Uit2fOnP05uktBdu67/z6J+KaSKdkKDfJcQeaSieQ8p7AkH2ZesNd8WgFgPSJcclBZFygyfDiq1jQoHQRjfcKo8nRKYe1IPDZvDQBIh2hut0jnVK1V16BpA34TO4oAnU3XDKO/v//34vHEH01lcnL9wma3Lqu8NtL2qog55BbOa8mWst3V5baa3cXrMG8dvK42bxyg/j4GagzSwBFcMCkUIbvNpjubbaAr5JHDh+jq0BUGu7305BOPgyqSMsmE2F2kHk1NGKDYaq/0oacy2QFktUtagFyZQSBdQAzfJy/PCamAr0XqqgTQJuKSDpmJzlIh5Ceab36xje+F/kAUG4EyaRgSUM0yPKUQV9MMVhhRABks2DTf+nzeMoVUMk5exzZ59Ud+zfPp5xLC7Wh8ngdciyBaDStymwzQZRTFuf1B8uTTPDMBUcSmwm5IJNjjcedXkVCeHB6+MYh8wR72RFWOHbw5sEA4VYFXA8DWHEPJ3eU5y5bNvZY/jJzeYlbmLZWMCxhHYj8KBlBZjXxgaefqcZe1THVKgXDqLmVVHKjSReOVgf6BZeECri3iV4gWsW3GANgqv4slr45RIE2GJR+8hUp8spDBHCu+lNdeRp0iXpIHOUer9lGPL3jN78nl8h7f4ZSfxv1a5KORw2/T2gnt2FeC3KKhxjtvv00zsRh1d3QoZ1YOyCLkR2gkiUrpC8ox9DhEhK3DOgfIT1TPeSvwb8OplFzHzg5J18BunxXcweHV5dKqP+x0ja6H4vy78VsQAV6/YcO+Zpwj2F3wp4NKEiw8fu0aOMnsQmRZyajV3lZk70FHPa+9zbbab7wOt5BbyHe0UBTgFGTvqRAMlqKJ2O1DzckSNxRaMQM8wseOHaML5y+U1jFsWAQ9EviAPIEOEWsb196p7sYKiitRgpZSBm3kWX8fCulmZw1739e3RvKC/a1t8/Ca+b4Uy14OegRyju6ySEn9pc/8ogRIUD9w6dKlpmubLCAYRhTpEKm0Wwh0rVGXzCIn6VvPpxQhqiOVsRRBRcL+AoQf4Xp8BhZIS2COEjgUDkgnpLuR4MoDPKRXhoYGkU8IQKCippgLFf2tre1yZSHUvUO7Dm56RConiiAhf3vo4Ydp+65BaaQyG43O/9yCvWF33DKyAHN4sKi272hrl9SP5aRCqya/s+msAGDIbzbro6WKmM6TYXNd6Nuodga4FicZ/LPpLNKk3P+yGPIjcWKrJ+874w23nPf7fDgZ6gBTS3mhGTwebHYgfOPGjeKRQ4fZSZ2l7u4uoTpE7iAOFQXUOUR1ADwPWHprdzZ0I2rXmlzWB68XOM94DpzEuwf3i/wCCMJ586QL5A17HeNEVl2id9tSt1iTSO8Abyqo0JoVdLGsRLHDlDZlJmO2pl1su6veb70trelUyhYY28mr3d+tz2VNCizFfZvJh6SFMh6z3CKIcBcEz9crexkAD54+eUrWNAJOuEWNDHLrPa5CmVNj12XOWoDuqTNQYEeJqOQaNhg5yDjnk08+Kd1cg10dYneNgsfS90PhMPITAYQpnynQ6MgoRdpa6Ytf/KKcC/UHZ06faT4QXKZY3MvDOZ3TCqKCt/kdFMtFhj0W8bZZ2SDxP5NKSFJfjCevo729IQzlvCByK10o4bFfGboiANhr5vxhfvI15mXm68jfzFUretEMMeYTXXB87Bjt3rNbvtetsSm6PjYq0RS1dhF9UNu41aK+dooDADhhpn7cc+BAU26nOsmvAjfLmTpgzV+slWM4pxVSzRaKIrfFvJsSicwvZ/L5D86mEjCgE/F43M3g7s/4fsPTE/KmQ45W7rxGfoPvNi0Ixs4NtlPBAdze3kYBE4goA6cCDXpXNR0A26VEOAFhJ6NZvg48dgZfItIH7ruXdvPnXbo0RBOTU5RKpyvqEesujZ2eAcCDfkB+MpgglpsKrV65XQ6Z1XP2RQZNkOzkuPpRWGVZJ8rpxXsA6rFd7/EFIbdSGJfkAzsALLf/gV/23F3YWz4unD9/gocwpvStWSPpfljvqrg0Z5krO2fQKhNOQDifn8/uoAI/VplWbBPQG5hT6JMD9x6Q74UW25Bb6+n5Pfx17VOnVNMyrHNvswvjUg94Ekop3y4IVwsFoHfk5jAD3nipyjHGE5lKZaVSmhfB2gYZzXw5iPOtOKG8fu3aiZvDN4wObS0ttpGXWoFvwZHzt/bX60U5EkVJG/nIApYUZYvNusnrhQAO57YqC0SrEAHGety//x7as2d3MwNgtE9eNvl1Atv1cobrQLlE2D8+ScMtBhsJ5DeXzXZGE+knx31uiSx1dHS83EgQDEDVyk6QZV1tbuZo0qG33hq8cWPYzB8MzTWOqMAdalcY6gSEraC4GhBWXSDtri3kN5XKGawypgOrHA4U3HmyRVvwW2ZUtXPjnMh5RiFcMzFBNLPdXYhtLRjCOs/p9ZqBkvjYOA35zCBUOlFqyzsyHMDfB7FO7+YGz42LFy8WX3/1NalZQgQY1xg2CNdSsSNZo8G1BhjsCkatwFjPu7ezxXqBG/TGxOSs8PMb3MJuwW75uTS3NYW8cJX6WKeIwfawLoJc3rh+Q3QHCvCCwUDTgeCYinjklikK7HGofA0UFp5ZAPqX8fEJaQ2oJhkdUpDUDT7agYG+jgb9nFytxWLNOLCdipwdGLCWlhZHobITMKvRul0APJfTm1dWTwRJku4ZCMOAJ2GYPe6SM1UrCHfymqdnZtj7ztPOPbtp5+7d+5p9vtxuV2y5Prtgac2pG8V6jaukTcj7DPUYj07R9eHyfPMo2ASySYowwNu3b8/GZfjJTQuCjx07duLchYtsfTxSpFjJcXFyFst0sh4pNsHvQqLCViCs8oXB3pBkEFzJiBccagmsn2sU1ybEuG5rMiaIana3mQbmwpPPVXVUK43ZVIJujYxIVFONNNvdsVGj0cqmTZv+GT/1h3fhr2FrX37pZWFoAV8+5Dat7YgA+OpXPF90l55X86FH8q2P7WydFexWyie2czbBtJVO8vcqOHbvxB/cVudacRQrphB3k81FVEXSvIXlTWc1LtTcd0gvAij38oJx2BZoFAjOG4Zj5QHh0dHR4pUrV0rV3iryqw47AKw/dkrIV6A3p4rgbLzNmlsYW/4GoYdht3ik4nFW2l60+w3YRgbx+PadO2j//v2nVkIRR4FcUatDudTbqk6fN6/rpIOCdjKuXqfoB1ITCvmGd5/KWdYUj03NuAbQFOPc2XPS1Qnd2/TtTTv5smkh7wiAq8lkJSfTGgV2cn5r2f1z+hzoqumpaUml27R5C9ggVgIALtldJwfF7W4emKDkthJdaRkYM4MKdrSZvDb9dHeguVTxtVdeFfpN7NoIR69ljSu9CNALAKyDXz0nW39cFZxo9ryetMUSR7hFb+hpiIghsd3182vSVuda1R+oNMWmTIfweJpH6FKLBMbRwjMYCkoKhAHoWsgfLlAo0obHDYsEr0ShHJ+YKJ4+dcroAsUeqbXoxIkFopIRzNkA4UIVwVPGFre6NykC5ZC7WAvQqgSARXpn0LoyRdt3bJdmIE2eT1jRmC5XFMlnc+313MJ6iuPAkYm8Qo+uvDNJIl+YZboVirehIBhOoE1E+0qzTf7p02eKb735phgnMKZ4KuzAVJM9TxXgpQNhu6iwNSKsO7/6c2WRYWz/ZnNVnJG8LbiWQtnZqBFh3LKlKbo4rjS5rVW2q8mvsZPjp2CxIFyyuq5FNzIc/kAIcrvy8gMbYGvfeO11YU5ABFhxRFdjBckp+1ah0LiUVraAzouV0iKszpnX7TKIB8od2BSD3Hl7CVa9gsY8TRkJzucLq3bR6fkwfrcRxi96fA0DweBeXEkD/IQXL1wQbk3/PL7eyuCxFqNlF42qFmnK1xHNBABQTpxSAqB3Kli8XifvF5RvOEDfcuDee1dCPmHNEaWljhaVgxV33Q6KPnxu8Ji6NTn2avfd3ctwrYeaaeJBhXbk0CGh8lMAuJqc6nK4mDsGdikRVvYXJ8OqZLdkUPPpkh6xix6r55ECgd+6efOmps/dt5Nbv3u+HrO7v5QynPd4FySz6nWQUcisLrdW//JOBsBgXTp29CjB3qLxUyQcFpAobAoWHnvrc8q+LTbtZa12vVD9dT25gqRDOC4aMLdAXzUVCObF2zSRYESSFoudwi6ajMlG33pzNAQE8/fPGZGSlQGEwU84NHRZSLjDrZFSBDhT4lq2L4izA7W60crVsdWiR3+tANiqCGAcVH5R+dwWSmsnVSOIlkIOBr/IyUJV7v0PPtDMVGj28ut2L3tEqVbQXa/yzhZAJVU+jylX6bMaGgnG+s9pa6rZQPDQ0JBwAWMHo61GACxzVaGQTZc1q/zoOcGVqNPsCteq6QKRXY/OVuG2TbHSBwAwCogGNqyn7Tt27KMVNlpaWprCeV0smdVfB5lVcit87eWxwTs2EixUaG+/PXjmzFmJ/oYYBCtZK1hsXiUZrWfurGkTlQBwLbRqVZwzr6uQL7LMegrmLq7+fZHvDJYQ/HZ3M07QUkeCnQQ+v0ipEDrNGibaVSjP0fVSoTEg2OPO2kXC0oV8Uwrl5UuXBodvDEs3GrsosB49rRTRzTmkSVhzfe2OWoVctTNeiIeLnCqlBFSBAcA0KJuQk/Xwo480OxXaihu529QpEgl2z62vePnaaHhOsC6/bp8PsvFHzXBdUVDz9pGjNDI6Ks4bokl6lXclY2Ybsa2SI6zLbrVIkTq34um2e41ylnXGl6TXOc3KGlFGtTkAcG/fGtqzZ8+plco2kLNkBix3R8Ram2lYgmhGW+cSfVfOVv9i+L2uOxoEo3j1vfeOy304riqgY2VrKQ+q1Q4XnYrkapnXSjumeZt0CDvMls9nY/KVPZ6M2wKA8TvBuoSxZ+/e5gTBSz3sBB4X6nYiwfoi0CPBMApFt093VzCx7Q1yJnKG0cjeNgho9Lh27foJdIMDrRC4CZ1SBiqlMli3LMu2W2sArPq2jzXiaz3KPsPGcEMY9f7oyvtVoFcpARQYoHp51ux699DDD62kgpqmGUohqmtdCUQuZEgkuEAlABTWGQvyhSUpjGu2ge3U4+++Jy2HW1tbS/mETsBj3pzZAOAF6bkKhXIFDeCqxwDFSh/48km5BfWhGi05awFVoOz7KvAMAIzc/fbODtq3756m7OJYsw3UWISs3M3LAXytnMG1vt9JzmF3veKUlZ3rjgTBKF5999g7LDc5kVvrfDvZOif7WG0u7R7roLiWtAo7+rSCLZOMSjf1RQ0znC/mVEMtEwxjtxVj566dyN2/C4IrAVgAmYU2y9An1RoJ1o1DrtjQKVgRtBDgJ7x27aphgExKJVwjRFicqsqtwDdXQ5EcWBr0KFI1YbYFvHYV7hbvFNupEEbpU84OiP53EI4X8+Uk8NHZWXmMCPDevXtXDQBeqh2dSgZ7McBjziGdCIU3pp6YXJLrWd4s4z8s59xi5+bw4cODV69eld0LMEEo3abrvloqv63yY9c8o9JAF8dclZepz9DBbvlaVZ0n57O7ZEzgrIAwDqRAYDsVXfD27d270nL3m9ruVooS1gOK7dGwMf+ZnNTjeO+0a4zc/cOHj4i9VIVw1XZf9GBONWBcL0i2znmtYNhxeksUpdlOUSf8hO5sTyvWpR3baXBw0JDppjOc5Fn27+BUXb4Yw7pFWA81yEJBsDUnOOD2NM18X7t2rXj92jXh2vWblbx5rWNMNQJ8p+hPrdEiKxh2jPY6ULEpobT7TCF0N8/jpaxtYcHExIS8H12rWChXXD5hU0SxLPPl9S6dbTMdmoaCYCUXlp2pZY06Hjly5AQ7r+T1+QQAeywsC3U5MZboTj0RYTvwq8s6/q6/BlFhPfUhXUNtFLuq8h7JD+YDEWAAYHSb2z24h/rWrl0VAFiPoi53OkStAaZqo0JRnJjCO0lPInf/9ddek13HcDgsAadKzZvsgHCtz9fqwFZjlqgEhu0bTpU+M2jEDfIl8APaUfRN2Lx1C4JNpYDbHR8JLuW/5Au2katUA/Jn600AXzjgdmc92jZXuskUG/gJWTApkcpIHrBbK3qrBn7rKXaDESzaAP96cpzcNsTezh3r5jgUk27jdenC/M8HAEaC/s7du4QLeLV1L1rKAlcn+V2wobU5l9WeSqGNIVMNBcFoHGTNCeYxuFzzevTo0eLp06flvlSUo/lPrrh0jofbUzpKXJ/u+TKvg1/r49K5XL5SlFc3vLrDkSvLScxSPBaT371r9+5Vlbqkr/nFToeo9XxLyWbECOmOiQQj2PTaq69J065wODIXAXZIGSxUSUPUndVaHaZaC+nqobG0frZmc1L8eRBiOQlkFl16N2zcIKlLEbMQ8C4Iprm2nS0tQTmWWhiNSKKrQecuZIzIiAGEVQOSZiiMAz/hufPnhQotFPRLHrAubLVQmZULmBGlUcZOP6yCaN2ysRNm/fOdOs6p/F7cxl1uW/DXom+r+gKl9pPTszMUTySlrSqo0FYQF3BdEaVGO6/qvpJf3F8M2h78Bv08dgElLU1ioqHXUxV7lMvtqeWY25MnTxYZBDNgclFrpFWivgDAiIhDDtShy8dCHH0nwwrgC8pBl3ktlHzr8q47vK6CfedHeZ0lNUJouRgI+rNpOURmzXkPUEY6VEWnp0SG0cRmhXEBL7udtQ7scIRDodJOBwYide5U5vbAvFN0ETo8n9UdnTuCIu3mzZvFw28doqErV6itNSLdDOfy4+ezsNRSRzMPJDvIqxPDSz1zWYs+t3GypvC18NFIq0Rr5f61a+mee+5B6lL5e5tuxvKZhfzg2zMyrPzQJtBndvxq1Haqomqxdp9y+xvzeWw0syndSzKN9nKnQ0xNTZ+8cvmi0V0p4K8Y9dUVmFPhmyp+wYGIkDqUsdQP3Yu1erNOwLtgSX0oJemb84jbcLFgu66ML28U37SwAgZYQGVqIhanjRvW04MPP0Q93d2r0pg2MifYmv6g5HchxrGSXnAa8fJmKZNLeV3NIqYl3zUQKrRj78jabQ0F5Ler4k5cK6xt3NfloqbfY5MTrLo6WYcOau3k207ecav0gQ6EC6wdrekRusMqMuvxGcVzqYQUwcGYb968nrZu3Xo3dek2B+S1LRhaNLm16yZnpTW0foXVfo3HJyZOHjl8hE6fPStpS6WaG5MNwgpWq0aAKwSmqgHhamDYqm/xuF4sptkchHo96XTaNRuNUmdHB+0/sB+0o/M/t9kmDVGDELkosYAowUIGvNBkMkU3b92S+yCN9jUwp9CocPTxhU+Tu8BGw9NGoQaBYPZ0M4hoYzsVMBPpEG2BAAV8y+f7oKDm5uVzg/HhIer3sw4KYC5Ths/mqrAi1fMx+zb3cbePwhr1nDx2Z+UWBoxY2cptxQtW/jBmUaC+ClA14snTTMHDh7EtP+0qEtRNe9BF4Qy+9ihNBLsplclSqDBOazdtpAcefID6BgZWFQAO8u/OLXFBHJyKiUkDh0J+9cjS7USlVecpb4W241DSfp+vYSC4hQq6PIsjG/Si+NLzvy7lvCJ16eyhl4kuXaL7NrZRPIJrrFIgshqkMO5HWMdAfozbrNzWJHcF+/th/t1xlp2wf4G4pTAX8hGdQHkK47uanzHpDpv2x015TwustdgB5ANDr4BQqcfP79m8jXbt3rPqUpewpmT3YwlkF/IJ2bo1OkrXZ2PkbYuI3IZMgFYImjnw+XK2iGpguBawDNo0jSFiVUeC05nM3ldfeWXw1KlTFOZrCyaIRmCoStjMnsbMvtuqE6OEmnsrIM5rNIg2v6c1l83mGASzevalQYW2YcOGitCiaUaLS/dOGDCqqly+YIs9cTgnBO/quQv00puv05ruLnrkqadpXVePGX1c3M/Tk/RZFGUSW1xZag80BpR2dnb84QsvvPAHAf6dKh8Y0Uj9Gi9kFItFWJGgdkB7hUylgtuA+Zy6DRaLhWChUAxO3Bj6T/nLF2kdK6JAMFJXY+d0PEqBcKvcqjHrcVFbvshHpuw5BYjlFoZT3VpHLO74eeEavlMsNkGRSDcbSX/JE80EGByYX0cH5t0pY9c80tlP6x98kPo2bV91EWC1ltHgoVXLu2qIrgga6Uvnz56lI0ePivw+cfAZ6ViWzd4+MUpZREnPL1VcsQyOAYza2tr+bSN+XzwzWjxz6F3yZtIM3DzswM6hxYWCMJbdkCmT1iNiymvIlOnSbSI79p+Gf/IqjZ4+Tus39sh6jxSrCG7GlB/t1tmDDNf03QGAIeu3P4y1oZ8A9haWAAAgAElEQVQr7s4w6PWbjXlMXcn2J+LNGq8DF3BPH3Xv38zfY/WkLpVsRYuXbUOOpnOgdgw0jCIN5+2OtNFEbJbeOXqEzp04STv37aUPfOjDEnVPaukKqmNcLQC49iCbt6nxz2KOQ2+9dQIUhvjN0sSGr72K/jr3Rig4BNTmv97ajKZgU8+jMJv186zNK+zOr+ZdzxGuFhmGEwvnNcU/JRGP46R5RYXmqOdfH882vKJhNlUePm8Lehxfdyl93TCmrKhSWvFmIzwXdUHj2TTFJgyAgvzZQshP7kTG0SAuWPVmC2XFVG1BA5SdujlJdvNQ63WrdM2TZ98QDx9HMM1eN/noYixNP7yeKlaaB6fPxd9+dCO9oO91MX6VRt8dwjsoEgrWBYBlBFqM9wRayoFoJmWR5HrCEq3VFacrTq40C6O/nQHJTNntdX+nGPj1/gBt4eda80maYEzRbaacHPH2Uow/Q15njt0d7ZQOb5I5V9e61rlYyFpYqJw6jUrf9eLwewz8c+RfoqI47HRkorM0PDoyBxA14n/dkb0dY4oGN16vrwSGOz0FaFy6kHTR1y4litvafLd1za3XFM+/MsryGysy6HKTx2fonw6+rNPRpMjvQtbBGxP1//7j75yjMzOsizc8WgK4GOsjhn6GLJSut38BlOcZWtphs8wjgSB1ZmYpxMA3SoZvCsBwJNVKMdRs+NtozZYttG22k5bCZi62PFdaJ0puld1tRIxQD2LBvvpSXl7HM3Rr+Aat2bS+9DxF5+cE19UsQ3stOjpatbslErxq2SFQvHrozbeEgx6pAACG+Rpo0Bbq/NRau6NqsKoBYKd5R52BTjHqNHLR+Bh/J1f/+oHcvn2VM5e8v/X8ZFNN3vaOIj0eaKWHAlmKZfM07Q40DASXIgwoWAq3UMgyGfpWqifDwC/gr0n4nA32XAvOcMBLna0Bupnw0V9Or6cLDZiH4XSefn99nna2BMmTjVMfg4Oz3jb6xrVOunB8ZsnmNN1qXMeJcYDXQfJFGDBMr0DNknC45fFYdpodjPfoPih48lO7N0njbFx+nN5Bb8SNRPxszIhy+HI+apucpkC0QKttbO/opM+EwrTVm6Fbbn+ZXOgNLRbVmQ2EqL2tlUKRlvl/87jrNqa2EVStwU3Q66LOkIvi+TAdz4fo6z+cpu4eM99+kef0/S1Z+hDrpoivSFN51h8uL/3j8Az97OLMksisIbdbjXUbsQD96QoyssIG5PeznkmKuLJYKBRkp+Ocy0OvzPTRyyNGpLo75ZMfvWrlNthCXUWXJLg30t6qAFMEwYzI/CBEzoFucjHSIaynXY0A+PTpM8Wf/uQnlEgkJA/YHwiU5f/qYNSqj28XDCtArCLDdukK+meXAVyzvXEljCV1BtpaSJrBJp3lK86/m1FjEFRoewYHS3nQjovg3eFMU03gu4kWenwTg0T2YGKupVmjyEMOIzENxR7e+iM6lYTP6W9+T9GctDx9O/5TKg5/gqiFJzK5iMqnw0XXY2naGTFy9FTEBUp9bGIJ5r3FXNBT5uMQz2ege4W08KhvvBEnerwDUTDDmcH6HeepfyPTQcPZzvK4Q2yChkdzizvXzTB4vhPrT9Bnkx7Zum7JIKrW2CHV5H6vyC+MqqfBRZ+QV6+WxPKP3Rkau5insYQWHFyseWX53d6xE3EdUx8i+mykgLw71aD1A5mFnKb53AlTd3X2mRd7Fa1VLyul3NzuzMsjWfpsv6knGRv1FXP0k6iXXp5mXRkwimnGxieMa5JcfSB4OB3m3++mCIOJyRyVAAW2lxcjFVEvQFYpD16/n0LhkAGGb8PG3sZYdZFgFK/+5KcvEIrBAIADwaBc86LpWLiqdFyrFQw75fU6AeJK56+HT7jaOkgjDY7/b9rQ37Fv3z0+KxOErSr4zafbmmoS29rOUtvVGbqC3+pdOpqy0v1c/Zre6qXqj8tC9qJUjAURTSQp5UL0sJf+Z+82ijZoHtZPByiZmCCPryhORSqdpi88fp1mZ3c19Jr2BA3hGE8VaGpsVPvL7KozIKO+LlqTNcJi4xnMb4ZG4MDx+v2VwiH6euw+el9fnHZsWGtekyCt1tHWNkC+8zdoJJ+mFHSbb85Tb1gxRiZHccpTLJ20iSot3mfqecHTST+lchn6xISfrg6mqLN3TUN+257pM5Ri4DXi81K8EKBiNk3rIxH6zYcjDZPb+TJ7eZWu1mlTdidpY/qc4a/n/WxI08gppM3+FI19uX/V06B95idTxSeTR8nLNinGdsJtSWVaTLl1AlV6MbrXApr0wqhFBsOrKhIMKrSfvfAzGr5xnbo6u6QhBsBvwfTP3S4qgWF9uCqwM9mlL1jBcLV84WrO0WLmnwO/gQO5r28tdXS0n6tpEXzlfe2uVLHoC7pcWe22lW+jfNvLt2N8u4Fvr/HtTr49x7coDPBYDq/NrTp82q06/Oo2my/8bz6Pex+f+yRa6B6KXaQRXushj0teoHsNi21Iay2gyfsDjnwq1fpkz/tMBga5pIdmZnmyOl30xT39dN997RWVLV9zIKd2p4Ov4W+KMvG4f5uv44sCtiYmiocPF+hajCiW8wggiORi9IWij7Y/HsFrfxd43ESmTreCbfhodbrlz/6//IX8r/D9kwG/v1Swg8KeS2duUdQbo0DBLEAL8tdNaVu51sc1jHgivXgLIFXb/m3MhmpHVcDD88z7wrI1Ey26pDDOw/Pbyuv1Yb6En9n+Nu3atZvWbIw84+K5SWcyBzNuz5+Z8/UNMmL0We1WHTntVh158zZj3k+bt+qx+kEKEcpjyPVSKGL0pT+enKbrqSx52zt5cRjrfSUP8AGD1hAtzuHEgmErwWvQU8jQUwyUHvrIRlrX4vv3Hpcrxg51POfxgMIER9y8Ld3neYjV7FyNjhbPvJOik9PQhQYbg5d1y5N9rfTFAwHq9Pt/N8d6ejHkl9fhM0pvjFy5UDw6dpRSWSMtQDE7KLaHmgcYWRo8rIwwC7IB4RY22j6ayrgoisI4j48SySxt8Bpby3v27F52IMz6X/8OLu3Wel8dbu3Wrdtqbz7vTZLrD0z982943l2//9ZbxXNnhmmaHa1Ig6bNSpmY42vtT1ffkayneUKdY9VEgkE7+uorr9CpM2eoDUwbZtEwAHBR0XeaXPZ4zq2tJh0Yu2rk9FbAt5YorlM0uBJzhP4Z5YDdLznBBt9+gQLZDKV9c2mqKGxtb2tjByCk9F5tnpAykNpt1LwdM2+vmbfnzNvFpof530vAwlukYihMuQpV+4s5rE0xnNIhRABvMye49JlZ9s6QM+NGNKnIi6Q6PuFrjuAEjhGHl/yx9Qk//zbwYxrRbZ8wRHgDEangb6HiH3hdrv+7xq88Zh5OY955YrFYceTCRcoMX6IAC2WveXnSI9dptr1VHo9h9QEAg/YMTAKx2vBBuASy68N1uhGfo2+y6RJoGn+759UA08N4sLvE+BBv7aMWBsKE/GsWxAwL6K10igbXraFd2zeVMUGwowCwseoqzEuKrOhhh6BIHewUpNmRpUX29m3XRLC2bdVFAyVsULz8O4OsMjeEAw0BSUE2ZFnQddG0wZTD1zPuNrgze4PBej6zZvlVVGizk1dpHbhyUwYRGta3kptwdKT0uNKILEWCsN+n6YH69IHQrcHORLI0VgiWGWbQSqIIpyvUHMFC1v96Md5iFOb9dpkNYzlN+hpbiG7XQTJj2lQ9Z3WhOcHGe+v63ivbO5/DJntfe/XVwcNHDgvbFQrhjKhovgSAXa450OpyOetia6QYoLjaWrAC4YVEhmu1DwoAS3HcPMq0ebnNNW25Nt12wETBs6A+1YtmwB3SISpWItbpoaLS3GVWOIIqLVFojLFIpVIUKxjAHhX75DZ+w3TGTQOFQrJR15AB8MnLly7R0NBVXtx+iuR8EgoT5RZsp0IiT3EELjMIY7ISdIcpP8tXwhsuEdlXErK5fueuucR7raGF80Rl2IiDozlrglpc/7nHaG0ccBvvn45Xvjw33G2UTxdottguXKIhBsgefm+O3WwIo1LGoc5ualsz8Pt0h4xYrkCFUITcaSNan/TmqSXnaZjswom1NptRVeaGcV8c8J0rzj8PIsSpoo9mZ2f/c1tb2//SCPlNklsAWVs2I4Zili/jJK9xlrG/ikQiv7GYn4ft1JdefIkuDw1RT1cXr3HturI8BBk0gud6xr+GArzecT9o0g4qOdLlKaWpUvW8h51wJaMLbRmvim58hRRNSbfN2ule8Z45p5jXqMtL+YxXviGZ+eSBfJFAK4kdjImC546Q2wzracUTjCCNOK8NGmBvUTuwKhK8aA0z6uM6Dq+GuTt69OiJw4ePUiAQpN7enjKwqwAvwDCY/vAYUeCCxY1yuyqD4loixJ4agaxTjrDa6a8GiIsaHap+LjhZiiM+Y3zt1prWTFNGkngRe5e4tW86ycoxlqwshIsQCTYMgEVQ043ZldEXCCJIAPgAembb5IaAYHilZ8+eHRwaumIoOTaS6WyRPAxW8qbkuShvgF/lraIVKhmtTF0O4NcORDm1M7abO5kjmjPYZXOvGTp1v+igFfTPk647yLlixeLh9xVdRrdB+a4mAEB3Pv6eSbpDRkFLL4JSChdYsVFjnVfkBIPiULFDWOkNGzHCrKjRNQ5ri/VVQ/f9oQvjDLgD2LVKl1KBNi/mZzCQFwB8/uJFKagJhkLkslSPp3kuXV7DoUmz8+71+0r84/A1dPlSQQNEU1HRHfCAF91bXn9hI7sKGNsBZet7GQZXDeUZzYkMTnZp6ezylR5LqMiVFZn2ajuCCSqKroy7vXQnya1ukxqVw68DHOTwJ+LxUi5/qOiidAX7WhNDRL5Ad9JA+tkLP32B4okYrenpZSeArxFo4DB/ZiqEAsO4j4Nh5lyKBFHFyLDjeqlQOFeJ5UHZ0EpAuNbz2OFGpEPo8caa1mRTgmBW+jmtyrvRW6kiPC2+eRRp+ghUAOXVBDNl916TyzTAnou7cR3jyvYDcE0Dc78x1YjPvHTp8omhy0Oy0FH5i8UubUnzbDbdhbIWpTmVqqS1N1WLP29paWwHQq0A2M6oLkY+mbVVpAud/lx5EVCPy0V+tyGsyvAj+vn/s/cu8HIcV53w6XnP3Kfeki35JUuyJVu2JEu2ZTt2MHlnN8kG2AQC2ZAH7LILm0D4gOQDdmGBJCx8YUn2Wz4IkARCQgJx4sRO/LYlWbFjy9bDsiTLli1Z7/u+d+6dR09/dU539VTXVHVXz525uld3Sr9Rz53p6a7urnPOv06d8z8IDoR7PUeJo5qcUDKDisDNnmmDVCyR7tCCySa5vnnFODkcNlc3JG2Jw+CGQlTseF8Lbnhoy0AwA8AHfrR7Nxx96SUCwIv6uxvok0RQJOrjpKK8sQhWeOnksBUaE4+wbZhoY0srQghy+ftMyvLPxbfoycfvZcCHuhJXMFKVKsy3hh7wmVh1DZyTjZei5YTaVxMdHnPlpzCXn9Phw0ecHU/sgJGxUUqEQyYI9NxaTD+g/eRANwrwEjB2QPlq2JcdXwyZqEklke1a/FLp5riwFtDjyIE8VQoWV5MtgpF+n20PNmulPJqjaqgXsEVeSyhOTkK6txuuXbMW+vN5yiwsjTXGI4clxhl7gpPoMTRX6O1qOVfZtByYvf76687efQegNDUFPb09lOXL47tUg94y8Parnn0Y+DWpKqMLr4gSUvGzMi3D1jzPV8pfkMXzZyoWOAIwYL+bgnnSEum0dpbeKrol0XBi6+/thfU33gA5b6VGrDrVDs8QjmnbDsj7hVhWvbwVB8Ey5rt27Vp/YL+b5rFw4ULyAMteGXlCit/x8Icw0KKTRdEbG+Yd5p7cOOBY/GzKSUfaANQHUyk3f8LtWwLme2u1J5gfj1Okoexec+Va+u7qS1bSc+ArOCnF825TTHB7nHgz0Ifjx4879//gh3D2/Dno6+n1mSBsDBdH0+Q0Al3aMttvOZYSCPuhE95kBPeTk+joc+/5cDBcUzxr0dbGpVGT6dNUvy95K2LJ3j4KpRHHhjBujZYEZx0ITnrlfGYqHAJv3iKm+Ldsu5nANypABMaFfD7WMUJBp8RdikodX5mEQwbVstuTuI/XYmMYQrVCccF0T+sDqtTKc2Em+759+2ByfAwKBdcDXBU8qFWFXrAMgKlIvG3qGTL1+jYYevkcggAG+xcUm0qZKXV2n9OesubhEEJ8+QTMwyaCCf6+lYaVl9RcsupS6FvuUpRhMihNbFOtU21VL1lWzqEk2U1m8NraynmXyOUDHq6M+/bVVhx77969VFoVwcPChQuClb1UIUiCvGDokAovmgCWOI4AO4bs6/aTwyqI5QPHT7kIuUIvZHp6KE6Ve91RV87ECuR8bMhhi23Nhmvh8rVXk93FsYallFFua7lM0zo9ZkzwnGzobHr4wYd8KjQMXaqKk3IVchXcugRyLUWkgCbdkg6nkTldrLAteYhNwxpUMcH897hqjuNgeMRlk1q1aiX0L1gAZ0bHYWhkRKWjjOzuvJZyPjPFYOqlixdDb0+3VuCoYlzMxg2XGA4hej/KtQvDvOO4RUha5glGKjYEwCNDwwSA84V8A6hEr6/8kgWGPw96CQA6yvMrvrQG0TuHrTHwuuUZcYmnJoRo0JhIJGg2PFWaguJU0NlbCh6/NB/lq90eEVF+F/T10QsVYICze2a8et1tvc6pyYBhL7tvj033uBhP+OTOXXTsBX29tAomyp4sE6agUORIN5VPs0lVchpj0Q7EGeN7nCxhYt/lV14Bqy9Z4d7bSsUftzMdEnCx21pZbruYrdDZXXEFgb9PpeZejLbdYmcesrfsfGIHHDn6ku8BTsqAVpXPgp8lzPAGeoC5t5j/RAyNkEMiIuVWoze4jklE8BQHHE5sjIwywLtkyRLYuHEjrFy5kuQYPcM4meKJcVxVdkCwYcPZP85OJz0gg8Jmyh9s0kRPsBiThp7gmQAhGtq3lgAzjCc8+MILBIDTbACmsxnykJUrNiW9iWwPHFDKLxn41jRLnKIhE42qafiD6lzVSkXpAbYVSluOk8R9EPyWSmVIs+fJvY8y+Eu4vLHzrs3UsjLKL5bKxFcYcGlT1SlsM8LNJhnUaYFgHk+IcXUIgLG0qkr2apr4vzDjJssj/i1+FlVhU/xeBNCy7Js+T3E/rkMmJiagzAznpVeugRtuuAEWLVpI+r9UmpfzVeXkst0N5RXtLm7FcZOYKiufXxvlt306ULD9JWd6/Udb++MfPwP7XzjAJg59UOjuAttx6NUa55jgLXYUIYKa08iAuNmx4zu9hPEXWHlCnMYAMHp/b9x0IyxdtswNr5mcCtgC4fxz0xN8oeJlxRvvJ3VMswRrw7KM9He7PcERs9BpL9FjPOGRI0fWn3r9JAHgXK5uSAOe3qrdsjEhA1/V0qsMslWKXTX7jArst72JERdMNKKoxFesWA5r1m+A3lwBxplxxfueDQKEecMOoVQyM7ysHABcgsy10ZM0owk2GHfNJtGfa/b3GE+4a+dOGBweJk5RBMDac0lyIsqRTlZk0CICVvkzGfCqnqUOVOuAtXxsWUcgAMYl1csuuwxWX301OSQQ/FbmYRKcTl7bKbOqWPPAGMtlGsbCXPQCt7Ih69KeZ59d/9zzzxMVGnrPLYZPnBZ7mjmDhPK5aeCKFVIWOUxPiOBX5RGuCaWZ8RjDQ0P095Ytm5nNXUH9HMHiNn5CfcO9MMrFmYUgePYsQeFNzSWSLb6++oNqtycYG3q0Ze5jy52RThuYvXTkyP5XXzlGy6icCQJjf8NAbyDkQWSA0IUjhDA+qAynKtwh6hw6QeX9E5d/uAKfLBbh3MAAZdPfcustcP21bhlqjSdpXrFDzCZZFsMh2uhJmjNZ5riciiEQr588SWNXBMCyDMhGiYMjLgPJmEBJBWTEkAlZxuOAafE44gTZ9vidfeaWqSkCwJdecgncsOlGWLignzxpY5QgZ5s4DzqtBQ6nuGNlLnqBW9meeuqp/Xue3UPvlyxaBBa7PxwAO20ar5w1wqdWU7BGmIZGRDmYZL5/3kQAjCvMm2/aAldedRVNXCtIr1oshk2yjDDOrAPBsyUzF2NPuCc4aVehlGg9afpMxQTzcAi+9WKCpwWCsZzoy0dfdhGAW6KQQiDQA+wI90oOe1DNAFUxv2Logwn4VQFgHeuDeE6VcIrgnChnJDCAABizcqtscrF9+82wevVqepCY9YzLMeh9lGKC57UneCZjK7kCTCtYKuaqJ1iKcyNOVyYbX4h7nKGhYWf3k7uJC7grn4f+vj7fyIQlr0TFy5vSIqlkNpL3NeQ3On0gfi8S66MHGJdTFy9eDFtv3gbLly93M+LFOH+mI5OJJHTkdfa0uRwT3Ir2zDPPOE/t/pFLhdbfT5zW7QK+nFNY5Bbmn3MwLHqEOSDmYFimT6tFlEHWgWHS4TiJFQAwhkBce+21FAcdBMrJQMincM656QmebQ2T2uzk9IVPpn2ZqbCPdFpLEdQ0bdfRo0edl44cIa8nUqHhwK2Uykq+X62iDYn7jetNksMeGgCtBLTDKNJUBkCsmoMAGJeRsd28dRtsuWmbxQ0sBuj7/QwqqXnpCZ5tVFNz1RMsEcDzdmecY1A84dNPwYuHDpEuwrg6LgvaCp2a+HyTFgaOdWBGB3aiwE9UEhV6g3kIRHd3N9y6/VZKqAkcoxMKMWvbXI4Jnu6qAtraXTt3+VzA+UIhGANca+1qMsYFiy8ZILfmnkRTknJnBgfAV69dB5s2bYKeHn0ROD55FVYg56onOHnRDODZcn08HEIKi2jKO4n0LEcOHSYw2NvbSwAYPcCqga4LSdB5fsOUoE4RmsQbifuJW1XymziTxfd8+QcBMIZ5cHqfzZs2w51vvGuNfH3otVMwEsxrT/CFaK1MbL3QIFhW8l57zPR3GLuP8YTPesupWBKZe4DDZEkXDxzXu2M6GdHJeBxvsXwMCpOoTGGZaSjkcuRNuvxyl2LZj33Egh/I4Z5INoSOzYfGxoelAiCzaZI6H73Ax44dcx5+5FEYHBr0mSBm3EufsALgF9+LYREmhBNx+ixiA8yvQUfbZatWwdatWxo8wO5YTRJOE+WWO18sy5qbIPhCF5KQjQ6PCc5OExBXL8B1+eEc3lJBNWhEYwMz5ALGYhijo6PQ1d3Njut6gGscZEssDLIA1CKI7XWKUVaAtiYxRz6XiRdL/A0HwHxZh8dD4XViQ2WEdGjXrlsHb/yJN76Qz+dfEg0HZ4cQk7GyaaqoNS89wfOotYsdYlI1scLEuO7u7rtMD4JcwE8//Qy954lw4spJIiIMIhExcRdDKsTQiuQs4NlF/TE2PgbJdAquvW4DXHf99cr9SnQNQgJuIjnr7FEbmzUbOhHGIDLfYoLR2fTEY48TFzAC4N6+Ps+2VIOhEIn2PzruEZYT5nQJdFpsZxB2hboG9RGCXwxduuSSSygOGGs5qM5Zq6kwRbx+zSoQzAZ6fjb1hyvFpN2cAKo4SmdSqcrL0SJjQTaTieXywHjC5597DsaGh2hJJpNJu0lwCg+rCmiaeH9VGd7y51EAOAz82pqkPPquagdWlnwA7N0zWk5l175q5Sq47fbbEIRskM+PceS4dC0/d6bc5597aX61tnj62SSWjsvjzEWQNj4+/r9NjnHgwAFKhMMKd3IiHJ+8iWA2yjsjMwfowh5U8cImukL1WxWtoqnRpRAlJsyrV6+G6667Loj8pOVd0dPOi2XMppXJix0E64DuxeIFzlpm13F+YODAj57cDS8fewW6Ct1EhUbjOYwKTVfnuIVAWJYXXXiEHBtsurLgJ8cxuR0bG6Pr3nD9dXDppZcYgW4fr8UMw5ttnuD8xaR0VJVrZlE4hHEbHR119u/fB0ODLgBOZVxDKpc9VoHLuHGFcqa4zujx8yDPb9Vb+lZ6mjXxwmIgv8/8IBGDYwIChkFgGehz58/BlVdcCbffcQcsW768wWh0qkvNjqZbemtFFam0/hG3y9MfBq6XRf0Yl1ORWH8CK2Ayuc3mcr5MJGMYpsQ0dZYMaMMAcPikIBF5DvG46E3CmMIVl1wC119/PZu4dvnGVKSCSnilslSe4HnSZoXymgmwm0zODKBu1h5g6NKBffvWHzx0CHLZHAPBWC0yRQC4IRlOBL4ximE0NUtyrFjY29LQnYXadGaHMYxtcHCQ8ha2bNkCV69Z05CgJ+qDhFiDQYwJtstza/ALLXexa5u5trxGxTAOHgTkAkYqNL8gBBbCiEgoMwG/pstcKjAbIPK37VCDGDaBxv1Qf/D3JFBeCAQC4FNnTsPC/gWUULN27RqtpsF7g0vXF3vZzlltzXUFHFqQpFepzSwIZqBsMggCk8YgGKs47tyxE149cYI8wBhPRyE+ChBqErogE9mrJrzNgtowL6+tKdDB960QtVnwWvBvBMDoTWITVrh+4/WwePGigDEN82RFTaguwjYrEH8rQh7muu4NhC4tXOBPXAkAy4izzcB3JhwUXHb5RHvSozy7jsnsunXrIINMGILMxg3BmIsgOD/bHtzUHOaMjKgYF9lK5fKGV48dW49cwNgyeTf/Bz3AcQGwGP4gVn7is/8oyjMxxlhbVS7Ca0xCJMT7qsIffGFj+yAARiYIJCffdsvNzJhutPQehvlNqzQXWhs9TTPqCa65Kx/LQyauFAJx6PAhWNDXH8io5kC4lQCvpkmCjTOxbQmS8wAyAuCBgQGigNt28zZigpC9SSIAroE130UjfdHIuGaya9UqkLJmN0DmoUujYyNEhZZJu9SIRhXhZiAcQvm5J1OqUzvCxFmlG/iKFAJgtOfI3oKyu37DerjuuuvdiXsM0BsgMkhm5iwIzkGntdKTNK3fv3rs1f3IBYyDFRPhOPg1ZWRQA3M7AHrF8IeouD9VbHGUYRaLXahIvflEmgs5CaWFnMcVYoJALuBtW29CepY1JgQxpv4AACAASURBVOdVxQR32kXfZk04xPj4+IEf7d4Nz+55liZv6AHlMsCXKB1FmfBIQ2EwyatFTEBNfzMd0Mw9wD1MX920bRtceeUVnQnqHAXBYbk4Ohq9UE9wIu3ZoPYn2dWrnZmVTcYqjhi6dG5wEJYsXkJhhxUmpxjq54dBzDHPrxEA9WTTBcBlJq9Xwg033gj9/X3qyYwBTdtcjwnumi3hAukWeY10SzwzqZibiQUmKrTDh4mmhKjQUmklpZgIfE3pz+Ise0UZSRVolr2+8oRZ1Cc2CDwv3hb3mShOugTdG2+AW7dvDzBBhIH7TrtAylSznN/K5dGZjglmsjQepisbAGC5vGHv3r3rn3r6x/T38iVLfDlAAMy3lqZkuM5A6WQ7TF5V3uGwIjZxgLNKNyS9jHI0phhLuZlNXK+5Zp1vNFUeJTEmeJ7zBGdnQydUfM+mdtWnxBMAUE565uQJTl4YvB9WgAWrOD7wwwfgxMnXYcnChbRyU66UweHXaOLhvVAAmZ1T560V9YxKP6PMok5BFgibXetlq1ZS9VXOBCGD3lbxFM92EJyZTZ3xA62nEUxvsgQ72zwVGE+47/m9MDw87ANgpEGraUoSx018MzFuJgl2YZXeZOBL8b7gEoDjlr/EZSSsxV5LILH+OAMUJVizejXc9oY7Gpgg5sIznK9Nfv4zVDa5XTzQpTg7v3DgwP5dO5+k1Yuli5eQEaqUgxNgBMIyw0MICK/TFmnKmk7n+Sh5xHmMoNc/U08xxgYjAMaEmg3Xb4Abb7yxAezqsttrTP6T83j1hk3gTzYzCWl7v0LsbphdVcm5k0jTywcaKaut5bETfux6eClutLUPPvgQHHv1GPT29BEVGt37GUp4i9N0RTRE55FYQS5ML/MiXsjfjSuuSIV2623bYemyZb7Mismr4mctn3zNMnns0g2oeZSk0HIQL5dNDmu4nPrEjl1w/tw5AsC5XBbK5UYAHIfzNwp82BEeIjnpTSb6Fz2/fAaqrGeuYvfmGXF4fyyLZqWDw0Nw1ZVXwV0/8UZYvGiRkQYSr72TGHdxNp4Yh0BLyj0eaYshTSaVHuYiM0KyrBw+fMT5/r330uQNATAm1BDgFUZv0jM8MtDkXpkwMKz6ezqsEWEAOOy9rnFvEsYTbtu2TQl+8W+lNwm9yIrrny+ML2wCj0HjY3OpzyaFNabYs+4JsU0zVR67xMZvVlG5FWP3H/zhA/DS0Zco8Ropwao8VGOWhz2oYoTDusxXofzJLft7aqpEOTcIfG/cvJmo0HQT1lD5na6enWX3NtPxqLVSuXmzUUOKNKostWfP+uHBAQpKRzYI4s+dJuVZGPiNKq2sS4CTPRZypTcR90ZJqYWsDukMcQFjTNaKZcvhjjfcAUuXLrU6o+jiam1KjmsXD7Rf2lyOMxcBGpZWfeiBB6i0KnEBY0a1bWvj6sMcC9NJVDPRDWJoxXS8yj4QZ9cxNjpK4UvXXHMNbN261V+V4QlwogdJ5U3CyW/wHtjG4PsiaRe0oqXdpNNAJ8vc5uRUXkN7ZijbxbGTlQqxeAD4wK4dO2Hfgf0uFzBSjyZTtBo5FxvKlC5qQ3ZI4YQbV26w+BTqq1u2bYWrrroyAHBVHuAoACxOajIxbuNsA8GFqAE1LcSvWAbkf+tm/bxiXKmFg/NCxY9GcV8iPcuJ4yewkAYJJacgagb8RimrsGpvKu+TzkDr4n5Nk2VR6aARLJdKxAW8fOlSuP2O25FcvyUAuFTpeIVbJbumRidsHLYpJKItXjSm1MkTjLR7ASUpcHZSZanHn4CzbOxiZamsty+Ofdm7K3uAVUUv4lR50wHaMF3RCt5hepaeZw0B8NDwMKy5ejVs2ryJ4illoMvBsPgSv5ez79GYZucR73c+n7fbLa8mXvW4stlscQ3kCi5XnRm/z1lP/jB2f//+/euf37uX9TXNgGA3OWKUXMBzpCk9t8LKLPcC+wB4cIh0FbK3rGWTV5y4tjLUoRzjNs42Sc+qAFuzy1IqZa8yllHHz1l1wdIF76sEr4ElIOlWIOKeikzCuSA3uaQQtD179jjIBIGDlHMTikZNZbh40puc/MYZH1QV37jBVcWdhXmIZO9vWOyvGE8UJlh81o0eYExK6Cp0UWB+GBVaVBNL3M4zwv2WAVrVvrPBKycmxqEhTSV9cvZSO85n12zyBMsV4/JIot/VRVUcMaP85VdeJgCME1cOYsVFDx0rRCPoToROOFWANmwb23umCbuQdQP3YhcnigSAL1mxgkqr8nhCbpTDkuEadLWUGNdsYaGLRT4DE6QmPLVh8iofj69YyjY0Z0GorVXZZLFNiYUV2JisXuDkZZRPbIdffHH/U7t/RP1ZsmgRAWAam7W5n1ytczxxAIzOJgTAyNCBk9aNGzc2cAGH6kRhwtoqesXZFhPcUk9wQxyrcBwT44pGB3mCp9h9TyGQy2YaSvuGzUobYkPRkLGBjwKJ26qnaNsVe6Y7blYCZwcPvujse/55eo9UaDzmVndvmvFk6yrE6OIL5Zhf8VpUxhyT3CwTvk8hLhiVjs2MX7FYpKSE7bfdisupTQHgNAO/GOyPgIXHXmPp1Xz2oqHgNJvFzhDwx/GQrthQSloBWZbHPJdBd9tk+XNPTmWnPjeqzIhPtOMa0ROcqQX+Juqv7kIOhodH4Nlnn4GDh14kKjSMJ0yy8a8KezcBwNMBrVHbqGPIsq8rguPf90qFjCnqT+QA3rptm19aVfRKqbxTqu9wJSiZyQWWU/kEdr4kzOHESjsOW3APAkweyYRRng/a3e4QW8t55n1mCPZ+qlR2P1fwxOKk1W7xdakdIWm6PrQFGFKITpHuLjfdCas4PvrIo5R3glRoWMYcmSDmQ0OZLU5NURW8q9dcDVtuuglynsMtLNRBllX/PXveTm76xCazDQRnMQmrOFmEGhtAJSnDchrGpJ6lmWfCV6h7DNIDpxoHsbfUNsEAEgrVeGmShHE85nmrZXdwjzMhWICB4Mxoo+HEl12ehKnJSTYgpmY0AQMFMpsOxhM+v+c5ohfqX7CgEYBKBi0KAKu8vnG9QHZE0owIfAOGngfrO0FXmMP38xAC9wBX2TXjdS/o74dNWzY3DYD5GGsYzEzBtUJI5xQIZmMLxxjP71CFIMhglf+t+lxcwsdjDeV66e8FU6MUiJuImPThuVF+UxQmkPJlQJe8yL+r91mtIjEBjbxV2RQmkP5WO+7lggX9v/XEE0/+XzwcAo12V6EAA+MTcPTlV+Clw4doORW9SZp5XgAAWxEeWr9aYkgFubCQCU56r524aL6PAr0qY4o83ovYdWNGOQJhus4ml1OxWEaOjdt0OgXJisAggPc9mZkXcouTdUzeKlUqkU6UOMBXdjZRDHf3Ql+Gy56NbJi8enKbI+9ptUFe+Wob2uf6pNQFwGh3q5J32PbsrjvA0yS37bK76AxJedVDXR2RhQVLF8OxU2fgpX174cyZMwSAcTWncpFTa/KEOFq5YQAYQyDWXbMObrv9dmUIBMpiAhytnPLvEBjj+6yVarC9+FzjxATPKhDMFGy+4s2KahOTYLMbFrXO6C89MyER3/PvOABGsFNmM5AcA8D5XhsmR5OQKJ4J7MvfJxP1WFgUquK4mzfQHfN6UIhJCFCQ7Qo7ftL3BNeFs0p9cw1reUNpauoXbbvWwwweWntMbu3Fv3HL//Z+OgpuLCJt2TX6fzMQP8YM868PDQ1RLe66l86rqOS5tJCg+zkGgCc4F7AHRLh3Zrplj+0mq0jJv1HF/Ooq2LhSYEV+jl5grhT7GQi+/PLLkRnDQa8wPg85lEYXRoPPMp3OwLlz5+he5wtdNJZSySyNvamRcaLBofs+NeX/7mJKuiGvLJNVHC9HT5z0J5E6IxMVl8+Bs7gfeXmWdkEeXNlFMNwzPtgAsvnSaDqt98Cj4cT9kgzI2plswKvksIkp8M88A12uWQ0eYB4KMVWqkhwhuX1NCAtq5vmKYw37j2Px6LETtLKAYyrjrTacP3Ecjr32OpHLY2Up4tvEEWbVyU5EIKzj61SBlODELhEJfMXvTJLipj3WUC857vI2lpXt6+sj/YX3CuWPlvKlRLea4zR85nuZvL4jHSQ+f7IZ6CjwPp+aGKWwE7RL/Pg6LyduRSeBOAbbIfPTGWNyv147c44mAdxZFFbJM9QeC7/D8SqCXD6J5fZX7hNy8+M9S0yVfdlzz58KeH1pK4Fisfqosl/EEVz3BONYRPuIurlZuZWfKfYdj3PqzHnPU5kmG4D9ShTLcOLc60Tjh0AwlxXKIatmrnPRDkSwQ2DDlealy5aTLI2NjbMJ7VToMS1xBZjda/432lwcqyNMblFek1THwPYnHuPjE2TPp5gtl/UOxzZ8Baptd31ychLPcDV7bWUD4w62xfWqFWzQ0Ja9TjFwh/yEp9hFnGQg7Jew0zhLOvryazDBQKPKkOHNw8+TArizhb/xPe4jLu7gbe5e2A/dixbC4MFDUNv5IOQOvwoj2zZA36Y7IJEpwCQ7HweMXWymmM+l4DwD4qdeeRXOjQ67nyOHLHsQmHWKMYFEvM1+N+EJAv9ebgu7epix6gkIDVGEYD9Zf5ddsgpWLFtExpUrjQZjI3pKQ2Ln6g86C5MMdNmsf2NMQeBxMRYLFd1i1p/uriyMDo+Q8SCAnMuF0p/pvMDyklSoNzesklxIolxDhSuYZiy1F7jEJyS4JFXI56kPuNQqesRkQ29rwAIKVIkJprjqgO/zOK7YvakpsvXDjjnXGhkvXAJMZ71rstm1V/2/zSfCtn/fSJmxGT9fvVly/hjUXj0E2eFxOHv51VC7ZDlkShZkKu4kkp+rwNRaJZ2Ec+fPw+CpMzA+OUYJrskEcoNGjx1xv1S2AD1dXTQ+0ukE0xE1KsHKgTDKTT7vVnsXxw5/vs08Ww5O8ZzlTJa8nnyST0aVTa5HxopM9bieFfKKWPVxxJcPZRCcUCTK6cCZvK8MguMm0bXAQRKQF+wzLjFTZS1cNWQvVTiMCXBE8GUlM1D09AqXX5zMZW2H6Z+yL8Nh129LKxdh5zYBxdWoymaKsaxbqRMZM+q6u0Kf4/jl+kt0CgWffzJwb0TvG5fZBu+yp/uwFXtzJMO9Z49D976noHt4DM5sXguJFdeR7UCw0s3sajWXJ7k9e+wVCkXszveAU5k0llvxert62CSpK+97G7k3GOW2m4ExYj+SdL5p0+luUQ+K9wqBmlWcoDh2vO/IWYz6hApi8JnrHAbBlmNpuy9OwlHWurzQELFSbJiuUU1ukkKC7Ri7dxUvph/vc1+K6UimN7HCbUXAJVwm5eO39K4j8TG4K5Tr2et/MiF/c104awGBwW0UQheBk8OBlBcYXdOAJlG5ZGolGK9atKSVWbIUUqODMPD7vw+Ve/7VfSDveg/0ffrTMN67FDJDZ8EuT4WCv1otGMOK7ys1iw2AarAfDl5DuqFvAY9V0sLR4SqASbc6WUDJVm2tMagpwhXkhtmvuOSTzbv+63IC/MlBtVwiw4Hnppglb7JRrYQng+hAsIlHN8oLpPMa6yq+hXqCYzSkRsPl1dGxcX+J29jrISRbZJnQFbp7SbEFvI5skoETDTkpIzULEjVa3fCaCt19kMulKXaLj2HS8ThR0CQz0j6OO/mzBUJ7VKxVZqCL/cuhZ3wArvzW1+Gae+6BiZWL4dTb/g0cueNNlMCUKY6wA2ToHDQ2PMMi0w0ZJZ6IJPW+N8JlEKHsbXZslAPu7UaAivRcUWOnmefdxa49w+QXx1SRqWqMgSbDiddRcwKghlMIcYMvKvqwMAjVcrUpAJgumI37nXx+NHDoBUZ+YBV4E1cHxc/ElT9cicOJBN7nQi4dOAcdf5IB7MmJpkvtVhuqZVYohIW/j7xfkXqzrgdrwvF4gaNEKt0AEsXf4GcEGAsMFOa7/HyVBi8qQKDYRAPQqVUCYJuPTSpBn3NlePnoGbj2n78Kheefpe9Rhl9629ugyES/+/xp9xpS+tjkgNdUkFEu5/g9vkc9Qzki7L0s82IonCi3zcgnXw3iwJpvMQEuVygE+l21Lfadu0TjrwbjvWdyPW2nziwBwTpvsDwJn2T2EO+9crIll8OWdJefT8Ve6E3v7ulm+KU+ZrAICmIzPAdWu8WJJNp4le7iOLNl4RAeAMajIlP5D0GIHhCzQUVPmbjkjiC35n2GMTT8YkVAJGeV6mKF8Zh4vKqdgBy7QmvFJdDD/h74zj9C6gffhuK5AUi9883Q+/6fAljIALDtPhAMaM9bVZh0UlQgAmcVGLiND8+ftUQUiVBl0rrXUQe54nIqHpt+j6BUmhCogC4zx1CtAc1yvGkSKeuEEMeHBiORrLkeDofNOi30aFTo4VjCPaNlGi9ep1XFL2zD0qgq4CtOYHTgd9rCKihGfM9jsiiEgYEOUQjRuPK/bcU143f8c3xPHsJS3RDYPkDO+LQn4m+yGsGfK028dv4eDSYaGEe4ByTLwgRL5gJ375OrPTMe5W6ZGQ00upVCHnphBK5+4gG4mgFg8irdsJm8SEhCj7kDYKMxYSDQYwah49k4vhlwzKQFuTAPFOO/sWplCocgKj6vxHYyUX9e2Mds1mavjHKMQIxnLP+ejymnmoS8p+8qlTS7x4LXSCUXCcvYsaRKFo7yUOvkuN2eYfn4jqdHySMPCrnTfMZbVtDFqURjgQ5yCrD7j882rJipqCfkz7MSAO/iqwbsfTaTleSgSiuMcQB3ELjlZV+sEkjINojrP8xTAcV1VOsdDF8NArRxwc8q6S6S4VR5BC7Z+Qgs+d4P6fNz73gzvHzDJgLAMFyvNYMrLdkk0Opcg5dQcR3BMZFucBZVJQOCdUKTnq6Rdb6oz0z1n2wv/LEpybJVq2JePGQQCAsr3DyMab40fCbupCsfsAeB5LdUUrtSgphG1je4UsO9xaT6vXHKV+jCdBOFQLXiwiYnJ/HEeKw72evBqGUpFRDGWA8OhPkSvSMqJcEDLHovlAlTImXXkkWkCs4d3g+jn/8bKB8/D2n2WffHPgqpN/wkTI6PQPn10wRS6Vpoplilv1EHTnlxnGGeTNUMMtAvR6wm5l5HWQKZGFOZ0CWNSMKfkc6dzgYVdBJnSjXXPrreONt3+/sDKKIUalyvr7j0GxcAi/dMV+iiVdViRG+CwyPEGFrA7HoZIEc19Dhw7yN5ORlgsrlI0Syf/cNkG8j5s32ugGtziIeUXyf3tDTIs2X5z80vRc3vgQcYk5AMgDTuPUCPfiqV5YOC5N+hcCP2J1OUztIe6Dn0HCx4bBftMrB2Hbzw7vfC+dWXQfK1AciUphqUKHra/CVQJsQVvNfe5FQoEKhSTO61su/LluN5lXCUVIVJaL1EKPY9ncaY8ALdA9XyNR9TpiT4uK/sHUoyIIbjyr1OPK/l94XfL391xLJ8r8x0jVUzXK9hMs4T7nQhRUkNwE5KE3x+DKyA153NGnmVVX0RP6t4fONitUncp8Cz1xVVKPEzXB1I+KuUwSp1TkZ479QC+SCRCcZNrhLpAHkqIilSPJ/s4VSBZtErR/RjDnp93WtEoIeTWLqvSxaSDK988glYcd93fRl+8b0/A8P9qyAzeg5STIaxRDJShaVt14tb9vJkfJ2aEMa84Ai2PZ2TBKtx7ImzQP6e5NkhvVxI80RZD0B5z9JUN/PnTuOA2dlEDpTjAE+d1DDT0H7W/EDBXKeI4FR2+HE9EzWh9kMkqpPszgr7VnEil6cV7obnpThPSzzBAgDezl7fVmXzo0dVxzUoAzACwo6jL6ErAF+7IVY06c9Y8XxIe5Pv7oPM0CAMfv6LUD50yAWc73oP5O56B9iTDIoOjkHWKcGEbWn7VlXVwUZgayXVoFfxWZgHWbUEpbo3YYpR3DfgKdZ4aKMAsK5PYQbPpOxxmLdYR+PUjnrhvrYSltR0y+UcxHB6Fplcvy5VmaBrzlvuQqVq1QdFg5KdaX5IcflQptXiYJf3WwTs/Hf8PuDzwu/IePD98FoEg+UDYzFezwN5YkgLhRskvaV+BwFwFyWydg2Pwdp7H4FFh13ZHbpzOwFgGJkkCjp3klEHjUmHTWBxmsjOx6c5lqB7QmP/mODY2E98vo7rNbJFICosB/O+09hwLPc8YDWE6fB7Cd4SrdGw5PdRGFfcy80Nv7+fcG1hS5KtAsJh97DVse3y8fjftmGlO1WIVULw8HPzZzJpV9IyeuE+tmKC7q9IeBKgsgNVfxXKfClet9rAga9qObmqWIFUAgupH0FPcSMA5hN93KbY2MaVV5QEBMAIhFFenGwKlh57Ha7a9WPoOnGeQple+uB74RQDwOgdzo6PsmMxey/Esdse+HWBNB4LvaguECYZYvKJ91sEmyrZ4pNsUd8FrgHqeowv2XP9Z/QsvGPQKpFVd+mS/GEug6tE3H11oSSJiwMA1/We1TBRDJtEK0NgPSyRECbNSQV7iOz9d/OT8rH7Pi0QjCEQTKixFzezTn+Pdbo7XKlFJ3S548Kieu6mCooDYMz99IElA8AYB4xA99VH7gP7r//aveB3vhkKv/afIJnPwORrJ8AqDipnCeJDSkkA1HXVy31mguwbofr7gNJoAMOphlUmH3hD0E2vU5I+dZkQQ2wZGqcwD7Bc/CLKUNU0PMBhBjb8eTr1C+Ggq5WxU5LykRWf6u+qQglysGKHXYdwLPE3YSCVA+9WbEM94prP8blaAguHCIr5JCDB9ycU7XpRMd5QVlgcpIreGhG44u+I1a7mUQoyReYs6IEuBmiXP7kjsISKMYT2cAJ6z573vO9emAU3MjgRceoG0PX4xxg3NX69zPAyBesfR5o0NRiAmkDPN03jJj8bXxac4PIpPWP8JwAwVZEM2dBHySQvliAaozCAHBZPHJZQJ+qlsJAKO5TLvRYLxPr6je5PLXDPawiW0KNnKYeEdjLuOg3Uzg4V8KwaOjfsJqobck8whiZgAFxVcuRowTaTn6pdCfX8ygAY41zTONnkrBgIehNpL4a4CqVCD+2/4smdvgwf33IbDF17IwHg/OCA6yFlMpvw8AHZTU+/+DYTwTZOQmspvWPEW+KRZUG0wzRJTCVp4pgQgLMPZCU9YaJXRfCtm+TWHPA57FuVy3Lh3Ll1N3xANyp2wbAGFQC2Q7CCCIprkn6IE24ly2FSYrvixyfWkmnekhQmv7ED/a4IgE0qzKg8wDqQhO8ziqJMk5CqX6znubRKLpuvs/JyArpTL+6F5O/+ESm93lWLIfmxj0Lumo0+AJ6oWtCVctjNSPohEWL/aiK/oMKV7vcTvcIOXxaztN5q/hkeF0Mg8OGUy40xuSniRoz2/Kq8vrrBFsbSEBb+ILM/hBklLbOEpuSx0thYcz9RoBnvLFesrd6GgiwGPBOJTFCJI5BF42RlfCNScx+i/2xcAwi+weL4UPaI0TJyZZJ9niHwRvthEhw7p7+0yT/HfmB/cnmw+/IUBrHqnh/QcXAJ9fA73wgT/T2Qee0cxR1TfJ0AqokaTPIE+RMoJ8icoF1d8IwphR8gUBcALt2TGrjfJRJ+8g0toVoSWBYAc8sTXyRjz6+n4TNZxwp/hwFiGdTKIFNVft7Um2sCak2BehwniapqnryiwycVMujVVZ/TOQ0a9GgIyBXjUXlsvRhjHwnukxmw7DLtj+8xCTztxdWrji82DpRdD3ClwSvccB1OggAuykG5YtE+eAv5tfMEOnouqRzYly2C5UIoE3qBB956C0xYKcgWx6hQUeA0woSVh5XRZJSBX1sBVQKAF38uhBXwiQxtq15II+ogu1ZnTZEYL2SnQVy9au4tvQjslWM1OAbws5pi/q/TFWF841GrUf44lYqlyE7HtnmCeRIca0h99mvgJsP5CkkMf+DvZS+wnPhlyfFnkoKqJvINSk9KryGgW7KykMl3URgExvtOff3rfhhE9S3vhq6NW2FkrMyElwlX1c0kLFlBACzOSJD9AayUNACqSgVcTbJZsKRMKF5Krk4tuP8RAJftRhEXM05VALPKsXfNVnpTdGwLzcT/yp7gsOObGLUGZg9HAiXOxbNM1Kz3r90KjN9eXKZLKmYi7vKd64EUY0wJGNZq5FBhg5joy/mSvMgAwZ8peZMRNFr1sIqanfGNHQcd9PwxlAGNZ18Bek+NwKL7dwfCIMaWraYwiOTYuKfkqtRPDkQTwjkaYvt8D4a33Gk1ZpaL+9FyKw9jwaVtK+3va3mTgpQQCx22ytCy5zaNmHgRBFrJ1lb1a3XRARXo1jofDK5JG2YlyFxYHLWom+LE9YqAUgWERdAren5VALiKYFVYb+Lglx8HAe1U1f274odGBM8ltwoPYoWaEvTKIXEEgNFeMjCMYk/x6Via3l/qdz3CqWwWJpYtJlkVQ5mOvP9n4fTydWCVqpBCVgZkrrDAn0zKWZ4UZmQF2WL88AbUOQKzQK1BhwqTGZrQVsWwYHrPdQR/9u3QwRcb8HU0YSdx1F4UdaSpPhF5o3WYRgTDmtX+U02BYOTYY0D4RnaiX2V/vokEyuNpQx5aJ5cnUDfl0cGkPLQ9paGEke/dlK2/m2WPyUE/6vKQYSfDMIjk1/4Gyv9HCoO4dCUAA8GV/l4/mkSXoJmUgPZIhJBkxyah1NdN22pPnrauwpYA9uIF3gHHoTY6DOnyODiZ7lAPggxerZoZ526z3t+4gFZ5/BCgTPGk88/hOzsANyVjJAg4WDjZ9DwlFgOgUx61T0oaX7yMbMrAUFSlJDD8jYl5KbHflXuXMJmbgCXP7SI6NGw8DOL02rVQOHwG7J5uGv92zH5Nt+G5ajnXa54pToJTnJg2OI1rUNHgyB4UWm7V9IEbfBEIiqAxDEDGoU2L67nVHbNmMGmOvE+GHm8VPVVY/kGU17ca83PRIxztrbJ98EvXZQf55KeqDoUT1ZAqsNAVtDdTZX/cKm1q6InTftEL3NqCreS9tpG7Gr3oCGzZuScW9AD0iCurzAAAIABJREFU5WH1fff5dGgvvutdcPLu98LYyj7o3X8YpnKFtsqsLcktP5cswzA2WgdK1vxyvDTl+dUBV0s96dZ5c+MyySQ11UBVQFjnBVaVaMe5mTEI9ry/Prk2A8LPsM/e7VbJqXt9U12iAKYhnVRTmMhtzLtIpDKrZPQ3KA/hZSx5WHT18Qdh+PN/A5VzA5BZtw56//hPKAyCt0yiGzKLmNF19IHU5VqwUHIh6iYtXABVZnWq/f1uH7xtatgttjFScDMWuzJ5+myczdyz5fFIhWlSaSms2ESYQtcNqjieGl3im7y/Y5pol5iHykjBTzutGbvl6D/zKLQcgc0A1yJKzDAhCKW/rYlI49KMQQptzHAWly6DNU/cFwiDwExyBMBDU5Mkg9hHuX8zmVrIPVmOB4D9mGAJjLbDCyQm4My02OjKW5sC52YA8HSBbpjOCcRqGoDfOF5flfdXDnVolhpR9ACT99U7HgJgq7cPoL9P8iqx/XPNl3+msxXytMVEN52Ml0t5qGb6INlXo2Q4lGFMhkMZPv4z74ezDAD3nD3l7pOdmFGZtSU9g17q8nAZ8nzsJDoAuKmxaOAAiDuJNil6Q7IW4glW9kPiK2bnOcY2h2NLIVMIKxn4/S/s7Yfdv91QB6xpb+VyMDk8AmPPPw2liTHIdvXEvqlDTTwIPBdv/JyjX/umHwZRW3M52K8cherZs7RvcdKlYEvlCw1hCKNJTxjGPSPb3VV/b9DCgDLCiwksLzt4CnpfOQPlK5dBZdV1kOvuherkRNMAWDuYYpQ/FgdVGMhuR7nfgAHqKKPpt2SiMfmOf+a5BhFMJb2ksnKhj8pOdrExuPC5Jy9Yt6eWLqQYQjEMAmU3UToHyx7dBVcx+b3QrXfSTaQdzS+E0qWXulUCp4oNw3emVzkSjSF6LetDmMzH4RmeLY2SPr04X50Rt5vUu7oENFXMb5gHWFXoQwTAdbeSuyKCHuLUooWQY2Ox8MILNE5xjF6Ils2WiQ1ClOHC6Cuw5IevQ8/w2KyS4anly+v0j5pEr06bAf0VA6dEYZUY7Th7HTRGHB4V2jJwY4A/if0QQyCwQkqlVIIzX/4ieWCdwfNgLVx8wW4qB8A06FcthqnCIhdwDbp1vS9k33gfht/zbyH30f/MZqbdUD5+opGKLazMcNUOgFOVUTItfxyoZGdYAjnsHKr9w4pfdEBwi2fnGk8w3WvO9uABYIzBHV16OSwujcJlD3+fuDwnpxylfOSKAy5Y9WRJ1/h+AYAb8RtZPhafH6BEGvF3XG7yOYs+x/PEOW4rGhp27BfFN956O0yNlinJx0+e414Gp33xgDInqgx8ZRAcVsUpToywGNKgis2Nk6wWVVbYaJx4OkVmwZDvg3yvxOp6ukRJExCsC3PQxQDHSXrTgWDlffAAMC7zb3zoPkpEM5XVdtk3lF9sogzLeuFC9I33A899/F1vgbFrN8IIm0rgRFbWkZ2msB9SgrHObIdRoyU1VGlh+kH1mzBPsCokQjoHelS+y87zTSNPMIZCYAgE2/42U1S/xpfEMPyBKCa6uoiU/sTD98EEFqTgAPTcwAV9cFgUg2Z8x9F4ng9+eYH7RhXr7r4LygwA184P+UqTqt15yQAWNNKfmXprGkIUhISOUOWrqefNz6GJqwkF5KJhEoEvFyR/SbnTWmOE5HvpZV2LissmSiQLKv39kLQmYOGzLpk9Ll9SQNN5vXx0ybJk0OL+5vxit8gN9ybpjtdMX6bbsGLdyNoNVO2qwIynIwxs38vYqvGsQLIqD6+f7GOZzSc5+I2TJKcKZ2jW+9tM6IOur6qQB9QvSIQlF0eRwa4qDMKeZjlzEQDLgFeZ9KYo+awqJ6v6LQfAWfYcVjyzw5fh6chqqxrKMLAJNUzVQfF09ch0+iL2ofgOT4ZTBfYAKh3w24ydaaKAlQkAjtpfBsIy+I2SXw+/vsLePs9eJyJBsBcLvIRt0QP8ATwAeoAxBCKTTvsxwGd2PQYTn/w0AWAEn1iQonvzWpg46Q485/QAWMujZ358P9yS4hPeNzWDYb9Pn55ZwHsuYcOSWtK/Xux/5Z5/pfhkDoCdT34CyiuuBOfMWbDHB9nTywuzrkpL+6NL6IgKfdAZLZMYYJOyxwkLLoq66bNpti4qcp5F7STqD4D2YcoL6Y7Eak5rvvaPPpk9cnnOmrblAk1Sly6E8f4eyB1+FVY9s9MHFpjgg/GNo4UMFE6dgYRXzU1EnWIGNb/frVzh0HljdBg66tRxGSPC2BvaES4lAmDTvAJ+b3QhIX6RBbEkfYx7YFrcIsrzqwLASp2sKFFO974rTx7ghUef82UYAd/5226nMVw9OzgrxPhCQfGptZfDpS+86CfooX479bZ/Q4m2RNU2NObH93PqwQ4YbrQrSkeLo5dVrlPiTpLF/cNKHYfKXLQXGM+zh22OstdgygAAY3bXx5ly+y32Q4sS4bx4w7RXA3vktaNw/s//DKqeBzjzSx+BS/7rb0I1n4O+ySkJMEkkxkIJZRFkjSkC+QsTkw2KdqqiV7olj8osjvmxpkreOWwYzQVL7/Wy70rC+Upev7NehnqpJ0+MD4VKCcaYIsLEOEyA6/ns5xoA8LnV10Dy+Cm8yVRfvhazOpspQNXNjkwA8HRCH8Qyo0pPTMLqAOBWz8wtCXzVPG8fcmPy+80p0Hq6CQBjDO7Vf/8tHwDjMv/R7Xe542akGMjgFrOsY3nGYjA48Cz0lgBZZtyqmWzs/pW9cs1Yre4KBoI5AEaWCgLAK/qoZDPnEw5DmbyUcdOGh/McC3GsMgA29cjEAbpxgHGzwDcsnEHss6pkcRjA5fORBupFhWMg6rM44NduMkYxTtgDJsJxFghMgnOWLYKVL/zYl2FsGGb3yh1vgkmkSRoegXTFhko6+CxVn5m0AlaGi5ApkR1GJfMq9phmj2UiwziRXeLdG1zFCQDgyUlfb3YAsF6HyUCYaDYTllIOw3SHquiFuLosVorTPmspfFOWYd1kVgDYe9GfwV4n2XnGUiLgReozjP0VFALmcv1X9vptHgKBiXDoAbYKXexCEwSAX//V/wLVe92KMIWPfAQW/8dfhbyXoTpoYIRUDf2iVNZYvPhe11saSZPmNTzzeMylrfTwqEufxrZychGB4pwCbIt/YHxv/0pIOnj9I9D75S9B+Z5/dScH69bB6Ic/BEUGgPuKJSgWyz65fxbK7DgZQaHqi06Iy5KtYIGIU1TDBCyrADA31H4MXgcAt74JHLcEYjHul1dUc1y6v5KT8T3ACICv+fO/80MO0EOCca48exo9TDJ9Unka3TP6LTNeVY/SKYraydcV5SoZfHl/kQ7J5FhJdpyx7kVQXLuMstivvu8+WPHMTh8Av/Du9xIAts4ywzox7sqf056xLIPduMuOunhgFfCUvayqMAlTNoY4gNfkOCaeX/EaOfDFUAheujjZIl7kVgFg0ftrCoDpftllNhnCSWIWSoVeAsDLTx8KJKG99NEPwREGgIs9OWIxocIzOZCZ6pWfGXlWub1iYx9ljsse3zYj8/I+Olkta+Q+cG/Zb5FnfGzNVbD0xAiT4W8EZBiZZjgAzhRH3ElshxptWi0sHrhBx8r1IEL21VWRDPMEh3mBPYCNmZn72etV9kLP5KR/NI/7VwRNiDh/hb0+xg/AqdCyuRyblTIAfOYMnPujzwUA8JLf+SQUFi+B6sQEhU2kKmXfq9tXCfLeygCtAdB5f5dl3YMZsh5fIvf2ZoX+iS2jKzdcq8fgUkEMfmhybY/TNit5fOkB2BUqikG/rVSYCNWoGEYNKZtKSUh19UCy73KwrRFY+Bd/RjzFnKbN/u+/A+kNm6Hv1AAUR8cpjpoeGjt8JclmrrWEHwqBJQdlIByn/HHY7En+WySvlgGwP4AMzhGowe6oq3T5CSnQmXW3Sxs5vESxULeeJ8Kl+nqhzADwktfOBQAwLvMfQw9Jfw9kj511lwi9EqHGQCfm/uHWthjcas7Ft4Vi8Hec+N6aSjYeU2qVSo0KAdhsYp/srxEAvuFr34Cr/7+/pe95tbrzqy8jAFwYHvaBVjsnM3HAssnPlbGzIcBXN7GNOrbqOFGA12kiDjc05tmpNRjFuIBYBL26EsK6MAUd8J2WeHtlxTkA7nn9BKy97xG/JDEC4L13v82932cGIFGccJP0nIR/L/g9UBUTaPRQ68ehKHPyFj3FVAwj7N5G7aOQVZV+yVTd47gl22sM0TDbzEDw8sOHaRLLZZgD4LFL1kD25DECwHT9Xnl07vHstBaZIoMS6qa/0znxjPrRmKB3jPXjZTZWzrD3yF1b9Y/ksT/4Y4uBoV9nP/o9GQDncllw0mk3BOJLX4LiX9eLURAAvvRKKopRY4C65lV9y41NNHhMA3WhFUlcjR5NSYnYU26ZZGGWWKvFoxhDJef3w7EDdcbFfiaEPlXIw1bzSx+nrCkoOzlw/Wwp8gRbI6/CqgfvgSEBAI/85i/B5G13EgAeGxgisKtSQFXhMi0FAK6ZVmoTq8tNg0pElQgXVgI5ypiF8XF22vSaGBPsJmhxb4q3bN/bD87SS2HRKy/Dtf/yNR8A82V+DoC5gXCP43iGIuVvAyikJpeerSo/N+q/xtvpx9SqziVsAwoXqn7/68YuFfyO/Y3nxPLPqKpwCRWbDIBf/Ph/gNPrbiQAnD9/3ucHxsioMKDQDs/wTLeopDSdNznO8WXvcBS3b1xALOvDZnh/dWwPJp5gHQCOigeWKdV4CMSxwjJYOzQEm+671wfAVIziJ94OTpbdv5dPQLIyDmkGNFF6+WqQZeFkz3Uupaygo0ntiWucRNQ9bo62nHSyim6hqrLUsbiPieRwWcUy6yjLsqynMNTLKUOlXAGnfzFU+5dDrzMSAMB8Env2ikuZDJ+Bbs8DjIA5z45HDgI8fmd1Ui+nipCIMD3QDGCebj6BjKcUABiB6GvsdYK9TiLsBRDKJosAmL0+xF5/IAPQVE8PhUCMDw4SAJ74w8/4ALj/j/+kDoCxOERpHBLZbgLCURcpx6zqMvzEcsxh+8k3QgWE0ftrBZ+ea2cN++jfdG939ACPrFhEYQ7lJ74HU3/8WQLASM92BgHwW/6dGwIxOg45Z4JCH3i/8D1Xg6lEMBTCViShxK0CJ1KJqACxLdEcEfAX7hvfmpZKbhbsdNr0HcE1DoTZH7jwQqVOnSpxAZdWLiAAvIEBYG48EQA/8+GPEADGOFdr+DzYmbw/c08S8Mi4soKgulb37itLaOKzdVGiD94CxlLH3+X9Lcc1yxcYRtUTjDdPB85h1+qxu/w7+i3TKeiVohjCbIqqXGGGPTeeL33wvXUAPDhQB9BW2i0dPQvAL16HCgRGLVPKleNU+3FQGhcM6wC0DuBGHVcV3hHQR2DG92tHOEVMPpNBahzwqwK8cklk/3PHLduNXMAYBmGnuyGZy8NVtVG4+p5/CcjwS+/6d1BmsoMAGGWeALC3WpqKAUzCPMPid3KYjjhOqeQ4wggFBZ0OOKtk3H2uGT6PD0yEuewmqlNQti0mv70EgLsLOVj+0PcCMixOYrvPn3Z/73kS6VyJTMd4xLTdYbSLvvPQw306D7AuFCIZ8rsm6dB4Q+B7ir0Os2MPM/1RDYBgfjzW+bewzv+hGAOMjcoh41icmoLxb/6dD4B5NbYla69zx+roKAFgYADYwmNUKsbC57MYMKUgXoO7hBMEwOJyTjOUNpYT7R1tKPXrhUFUwaUvs1NlL1DJ9QBjJbjMzscg91v/A0Y9AGx/8MMEgLEVj5+GWtld5sEY4GLVM0C4xENebJtAsA4ANxv/q3oftwRy6H0Ryzs7HbDblmaQ5i9z06KHM8HGOYZDlBa4SSLLv/PtgPE89O9/gQAwGoj04BlmPNOuOfaqyomeAFopkRkQpD41AGPLqzdvWUqE5oPaRONv/Wux6kCZ9sHfWlI/VCjJM6j+byRlTiwZTD1V+l0AjAlGIksGAuATt97hhkAMDLJDtD920O/vNCdDUV5XHQCO451VJbGpkmIiV4cM435rjlq/4HOUkwP5sn+z9kGrYw25fpv1/tZtTcYN0QFMFi0RAObFMK6473uBkuJ73vZOkm8EwFRMg9mhZDpH96RULocCYZ2nN66X0B+yCWH8ctkXZFOpC2QlJkyg8TdU3hptjiPINFVp9DAAwyZYJQ+pHi9hAJjLMAfAI1duJw9w+txgYHkVk/y4rHAvcKdgRvRzMZH5OACYA+ZEE3RoMRuGQOxlYwkT4oq8bymeEAfuev521pEvsU4tFj3AyPKQSrkAEIthDP1eHQAv/OLnIX/VOne/sTEolUqQSOUJXTsGdeADy1QIftn/GQyTtUHheU0IJZpd5Sbuk8BEmFow7jgSzDnyPpYSbLqhFzYBYYr/ZRdYY3h2nM3TM6uWEBOE88xuSP7uH0HZY4JAADz6C7/oApJDr7IPSvTwK5B3wwwwwdCpkOcXgbDF+s51Z9z4X1P2B/HYquvUHl9IyFMZMBGjBWb9MpDxgIvJ0kqnGSAb2WvI7jPGzSVobJepGMbY0svrS4SC8cQYubM9BfIAF5CmDwFwIu0DMX8JzKs2174ywC24BzLI9WIHHVVGORusCXCpzShJkAFgTDCSWTIQAGOCIHqAE0xOySvF7qcfb9wGcn1jj1lz86RIwKsDzjpga7L8aRIqoZrDhEXUqBgxmil4EfTSJiOT36JKHUfF/iL4lfdJkV3JBKrBkTfX8wCXE3lIX7qcFh2v3vlQQIYRAI9dupJigDFXhvpXq8BUqRIAv5RUl8wYOU7CvIANPMu8ZDj34DoKuY5DD+gBZTwWX20ieyUcg6pdgjtJR/02ibZXQfXIV3EKJ16H/OgwsVDZzOZSvoQXRuHijvoqUQcAx5uYq2Q6CsxG8QKrGCTCME8UGPb6g1RnB9jrJXALE1fr8gfEDIHbuxnIub9+groHmAPg0z+4h4ph8DjXrs/9IeRvuYO+m2SGAkFvplaCKhPaQLwtAuZaMAh+0kkpBNEtAemC2xqkqq7XtJoqaAW3pqFNqWnKV7rfVTQKjHzdoQrCYr8teDFWE2yG3s0AxlTf5QBHd0L3F77gFwrBJMHht7+HFukQAKMHmD98u5ZAK+0nwXEAbOKlNVboBqEPUQDYbiLkwdRwd5RN+xQWAWCkUbIyUMRiGP01WH7fjsASIY+RQwCcGhlyp8DgMkpQIh13mXgxhHxkNHwPQU+KO5u26p+ZIDMIVkGzZe+uZEyTCtJDfi4/htCdsvoJgTw+sb7aZEG1rzecJYMBYAQX/Bii9ynglZ7m85I96c0A4KYAtyDvKq+uzgsclkSnArxx4oSjhot4X6ZT6MKU51f2/MalQRNBL/f+yl5gqg4ncR/geQgAMzv5+vLVcHm2Cqt3PRqIcz24ZTuML15OY9QZHYFcyqKclbQQWuGA4NG3G7kacOUHG8XUMpBclx/VzZfeYxiBwJPtV6P0yzwZPnAZLOMk1R8E7FgJCMTt+vLIzlvKNVI9YuOTWFzFsYrjPu0W/r5k82eTDgw40p0d7nqlbgoLgwiVHwNAa1IdTms3NHHACiD+KjsuKniMh5ngoxkJCFIeEP4AA1mfEwEwzppy2SyVQ8Z28vGHAsUw+n/tw7D4zjeDwwAyxgFzr6+V74UUeg29WGAO3hAYi0AuGYHw0evrJLv9feVYYL5fIpFUgmEe08pnwqLSS6A3F4GwleRa2o0JTgS9nbqlolKiiymNMmRWX0kAOPvio2B97s+IJWMFGyQjH/4IDH34/TCxarnLBeyFQPggUwDAFP8bklEfpwxyGH+eDGojQytCvMUqw5awoGkPVqe10GGM3g0m3uMpNhFdehkBYIxzDRTDeNdb4PTydWQgalOTUM7mAIOdKMPaMwA1sSoYKjIPeCKwpjAnypqp72N5+zUAWwyrUFUJUk30vP18PeuNI1oKF48hhwmhgfO9RRnXribceEq7wdPAAE2lygDwArAvW0TGc+29jwQoppBHdBT6IHXmNeiuTvrXDcIKhpNorZGRjY1aJyYD+3A5c1cAEtOuxyECWBOe4DjeYJ3XVwa98vsort+4y/lVwSaYeICTBlnoYSEOJuEPGavqx77i+RzPXhAAvvQaWNmdZQD4QZJhcr54Mnx+/XqiE6tOTJK+r3jXgrkAaWnkVzDuWLhuft/K/Lo9L7GczNYQ8ysCRgB/5QjEgingJo+HTXL8MaCqhGh5oVjJuj6wkqkGm1Pq7oVy7xJYdvRYgwzjJJYzudDyqlWfKKcT3uoWLyQkOGbsmtPSwjZztimqjPo2XorxtzTAMw74DSuMYZrYn9DEJHvHRy8wp0Ur1yeb7oh/P/vB38oAmFeDw8Mef+xBGPxPv0YAGD3ABIB/7pfo+wrbP4dAuL8/aBBR8DJZqE1GMwXyrofx/+I+ppy/Itcv34pqb8QDzH0MfI4Ykv9bI+MU9+t7sgtZSKeXg/3yzgAAxiWqCQLAqwkAOyMTkJM4gHkIhP93zY7tpY1S/FHlj/kx41CghRmzBsddwoLOhHpmGveMcI9OLd1FFErJvlpgiVBMErGHE0z4R4hHFNuU7hkr+DrR8KoacoeWvLElvidlxsY4L7ah2sZtnBS/md/iNaH3aPHR18h4ihn2x+96CwHgzOg5SDI0YVspLrTt8cYqaASbtFkNoQSmtlwVHyzHDqtAcZwyxqoJcy0knDvM2xvH49vomW0EvM3y/8phDc3SoNUSmQbAjZ+le/sIAF9+8LGADB943/vh3F03kwxnps65VeO4DeUAUdVfJus46aV77b1PMCAZ2MdQfrTP1lA32NVKgMc76vcNz6WvQHzmq04OwNXf/laAJo5PYnsHXuEIyC3IVdPkHKgG53z3/lqWH2sfNjlvd5Pp0ESavzBwXfPCNz0gjAlxWB3uLHuN4mGTKbEIS632ZREA08yUAeBMTw+9FwEweoAxBGL5298DKcchnlv0Yo7hiTRFMZJ588zLvFgsgoHncSaR3d714/tMQpw91wGzDI4R+Kq2vBX82TFSkjnQywb+qCAgWOWtoQkAGON/e50+okLr+h+f8XmSEQBjNTgOgEtjE5AVSiAj/RlPfHME4+3GAjefqBYKkAQO4KY8iwKzR0M8ITdQVsL32PgFMToAuC0KqqEqnAQSEABjnCsaiE0vH4Q+Ic4VY+SO3OHyiBaGz/jGBEn1lWAmq/aC6UbTpOa9aJx127it2d9VM33kHe89NQLrBeOJsnvsgz9HRPo9p152wz4oEdYKoMpWhfEoS5GGAGBR6cuFZ9rdHEOO8LheYRWTngjedTHBcixguxLforzAPNRBFecren+jwLEbxpD0z4+rpunebprIXv7CY/4yP2crefld74YhBmAvGznlA1oRnHIgKQNM6oX3GX8fxzLo9IE/ppke0QHkBt2QSSmPZ7PPdPooIMNsgr/gzDhc/bW/C7JkeFznhWOn/f2LTIbzAsB1k/Vs6LQW6DGvNLK8Yhw3BEIrY03wASvO8ZoHhM/ScJDQSUpmgaALw2pwDOCe2fVYoByyc/MW2p48uBdSZ89CaWIM0idegcrKK+szvq4e/z1+L34u/m10AwQPVSrEEHNQOzpZjP0QC97st2C4//j4AHR3L3Kv6YEnoOgBYLEaHIVAMCCdDShXN+zBsdxkOKsWnbQXWrEtBg8wB8LyQFXRx0WFQYR5hBsSVTpxv60FIwr6MM5/i/e+iIqgvw8KzA4tePIJAsC4RHiK/Sx1w2ba/8onfwTWcdd4ZrPmUDI7PO7KdH/3nL+P1YU9sOj+3QHjefCnP+DzJIue9ZZ7iDgVnLfUqPMAmyZ9hMljs0ZNpEQzBcO+N3cagFT2DJt4xeMC4KhYYJP4XxMPcJxKcAEAzN4jAEY55smafJm/tuZy2l7y6ONw7cjpCy6TeP7pnptfQ5zrQPlNHRyjSnmiDFM1OI/qkbjOExkKlSrgeO5EOMSzNZIHWFR/YWwQKgAsrjYnPNBsAphNAbB4bI5dhNLLAwzTvM62x9hrMJlKVuQiZNbo6KjjKpOaS4PmzSqHdjzse4B5Q0+wL7geA4LYxO/nQ8N7gCEQOEPHanDFN74Vpo6+7AHgYAgEyIAY4tGURYU9NJxDCEiXATAfMHH4f3U0aKos7Q4IbsOMW/ACE/MBZjdT0lqZQDByito93ZDrzcDyJ3f4y6envEeAk7RccaBzI73GE2h8lowFC6mUKlXK4zLVjqVRQXiUHMcKeZeBcJgHOBBvGaP7YewPTos8rXKIhl2rRd6H6YDfaox+m1CfiWBX9v7yvzG+t+wlfYue4LCCGMQH7CWtJTN5YoZYeeIIrLrnBz4APr94EVgLibSpI8eSDKP93f/JT1BFRwTA2fFRPwnOdRRYDfSRnaYRTJGHWdIpouxajYUoIkGwyb4c/KqqwkXxAWuOjbHA32GvbzAAjMLUEHOb4gCYQGwmQ+WQ0dM7LHiAOcBVAV8ZFM63hsvMfjU4Bn4TRSzp7NKgAa+iZqUb4oB1HMCmoQ9yElwYE0QcKjQdAJaBr2iQlbROneSC9jVPXkkxefe6gmVMGQDuOXOUjCc3EMhVTY0ZTv5Zp4FvPF/eflOdJcMrFR3gF251ooxUDEAH+uLy27ayiyZJca32Opkm1DZT7S0s8c206psMdnXeYATAMuCN8goj6C2By2mM4QRLBl5pAMD5nNWRYY0MY54DB8BE9ShVf6P3HXNkPiGOSLJV6QbTsEtVEQ2ZQSJOhVuVB1hqmAz3Ig4Vhr/KSUWFI2toaNgfLVgSGQ+IYRBjjzzizrYuCXp3J07WgS5+J/49H9v5K5dBYv0NkFq0koph2EJxEAS+gTLIGhq0KAYIXRGMsMxJGQCH8f+qwLjoDZIcWFoj5gL+zmy7LYopgsQdvcNpJrvdZ4/ComOn/M/H+3uge3iscwNVBvSKFTC46jqYzKSoGIYPSj2CfqX3qBk3q+JZhgE2eypgAAAgAElEQVRglewjQFLx4uoMlmk3OeuGiq2j2VLIpv0wMZpx4n850FUxAukAMI/7bbb4RRhY5r8L8wiL58dQiGzKghWTZxtkGFtHjhvbmc1rodh7pft8xkf8SpBimV+fy7jjnDHWTWETbJUXWATBIqDVxepGsUHEKYyh8wazcyAV2hfZ6/sM/D7HtsPKaxZBsKuYbB/IIRVSLpfzGSOCyD+pUGr1fUbSSeir2P6Wf9ZsUzFDdI+4McAlJx53o8gIEYchAka8+CVMkhsZFwDpMJTHbChXuMJO+xRoYSBY9tC2ohCGCgBrwbUGAOuMng4Id4DvDDe+ZOUpCl68gXNpIq1hsTfXuU8GrTo8Cc7EJFXX8z2SAb5TpyXPK4r9QRcDHAaCZSMV5bRGwMvBrkxbh5+3AvTK/ZBpYFU6pFUe4Civb1wA3EzhC/lznRdYLI4hh2Fks1miLcxk3HA6ZFHICs8LWRaypolFyIyQZ6BjUjPu8nOrqie/DrHfKMPJ4oQ/yJIed3HHMdMcCNbpEEsPNo2AqRSrqwXByueuAcEyL7BUbGM3e/0dez3BQPDLIJEg8d8GzliplEnZpBYsINozv2PeC1kgejwlitzA9BsNKwRGFjvlEmRsCya9/pvwROho0rq9DotgeLwvPJ1t1GN+KA4OQWHhAtois4PI/jASJ0tUYIjg78exnCoDwMRJzJ+tAIBF4CsXxWi2mXiAI42AxhMdZgAbjFVnVj3jCooUusb1V2aylmKDcCKRgqIVnmUdlekd2o9S9aK4n5hFn5tkINhCKiCFjLQjHCKu0Ze4gSPmRdEA1QA8TScO2Of1lRJq8HNVDHArm0n4gwyAw8CvzP4gx/vy/cTP6b2d0gLksP4gty8myVU98lqR/k+kG0Rqs5KXuxPV6HdSnieGXODYp+1oWcvoEKYjWqUD+DmMj8cnFV5Ob6bIAPBU0U0QTqQ9uU01jDFcKXM6jBAXVt8mEk3pP9UEWOf9FQAwsgQeZi9MikPAV1H9lsYG9wSLXlz08uLfCOywCAZ6hPnW9TzVfCUjAiixMy7jhK2cxaNnWSyBrNrHpPxxNVA5LiTJTFOqmfPNiedGIJFJOg3nrPpJZEKlN6vu8aUZvJQMx0GwnKSm6lMcHmATABzHCyz3RRUGQZV0arXmXFCd1loQHKLcRdo0kU+RjyOHGQqMQRTHFX5Gk1/LjKLLxEOXbFNMqUpm1RPFtH8f0ECiXKuW1Gk/SwN2W7GEKiWaxOUB1pUGViWuhHU1CvyKnmBRB8QFxLp+iEUvosodxxlnOnsgA2Md8FR5gcNoz3gTgW/9XInQJLgGGZGo2PwwDkxyLbvOINljbALixWun++39XlU2udmJmSyHomyFyb7uew78w3QQ/628L66IUTKrUMgDwTLqxUD1yk4zsjEqHSLqAUtieNB5dlVMELr944ZBJKK90giAv85e30mmkgfBrRLn/1aMJU41djBJHmHHq/pGCozHuYaATrfUcaOBCr4PL3OpKoGsAnDVBsBcc6u+QSNGc0shmxt2BMDijaKHXh6HVKbbUyx4TP47qo3j95MDYEyAwwBskf9X9AK3OgwiLK7XBCybcgF3lpdmYfOqIXFATFtwqyFlklWqG5XkS1DIJJHAsqNV4EPfrZdTg2wqCmQIY4/KpZZpm0wkZvBSa5581vuv3A/r3zm1QAlY5D7nTBp4DL/UK3ktLTKsaSEGmCYT0700wT0bVeJXp+wD8fYhYLFV1eJ0f8fy+FhqQKzyAEcB4Cjwq6oAFwWMRSAc5Q2WAa7vLNEAYGMgqeAirvfVJu5gIPdVDdICjzA5W7LZhmsXSyLLYDeRyfv3kds3ufmTRG9GFVo+mcsf6hW+n5TsRPpBaXMlXcI/t+oe3EBytdcX/I5PWFN+WXWPIrJmNToFeAGqDvhtWnWJFeKIStcAzOq8rVG/UQFg3aRJPrYmIe4Ee2G1lDOgqB0jAmHr/MCAI4KxQOk5zxPs3hSnEbzV4imwMEAcBoZ1lc2UYFh6n/CMmgyGbcMEtCgQ3kBlVrUbQK9oxEX+X9U1hVGhRbFAiNcunkNFhWbqATZpHVA8izRXCCJCA5GgyW1zz3SuLClGJRHO2HOA5ui/AtciAUcVXZFstLTdQtBieZ4xz8EhJsSpaNLieIJr+kidWAwQpkBYTIRTvdd5flUe4CjQq/MA87/j8AKLQFhuYrljEcyqkv504F92RKn+Vo7PFsqMpSHmDVDkdQDqrNObqtLIKo9rGKBNGHqKA/ImVYUzAdYyy4TQMKv0Xvb6By8hbiQMnKfCQJ8TEmLQDPAN+01NY1x5f2SAHgaA+Q2qUdiGY3T+euRzNRQAx2kiEBYBqDzRkBWYfN/iAmAVwDYNfwjz0ig9OR0APGcaAlh60lbzvzc1dvMaCOsywJoAwGIIgQiA5fmOqSfYdtT9arYEsikg5rqjWSCsNJwKFgiT0AeVB1iu7qbz6soxwaYAWDx/WCgD9/jitaF3lwNhGfCqALAqPCEK+M60LItiYRkqoo6NmYGH4Q6MhgmwdjxHJMM1C4BFTBZVGjmkYRzwfgaAsWzgVOT5dWBMDIcIgCth6VzucBzPr7xPAuuIR1VR8/YNW+KqacCeKj5S8itoJwNR51QqlJqeE1h3jjhUaFFe3TAAL4c/yFnhYvxeRxnNUeU2kzHaSTf8YrZtAxRJbQTIPA47AC4s9zNdGIRpzDQHjWKymSifNUgYP+pEzPLpcdkidCHVcUGvKRewrJN1XuAwD3D9WME+qmJ+ZcAsgt+oWGAZAEcn51Egk+uWieEF1t3P0PHG+83vwQzJZ8tKkHeS3pqfrIt/GgLO0DCIFpdDjtsXjwcYvb/IBuEnxCk9wLqYYBX4NbmwKA9w0hO0sGQ45UUrSvvqgF/Yd3ESe0w8wLJn2lVs0cDX9PhhAJg//GaYIEzuncoD3AHAc0+pzURzk8ps17s827Zt9CypvGa6xK+mji8cQ06C4+C3rc+1TQUzwjzBHKxFJT7qQKAIgGUKtGRMoysDYBEU6wBvnKS4UIAggHkZAMvvm5k8yFSAPH7Wl5kLLJ+xx2oHADc3cReoIE0mvs3EAOsAMMc0ukQ4VRywIRh/CdykOAyJKAJATSdjdeeAin7CskK9q7VabdY91Fb0Sxf/q/MCxwmXaLZ/uoBxYy+ABgCLgxzfO7YdCd5b7q3stE6bB83WhDyJwNASEk/FAhi41XHuit8ZGz9cZvdeMy3OYZODqHsUt8kcwLgN8wKL4NW2q0pQjJ/jfmLVOLl0sq4fYe/DwLzJ57r7yV8mjo4LY7Sdjh24UPc94v6b6Aefo1exrw7riFgmigkiEV8H4MW8wF6vsReWVpyKAsB0HhHMiTHAKiA8HZBJBTfsMM+tGQVOtckYNdNZci0ivkwHfkUvcNiAaKYssvieg1RVjC8em79M+iKGP6jkQTTMndZpnRYO8MLkxVT/6CrAhQFeU0AbF/jGSYhDUCXrEV04yHT0dNUgJE4Ev6YeYBHMJpPBxDf5c12BDF0/sA/JJh0ZptXvTO9hYIx2AGinaYYBel35y7SJ+yZCWCBMALAIhEUwzJmOVF7gZCp5DNwwCIwJHgKi2g7+XhUy5fdEZIFopdeDA2DdPlEJcSZgzvQ7O4KFQQy9MAXAKvCr4wKejnFUAeC4kxIll7IT7a1pSyhEh1e40+ZwC5RlleKBVcBPpeTDJpiis8ZEVEzjd0Wuz1aKclh4RiCu2UAH2hGMPGHFMHSxtyaxwHIcMAJbLHwhA92okAdVGEYcbl9Vol9YDLCqyqD4ma2jvbzQrWMDLtiEXdzKjBCm3L4cM4m/aVU1uDheYC8OGBvSomEoxEn2mmTHcFQTykAoBILkZoGmTsBaQZIfl5UhLmNFq5oMgBGc2priIc1cV5xrbgDnQl+ivPjNeGw6rdM6LVqO4iTB+YAy5pyThzOZxPHGSXZTHUvXN1V4RpRnPGy5XgUOZa+oaXKYXTWrRibHAcuhDiY8wCYAOJyf2A412s3Yt3YVrum0udtkedUBYJ3XVQdSVeGUUeGc8viVC2EYeqTPeQD4CPv9EHtVZTnSXQP1LowLOAxkyp5VlbDZ9vTAlazwdFzFpgl8rQTmOAMRgbBcFS4UpIbwAZsOLuMB79HF6YyfzovVSYjrtE4z96zEBSCqBNQoz6/q+zBgq+L5lSvDRQFjcf+EAXew2D+ZI5hv1bbCHBDrPMEy8JRjg3UgVwS7+vMmIsGv6lyyB1j8W7k8a8gCkQzhCVYmUzpzU69HsT902CHiA2DdJFfEMWGg15QxIgwAJyWPrAq3RB1f8AK/yl572eskw1pF0Qssy5F8rpTTJLgyKTYx3RhgUUlExUSJQC+uYo3joeXV4Ph7E6DaTByw/r5FU6HxohzyQHVsdVU9v9/4h8gVqCMzFy1xmNWWvlMpK5nGSle20b+2DsF6pxk2bcnUFlDIiaEQpiBZnmCGgUcTgKkDsyoArDJ4YQBYVUJZ/ltVm0X2FMv3J6pyXjMOEr2uNq8Ip/o8DtNDWLhDGGhXhXmYerpVq7DK6oLSsjc+I5kmUKd3UXbiUAryqpVxGtoEWZ7E6qRRALhh8JnYprnYmpkhK+6XhfSNPjVtfMehCQAWGSBkXGOSAGcSXiEAYGx72HEwHngQPFq0KNnz93HvnRPwqLYK8NoNBS1sI2DIO63i/I3yStsxktkaCm4EKHYawa4fk1sOep/FCm1iH5JSUHYzABjPmWxyoKqS4FSGKrZnQGTt15GDSmntpXK5wcthOgmKY/g6rdNUHjVTcIKfJdPRsZtiTHDkvp4H1FKAkWbYHXQeXx3I5fvrwiVUQBk/o5CqFgFUE2Mkg1ddLC9+xsGqaZiCivEhDIy6v4k56ZL6UfVKGZe04zMRCtqb4xZurfyEHZN/30zy3nRlWvXMfLmVbdPFAoajrsGzy9zWqu4XPTM+Xms1ZUVKW6FPOMc4YpGGGgoSmEXsYXt9sIW+gACKOUjGrUrHcKBck0IjROAtOCFfZFjtEOvXSfbZBHtf4/1RJtJK4yZVpWpttRBwq0lACEl2U4FeDjIDJYdDQht0x47i9Q0DtiLAFUGmqg+kvEqlwHnDim1wEMuPl81kjGfw8sxJBYTb1ZpeFgsTSPYdn6FX2T2cKE4ywSy5iiqZUhon/DzKUAWFxN2/s+1sVduoMcPBibxvoVAwAsGxgKsEfuOCXp1HthngrPMMizGBqAOLU1NM/5X9+2UKNk1B53Q8vNVqxbAPGttlEHSdZA9L3C+peXhhVdqUIC6V9vuP75sBo6kmY3xVHmZTvSvqbdX+8nFMvNm6fcRj8fPycVjS2I5UIc+Ow2zoNMbdXGn+iqoA7vEz2dbKz43rvCgqv7Dn5o9xtPHCKi5fdbMUoJU78cQnU/GwDm5VnmUdiwTvQ7UOupEG7QV2HE6LNsmPmUw0yj9W8U0JpyvjxAAvtpbgStqCqtAhVIa6LNPGjNSEQglJN5LJfMr38obQeGmqtUXFK5t4sW0DkByliMVCGfheDotIZzM0iCbZgCwWi6GZuiKIDgPCYV7wKDAf5kFqafOMhgiAcSKRZfdj8eJFfoEP0YOu82KbXnendVrs+Zti7OFn2WyW3o+Nj4FdqbpyG4JcVUv7quVoOSYzbqljHaiVwxn4exPmB5132K5UCABjW9DXS9+FyWrY8VWhFspwJg0oNaFLi/JW6qjSwkIl4tKZmYJSnROlATwbLGk3HNuytHqU61tdgSXh2Q6z/bDK1hiCCfY5uvEYPKADoVcnz17d7PN+HB4mujtsFVNls8KW5+WqtWRr02lIs+eFwGeiOKH2+l4kIREc/PrhId51Ifgv0aS1bmv1kzszloeo35gyPUTF+qqOLwNV3XE8uTsGLi0aMkMMc6yd0JQVV/2d6u3reyfbduHg9gZ5FxPSfm/Q41Q1wwZf2nuPr5Sw5a+kYpu07VrSe8+nvNw9mqrD4sDfKdt9wCnp86S0jc20oIt9VlHCxVH4NYkNAh9MJpuDwcEBOHLosA9qw7wEutiZKCq02kwXuDABwJiMwhTyxMQETQAW9PfDDZtuhGXLlpHyL5crkfcDqwuKHpbpJld2WqepAJY4BjOZNORzOTh85Ajs37uPDAp6hadltBRLjZxH19Qum05cw4Cvo0hmEwGq+P3Y+Dh5fC9btRKuXX8tFLq6SP4qlXKgtH0ikWxwZvDvEwkVeX78Cbio40WjFkf3x2WSCJ08KaqXhoW7qaqK6idmzfdPRZEmfs71qQjC2avIniuChuPgFhc4w/YbYvtMoHfNplazPBuM2CDr4YMe9upjL0RaS9nrEnwvyhM/XxxZNNHzshMOz5PJZJhNKcMzT/+YAUHXT5zNZS9KnRWIjWZKhNtaBMDoAUYAfCOztVdccQXdk7D7ifeOf580iH3n9jgu00jc/WPGKFc98HsIXFq0YoCrWJoYWrrkvXw+/72OSWx9O3DggIMgEAFqNmQAqTy/cUsu62b4YXHAvqfKas0s2fJmhmnygBdhcGgQugrdsGXrTXDDDTd8il07ehUQAfMtf1WFLX/Ziq3/sizrgOM4a9n2MNtewbbH2HYl255g22Vse4ZtF7HtANv2se0I23ax7QTbZtm2xLYptq12Rmqnie273/mugwbFKClKWBJUGi1HHXMXB9CK4QsqEKuTefl7VTyw/Bl6gCcmJ+GylSvhtjtuhxUrln+K9b8jt502q9vBgy86w8PDFL7TVchfnBepSEZHAIzhH4Ps2nGSt3HjFrj99ts/xfROmcltQGbZZxX2WVtllk10+9hkbs7JbIetug1t3969zpHDRyhAvZDPN8xiw4BwVFhDmBfElviAjUBwM0tFirRwXKpBAFyulOHcufMklHe84Q7Yvn17Z4x12pxoDz30kLPv+b30nrzAYgKoSnkKGfXybiI1GCbYxglFstrA6xrGEoHek0q5AidPn4Sli5fA3W96E6xdu6Yjt50269vhw0ecRx9+GEbHxskTmvNWb+SY2YuxYRjEuXPnKAxk601b4Sff9JPX5fP5A51REa91auK2QSj37t3HhHLMT44zBcDKBxSxPBA3FIIoZywnvA5r5Khp/C3OSjkAxnbT1ptg06ZN13VGRKfNFQC8e/ePKBSg0N0FqXQ6fJLoTQRVrEzc9uIKDW5N+Hf533GKWbSqlUslOHv+HCxcsBBu2X5rBwB32pyxtT+4/344dea0D4BVMbMXRXlooR45gt9MOgOjIyMEgG/ceAPcetv2FzoAuAOCL3g7evSo89yzz7rxhPl8IK6VA175FUsOYhhG2YiSMW4DQTp6gHlWLgJgzHzesmkTbN26tSOUnTYn2q5duwgAY+vt6abxTPJTq3NXx5poqhLmBICr+lzH1tAyOZXOgZNrTCgiuR0YYBP2LGy7eRtOXDsAuNNmfTt+/Liza+dOOH32LPT19Poe4IsXqVk+65LtODA2NgaDw0Owbu06uPnWW2DxokUbOqOiA4IvuFA+v+c5GJ+YgP6+PsgrhJJnVMrb6Ta5XLNyn1YVmZBm1egBRqEcHRmD4uQkXL/hOiaUt0Jvb29HKDtt1rc9e/YwY/okTd4W9veT95Zz5OoAMH6mqxLHPcCzvfE8guL4BP29desW2LhxY2flptNmfTt79qzz5M5d8PIrL8OShQuht6/PnXyqki/nWkgEt68K7zVOztHeTnk5NytXroRbGAC+9NJLOxPXDgi+sO3UqVPOgX374fzgAHR3dUE6JAxCBMCmFeLQA6zzApswWTQNgIUlGJWgEjehXYWRoWGYKI7D+muugdvfcAcsWNDfEcpOm/UNE2p273oShkaGKRY2m8sFJpQi0CXgy17IhylGA+lKGIt/i5/pPL8zqvQxBpjpHvQmYfjHtq03wZabbuqs3HTarG+jo6MHdjz+BOx/4QB0FbrCAbBKQOdwQ2cTsi5hqCWGLt111xth9erVHVvbAcEXtp0fGDiwf98+eO3Ecejv7SOu0TDQik0XChGVFKfa369YJyXFtWRGKlfd4UrF+8ylZykRAF61chX8xN0/AUuXLu0IZafN+nbs2DFnx86dFE+4fOlSyKTTQfYFK9EQ+h5GPyoC21YAXZRr+aX6TvxM9518XNQTnMLwqiuvgFu3b4fu7u4LunJz9uzZ/8Zev2igb60zp09b4+PjzehqPE8c5wb9ppk2NDQMrJ/tAoKxruNiaaVyecOuHTvX7zuwn9nZHCxYuICA4UVRICOCRJxCDkslL9coywDwnZ3Y/Q4IvvBtcnJyw4F9+9a//vpJAsA8BMLjYdQCYB2g5cA3DNByT5VJOeWm8gFEYQw5ACfoRqFELxoC4BUrVnSEstPmwsTV2bljJ5x8/QQs7F9AvKJ80YPYHLyENhHs6hxKHOxyvl2ThLYwoCoWOJBfqt+In6m+kxteG/cmXbJiBbzhjXchAL6gcrtr1653v/1t79h95513Pfu9e7+3SrffM888Az/7vg8422+73fnud74b9xzw0z/zPmDnwdC1yP2/8vdfhhs23ggf/PkPEqCN0xD8fvpTvwM33bQN/uWb32rpvcK+fPpTnwJ2r+Ab//T1eSW3z/z4x/uf37uXKu0tWbSoXjntYgDAqiQ+IRFOpEK7+ZZtcP3GjR1b2wHBF77t2bNn/2uvvkaGhVebCmtxE+FULelV/tFxA2MLo0aLHhFWIxDmQup9jpmpaEjRi9aVzxOl0hVXXNERyk6b9W18fPzAzsefgGOvvgq5bM5lgmBGhhJHnVpgyMdpsvc3LruDDGZ1nuCaYrIc9hJ/j4lwbOLuTlyXLYM77nwDJtRccLldsGDh0ddee23PiwcPHt6x44njKi+n4zhw//0/gCcef4z+ZsA91jkGzg/AAQag2HmokEBUw3ARTHCuVOKDLMwLOXN2AM6fOw9nzpxp6b3CoiX7XngR2L1i55g/3mCkHX2K2Ftsit1H9hYfAM919gfZ5oqfgxsGwZPON2/exCZXN3Vi9zsg+MK3p59+2nnl5VeoIlBXV5cri54HWFclpVWJcGFNNr6qTPXYAirMVhEAI6XSufPnKCYLDWlnWabT5kLDlZsdjz+x/sVDh8ij0tvT42ZbV+1APoro+VWFOJiEOoR9L670hIUu6MCyDJRVx+F/8/PgpHlqqkRMELhyc/ttt82aieuSpUteeutb3oxosbhz126lpxbjl3ft3AVTpUlYfdUauPmWm2NPMtBRga9cLhe5/1ve+hZ48KEH4C+/8BfQ0xMPcFM1s1R7Yr7R3qQTqXklt0iFtuOJHVTIBWU2y59fM7PV2QyEZR3CdBO+zrKJVKk0BZs3bWbj/pZO7H6LW6pzC+I3rAa39/m9BHq7vES4WhMhELzFrRAXR67suDpCV3sdyzQygUQATB5gBoC337YdtmzZ0gHAnTYnGq7c4HIqNm5MKZ7QK53O44BlECt7d0VgLAMtuYz6jNjPkPPw71BuMaMcr/vGzTfCunVrZo03qaenZ/Lfv+99cM93vgvPP/ccez1Pnl9LqGb59NNPw4uHXoRcNg933nUHLFmyxJvkO/DUU0/B/fffD6+//jr7PgubN28hELtixQr/91gWO5PNwNjoGJw8eZLCFHbs2EHPH/e/+yfvhlWr6pEYWIFsJwNey5Yvh8uvuDzQXwzLuPfee/3z3XjjJgoHw3K1jY6PdOBvjGV+5OFH4PHHH6OYbATMd915F7zx7rsxodjofmXzLgg0LQWN9wjzVn7wgwfglVeO0mc33rAJ3vr2twauWdz/8cceg4cefhhOnz5N13j7bbfDm97ylkAfmR2Er3/963Dd+g2w4frr4Lk9z8Fj7Lq6mW24/fbb4W3veDvk89Or4Ia0ow899JDPY80dTiS3EcVs5nKzvDLayASBrEuYdL5t29YO61IHBM+OWSlyAVcrFRJIMqSViu8BIFCrYYWQwbBJXG8UcI5KhqOwiTjsEJoZaTJp0XWiJwkVOxbD6CzLdNpcaQy4OE889jgtp2I8YUpIhAuwQAjxvfy9DIjl0AQV6AyTS1nm7RYltIrn5KEQ/P0YA1/JZAo2brwerr322hcSieSs8SZhUSGMdV2/YQPsfnIX7P7Rbvipn/6pACj7nd/+bTh54iSsXbcW3vjGu3xA+f9+8X/Dl7/6D/Q73hAo/+KH/wP86Ec/gptvdj3G1RoCYRcEf+Yzf8omRM/Ay0ddQNjb2wcf+9hHKJYXQS+2xx99DD7+iU+wSf5NDPy92T82guff+M3fgkcfejBwvp/+6fdS3PH27du1K4EImj//+b+AL33pS/65sf3TP30DPvjBn0e2EvZsrmnpvcUkun/++jfg77/8Ffj+978X6PP7d78Pi8TA3QyA84b34K//6q/h//zVXzGZ+XGgj+97389gWALGo7ogeN9++IP//gdw1erVcM26a2Av++7ECdeLf893vwsHDx3C5MKFbDIy2EzfkXb0cSazJ07UY/d9ABxir+Zs8wA95ykvM3uLoUtXXXYZUaGxsdlxOHVA8IVtmFGOcUkYK8ZmZLQ0JRu7ON5gbgx18b06L7ApAJ6uMPr99GqUY2lKXJa5edvNnWIYnTZnGq7cPPCDH8LI2CiFAvjV4HBsY+V4jWmRQ4t0JYejZFEMfTABxVHAOCwfQD4HnhsTWJEK7boN62HT5s0XnAlC1fr7++BNb7obnnt2Dzz7zB54/vnn/e8w/2D3089QKAQmBV133XUEEB564EH4xCd+gzy87/y374bbt98Cw8ND8O17vgNfZOD4yJFX0GmB4VqQ8m4LHuNb3/wGAxXb4Rd+4efh6JGX4J//+VvwVwz4rbl6TV1fs2ePQLGnv+75fOzRR+EDH/gFAnpvetNbySN95vQpAohf+epXYYz1E4FuodAlAHj3OWEs9mc/+1n4kz/6DPT09sDPf+ADsJk9ixdePMiA6MPwp3/6P8muILCPG++sH3c23Pf9++HXf+OT1Iq6un8AABH1SURBVOc73nAnvOPtb4Pz58/Bv/zrt+Fv//ZvAaub8nuE+3/hL78In/70/83A8wi8+z3vgTvvuAOOvHSE7tH/+l9/CWfODRBjxmI2kcRE8CVLlhKgxxfek1/+j78Mhw4epP0xga+3p2eQXdMqdk3H4/QdWZcef+RROHT4EAFgpEJDG2Q7zkWnn5B6kY+TpKeMikxmcaUAc25uuW17hwqtA4IvfMNZKS734NLEAqYYE55B5EA1DPzqOIGb8QDZUjyhaHxVyTgUMhVHfKTgSJ6ZiqT6SIV27TXXUoWazrJMp82VievDDGRgdaUlDAAn0+54TiqEQhfmoGtc/nSsDar3Oi8w/1zUCeK+8qqR/J0OZCMAnihOwmWrVsJNN29DuZ2VxhRDHx744Q/hH/7hH+HA/gO0tM5DIp758Y8pqQ3bdgZee3p6GMB9Cf6fv/wCgdrf/2+/B7/yn3/FXyr/pV/+Zbj77p+EBx64n35L90Z4pu/9qZ+Bz3/+z7DIANGgFafKBIx/+ODDdcPo7Y/xt10M7KFH9ec+8EECkwi4P/uZP4ZrrllHen/rTVsJaB5/7TiFUfQxwJaVYoL37NkDX/7yVwiw//mf/xn87M/9rP/d/T94AD72kY/A975/H7zr3e+OVtHVitE9PXXqNHzrW9+iPt/F7sc//cNXKCES21vf9jb4xMd/ne71V7/6FX//f/7mtwgAf+hDH4K/+dLf+Mfavv02+PjHPwGPPPQQ3Osxc2TzdbD+0Y99FD7zmc/SZAYnKDjRRJD9j1/7J6xEOBlnLDBbueGRhx9ej55kzgVM4JfZJKdWvSjDH2SZRQCM7VYGgDds2NABwG1sncQ4g4YVavYfOAgDbAaMMXUyACajhMkQCuMZVhQjqfDa+O81oDopJMSY8Aj7pZLlJIL/v71rDa6qOqOfCQ+DIS+RkJQE8iJweSSBPEAlJCi0BAvWB2rHDkUtrZ220x+iOFPLYywFqVakP2rV/qzjjI+OIlADkoCKQBKNBCQChpcgiZDkkkDIg3Sv7559su/JOeee8BCOnG8mk+Tec889r7332muvb31WCQUyK0gr0cizUgGAwaLBC7jwGsko98KLUNHY2LSnqqKSjgoQoC+niufeDgCbAd2+/G9sq8YfOwBs1TeowFj+bZxAq/uXf0MHDHYxLi6Wbpt6+zXfbgsmo/rVcAa2AI0yUNIaMgZIEyCHADDe/9VX9OlHHzNb23a+jbZ/8gmte28dlW4qo91f7KZYcb8RsK+UoBauEGAuH398IQ3RNMXx8UNp/Hiftu2xoP6cQXD/cE6kaxPA5POqSn7tsQXzoanWt7tv3v0CwK6jl9auofSMDE7i6wH3gXuyZUsZyzmG3DJE9KVnWcf85pv/pe3bt9PJE8d79MrHvgk9aBt0xlaxu/oLKt+6lc/5j2KSEBMXp793+9SpNO+BeXytD31dx69BAw3XiQkTsmjBIwuC9oVzLJxWRA0N9bRfk3KEhwWeQex/9qwSAf4H688fJiV4/eCBA/Tt8ROtfXkOKisra6qrd7MbAryAmeCRY6hbAbCWUxM0/uI1jQWW1owITFoRcILwqjhe+fCY4BDh9/u7P6uqotPfNdCgiAi9GpwRpHbZJLA5YYIvh7RBTeDphXENLg+mnYlqhSZ+QwaBpUgA4IT4YTRj5gyvRKMXrgg4QZRvKWM2SVqhAfxe0JKtrKQNqpbWCdC1ArGql7fxt93nQr2mAl2799vZWL+FYqOjGPC4od2C4S0qKmQbtC/31TLbi9i8uYzBWnHxNMrJyZH9Mr8GEAyJAUBk+/l2/h14v1kDFMFFNeAOkZSUTOGaUw/Ax02DIkMCTgBbWJ4NH55EwxITgnTkAMm5ubk9TB4mH52B8UC6RDQ1BmSxkA08/dQi7R6168eNc4E22UkREMkEd4ZImsY1wjEDeOdPLqD+CjuN4jCpKSn8nY3+wHeC5AHILZhyq36d1e0zR4/i632muSnoXLOysyl55Aj9mmBi4PP56OYhNwuAfQirp46ZYFRx3FRayvcN0iW4EXXgPN3M/mrjqeppLK+VDoC1e3P6dKPAEp2UNWECith4kkMPBF/dgKcoxP7Hj5/ggRAaKCcMrBqhimP0JdRBVB5DUJUrLZGnVwNUgbBdZ6JUq4EMAgAYGeXIygWTlJSU5AFgL1wRO3fs0J0gIF+SySZWj79VwQk70GuX2BoKuFq164sJ4+fhcdvY7BfgLoIm5uW6xsIQDC90t5BEgEFEAvJBARon5kxisFZYOE23NwP4QgDgFRdNo5jYGAEkz1PbWQGMxXmnpabRINFfT8qdREuWLGHACLDJgG5AfwpTkoW7TCqOGUmN9vYOBqpxcXGcYKcCGAa5TQHQDTmAuiIonycsb+PzSCK7447p7KDQcraVjxfHnpw8koYI0DjGNybkdXLKBOM5YKAtjldKRYyB9/uF3xB0TQeJ6ye3V88R4BvngLakEkHRMbHivgS7QKg2dE6fbUgON7y/Xi8LjKRzAGBXF8SwcK9QrUt5WBbXqKmxMSA5zBwtJiJTrkntvgeCrzMmSQBg3+FDh/l/JCvgQZVOEL0GPdHxdXVdmcaqDnJG8KwCX0uDfjvWVwXK2v+sAxbnCQAMliS/IN/TJXnhmoATxKbSTbxMzmwSSpmLduNU8mAEulbg9nIB2fDLZKUGmVYH2u3pRho4cABl5WSD0XNVu0Xi3rTCQtaTvv7GG7z0DlYXSVeZo0frtmmDNOstALff/PZxAXZzma0FMAMAa25uhh5cgOHUIMAmgZ5jDKOxrhERNzILCg2xkQQ5fPgwLV+2nLdZ9OSTFB0do2uC5bYodYtIHplCTzyxiFJTU8R9Os33DAz4V/v2cb5JSkqK42MbqIFxq0BxFDDNLWdaWBYCDbMaeA2gNlZL/sOkAedY39DA3rTQD0sAjLHt60NHAmNh1OCg/Zz45hi1tQWTvXB0wPciCdBJISkA4M2bNtOx49+wdl8H4Z3u1QCz1CHMAhgrbR/9Ep5drLimiucDOuDY2BhvvP2ewtMEW8SB/ftrDuw/wJ0YyyBEh3LF3BiMbcQEzF5xRwglAIAbm5p4GTkvbxJl5+R4uiQvXBGwMNzyYRkDYLBJspS5OkG0S1oLD6Hxtfq/L0BW5hSEOU3As9kuaHVInCPYpH7hYaLNMgB2XbsFIITHLPSkG9dvZDsxxMyZd9KwYfH6diNSRrI0Acv3cOzpaG+nm+Pi2D8Y7PHq556jPy9dTkdMCm8A0IVp+kzVi9hIaiBQMQ7bA9hCj4zvQ+U6gBYAxFMCyL7y6msM2t99dx2d8fupf/8ebqlLk0Xk5eczm33kUB0n64UJYIdjxTHv3LGDnl2xkl7+58s6o+wEmIeKDHG8kCpAEvHv115lz18Z0CK/+14gwc3nCxCOY8b6KHF4Iichvv6f11kHLWPD+g1UsWsnn8M4Xw9BCYCL5Lr14n2phcY1wX3D9yYnJ9Mt8UNtj/Pkt99yMYza2n0UNTiabtTabGdXpyv7IFX7CyAclI9jAoDliuuI5BFcfMpbcf1+w2OCTQIG3ZW7AlnFkWJGikzXDpuCFxejB5YaQSOo7WtxDEflWQ1a38DI2rs8o9wWABjLh5MnF4Bh2TtwwABPl+TFNR9wgggspzazhh3LqbJ92dmbybZolqh2OVhatlIE8NJ+yzYufxvfdzIpVo9Pfg56UlihZWWNBwB2pZ4QoBRJcdnZE9ndARpaAOKcvAIGyDLS0tNpwSO/pNWr/kZLli5jFq2kpEQ8A8do7do1rCvG5zq0lTsJRgP9dXCfa6atPa+VVu640MlSBhSJWLVyFbPLa15cw8zuHXdOp/ItZfSPl9Yyg4rjGZ6UzGBQaoLlsje8hmfM/DG7UPzpmWforLhXY8aNpX1f7qO/rFjB51lSMrtPq4kVVZUsH0E0NTYFJWxjFSAhMZHuuXsu7dqxky3YBtwYQT8Rx4H3X1zzEl8jJMHhPBD5BQUs1XjlX6/Qir+uZGYYwNjf7Kdly5bzMcJZA0ylvKYAwQ3n6/maIPlwptg/rskLz/+dtymZPUtMHjItz8Hv9+/ZtnUb1ezdS/FD4+mmqKhgAOwWFhhJblLnq8k3OCldBb1KToI8LYzfkH9ED46iW6+hKo4eCL6OA8syyCiXXsBo5AxWL1LqEKpaXF81xmZLt8aKVrLdoVHq2iOtkXaHKJyBzh8s2vix45hF8HRJXril3ZZ+UEpHjh6hxMQfMQBW25ZZNTc7ZvdSQK4RzMrX5LZWIFfdTv3buJ26f7kNSiKjz8rMHEU5kya5ut2mpaUJID+WQTDAJRK1fJlpQawtfGpRXvmzz3fT1rIttHTJUv6RAe3t6lWrkF0fAGxSliD68/DwMEMf3ZtZ7dL6bVikSUb00V89RrW1tfTWW2/TokVP6NviGFExbv78+QyWDyqFMM53duvHC8BaX3+SwedjCxcGfR88fBc//VTIYhnyvoORBVjFj1nA4uz5F16g+x+YR1VVVezbu+LZZ/lHvUa/+8Pv9SQ4yCtQ8GP/wTouBgKrOTXgzvHrhY/qVeZUYgjOFosXL+YfGfAZfvjhX/C5mwUkh+L7fJ9XV1NUZKRuheZGDXDQWNsd/LrKRUkAjDEbk4jW1hb2AkbFQrdo9z0Q/AMOLMtUCAAMJhQ6KXSYaOh2ANhs5q4CX6tKcWZA2M4WzSqRTgJgyXTI3DcjEJYlYY3fwNXgxOCCzgclGrEsMypjFN12+22eFZoXrojvTp3q/rB0Ex2sq2M2aZCWlGNWpAKyJrO21FcAbLRJNAO5doDXbF8q+DW+ZgWGcW5gFZv9fvYCRmlVt7dbkA/btm2jU6dOU+u5Nrr37rlBLLAMgDEAYfjW7qqoIP+ZVnHvB9DI1BSaO3cuOxTIsr3DEobRnDl38d/GfWHCP+/Bh2jC+HG0ffvH/NrYcWNpzs/uJt+YTH17gDkUiphcUMAll+EvHDX4JgaR99x7D/sOI6LF2DFF3Af0yRmpPSWXpxUVccW1t995h/Z+Wcu6YTDGeWLSMmfuHC5YESqgdy4uLmZrt07Nj9cYuA65+VOoo6Nd90KeMWMGbfv4I07EQ1GPlBEjaPZP7wqqFodAxTuA+PXvr6ddO3fyazhPOEPcJ87R6BoBBwoA+Id//hCPmx998inFRkXShKxseuDBeaZlmWWgjHmFtuKK8bYXADbkqrgFDOvt+gZz8Is229HewW0WSZlTC6fCWs+THF6te+ZdAr0xd6M+PQzP4QWMpSApVzDV6NoAY7sCGSoQvuCwSpxpNTknRTLk+3KGalJrXWb6Sl1SQkICzZo1y9MleeGKgINLeVk5s0lgVMAmGRlgu6ITRjBqbH92zKwRuF7JUI9LB9waAEZJ5JjYWCoqLvpBLacC4KKfhSNDlLZMbtF3swQB0gdoeUFeDB3aW4eKam4ICVbVzyORTv0cXkPiWoQAnbKUsnF7HBu+LzJyMDPAatTX17OMwuzYAaTPacUQEGaftwvsWyb4qRM8+czjuCLFGKYysJDK4JixDd7HuaKvtwqUsW5pOaPvD+Oh8Zq+JyYfYHon5uXRcytXUHp6hviOJstrYgDA3ZBNtJ47p5cxdy0L3H2DPs5KsslsPIYNGibhINakFRq8gGGF5q24Xr3wmGDqsUKrP1nPSXAqADZjfXT2yMQRIhTwVVknq5Kr6mAcykrNThOs2tv0mp5SgAVGx9OKTl0rKQtmwAPAXrghUFmqvLzcV1NTw3pEAEG0LQwyTkoUmwFcKzB7MSDXSUnlPu9TY5JwHi1i4gortOioH6ae0I5FVMMOIKthBL92n7fbp5PvMwPhMqzkAU7Dbt9W0ddSzE5AuRyjsIKIZ9IpkEfOzQcb/8cAGIQT3Ftcb4VGZAmAud/pF673B36eQHXySkVuXr4nObzKcd27Q0CXtGfPHl/d13U8sMgO7lIGLskC9+vnfI5hXFa9JNbITPZrWJsBAO4vvgsdGAAwMumLpk/3apR74Zqorq6uQVUsJDZhOTXcxOvXjvW9FICrAt2L/bxZuWUnn8E5gQkEmwQv4Nz8XE9P6MX3HngGYV93VkzGnFrPHT16tKq8rJzqv2vglRtYofUCwBe63XMRUMq52x4rSAkEokkAYID/jPR0zwrtGon/AxOgeGtlKNhEAAAAAElFTkSuQmCC;" vertex="1" parent="1">
          <mxGeometry x="178" y="400" width="495" height="140.43" as="geometry" />
        </mxCell>
        <mxCell id="t8Q2t27Iab3_0A_IBycy-3" value="" style="shape=image;verticalLabelPosition=bottom;labelBackgroundColor=default;verticalAlign=top;aspect=fixed;imageAspect=0;image=data:image/png,iVBORw0KGgoAAAANSUhEUgAAAO0AAACVCAYAAAC0PH0jAAABbmlDQ1BpY2MAACiRdZE9S8NQFIaftlbFDzroICLSQcXBgiiIo9ahS5FSFay6tGnaCmkakhYproKLg+Aguvg1+A90FVwVBEERRByd/VpE4rmNUBG94eY8vPe+h5M34I8bWtFpmICiWbaTsWh4PrUQbnoiSCMBBuhNa441mUjE+Xe93+BT9Tqiev1/78/VmtUdDXzNwmOaZZeFZRriK2VL8YZwp1ZIZ4X3hYdsGVD4QukZjx8V5z1+VWzPJqfAr3qG8z8484O1gl0UHhTuKxoV7Xse9SVtujk3I7Vbdg8OSWJECZOhwjIGZSJSTcnsb99wzTdNSTyavC2q2OLIUxDvkKgV6apLzYmuy2NQVbn/ztPJjY543duiEHxw3Zd+aNqCz03X/Thw3c9DCNzDmVn3lySn8TfRN+ta3x6E1uDkvK5ltuF0HbrurLSdrkkB2f5cDp6PoT0FHVfQsuhl9X3O0S3MrsovuoSdXRiQ+6GlL+crZ/6Z35noAAAACXBIWXMAAAsSAAALEgHS3X78AAAgAElEQVR42uy9eXRc53UneGsHUNgK+76DBMGdFCmJokRql+Uljh07sRNbSTtxJ3bOjNM95/Rk+o/pbZw+PX3Sp8+ZziST8RInY8vyqsV2tFikFpOixBUEwQXERuxbASgAtS9zf/e97+HVQxUAUpJF0Xg8xSpUvXr1vfe+372/u3422tw2t83tfd1SqdSq92w22y0fz7Z5STe3ze3DBVz75uXc3Da32wfIm5p2c9vcPgQgvVmNe0eAdnBwMNV77RqFwxGy2+0Uj8UokUiQw+Ew9rH+/eve8PuJlJ3yct2Uk5tjvJ/k9+NJong0Iq+t38GY7aZxW/e5nbeNXPOEfj7Z7hXO3eV0UsruIKfOCxNxvpbJJDn4Xjuc2n7RaEzb3+nSrlM8ZhwP86GuoZ7a29upsLDQdrsB92ZB67wTQHvh3Hn69ne+QxMTk1Ti88mNM9+022XDuJwOG09Il/EeJp2HHxFMRDwSMYonUjL+WCxBLpfDmIjWyfhh2W7lfuA7Hreb8nLc5HS5BHjBcJQi0Wja+8uhsFw3dS0FwJEwP6LyGtdwcSlATzzxGD311FO3rQa+GeDeEaCdmpqmrq4uGhsZowN3H6SdOzopFo9TOBh6X34Pk0VJ8I1uOXm58jzKYxwZ6ZfXeV4vg9JFpaUl5CsuplxdA2Ps8Vj8po5/p2wQXl6+Dvn5Xg280SkKLAQoFpij0bmEXK+KikoDsFPT05Tg64RrWOgM0/WxBfke/sZ25WoX9ff10baOrYY2/iA3gPNWbdk7CrRFRYU86X0iXe87dA998ak/FHo1MzOdRrUyUbFMlCxhoaDr0Wzz/tZ91XtFRUVCbY+99At64cXj8v7u3du1m8D0r7rMR23NjVTZ2ML02UuRWJJCrDGSUdYarF2cOk3GsRJZKTJuZ3zVu9koaqbjrHdt1jrGytic/DrFr23Gs3Vcq8/DSW63XZgIzh/Xam7iBo0N9VDf8AAtL5dRdaKQmuqqyJufT3N+P036F6i1Npe8XjdfmzL+zgwVFuVQS/s+uu/ogzQ9NUt/9/d/TzPTMyIE3G7XbW3vblTb3hGgxaSP6Vopv6CQamtryJOTwxPDzhMj+YHbdZgsNTU1MkZMuHAkRAX8/LEd9eSpmqC+t/PoRP8QT8wl2s3fae7cQ7VVpeT25PB3ohQMBg0tgXPSjpu8re/JWtfefA4Odw65Hdo9zMnJlc9Cc1N09eoVunjpBM3Pzcm+JaVN5C0qldfLS4tyXVypOQGsZuvPyPPOvQ/QwUP307bOTurvH1iZIw7nB+rT2Ii23Shw7wjQxplOunTKGmHtFOJJjgkRXF7ObjOtcQPfS2dPHI4mnmCBhQV5HYw7BLyFFKD6bQFq2tVMFb5JGvxZii73DlLv4Ci1d1+i3Tu2U8e2beQpKiPWcxR3pSjF5xUJJzKOX40Zv+G8TSZntmuNc8A4UzYn5fJzTmGBvO/3z9L8eD+9c/YSXbl0Ut7L9TULC4GwC0YTNDE1RaGlJcpxBASwy8tReS4obKLG1q3U0tpCjU1N/KN2mp6bF/+Adl3iazCUDxdw7xhNq7YYU8lQOCyTIhyJUDKZFI/yWt9Jm/zJZMbXa+2b6fh2W4qSKZvsk2TKhzFh0sRNE2dqLkg8vRi4lfQ5fn67y0NdV65S7+Uumhy7RgM3umhn6x7yNXVQXqGPInl5FFtYUj9OtlRcG0NKO6b6vWiWMWUFlWlffD/ucJEzETM+i9oc5Fa/keWaqGNYP5f3Tba5zeHm4cbk/VyPS7RfZGGG7fxhgwpPT/opmCqiqqoqKmGzx8b3CnR4NrBMttg0A1Y7FgBbW1dJ1dWdVF7bSmUMbjdT62UW1lH+zXhoWej2embCh82+vSNAa0hwBim8jmvdHDWpsoEZ7wnQkskNT/Yo7+q2HEoBSJ+pJprm0FlBkvoHZ1jL5lFlVa48Pl5FdHBXE4N3q4D3zKlL1Hulj+65az+1b9tLeaX1lJ+XI+BPJhNMmTWWsTIem0xS/DaEBn53I+dhvTZOHVTqPSePNbmB7+I76vplEnzqmHl5XgEXJaKiWXsvn5PzDS4tGdq1qaKSPB4PLQdDNDk1KmA165+CwhqqrGum9i3tVFlZJTQ7vBygwNwMRZlmF7L2drndaZ76D8u2nra9o0CLm+yw21YBMJM2wd9eb35GJ1Q4HDLAYJ2I1kmpXUT8bTc0rAKt+k3zbzttbMcxaEeXYoa2VRuAm9/5Gfr43hIqfP5V+uELL1HvMLynv6LZpXlqbthlOKpcLjcf1yEUM8WT3ywg7B9AJFKddyZBqK53Tk6OjBnXOhiYE0cT7FYIpsBCmHJLaqm5rpry8wtYIEVofsZPgVBMAItN2a+gwq0dO5gKtwo4w8xicLxFBj2ODdtYaVYVBsrmePswats7CrRyY5KptJtjpW0KhG6WwgqsVk+m2IT8udK4mSifVYOkgdWWWjVp1fHdjhS57E62U2P09rmAvkeZsW9+CdO+iJ+1RykduOsuGhkfp+HBQXrz5Tept76P2jtaDfAWMGXOz4ONbJeJC0EjmtFC/dV4sz1bz8XMRjZ6DE1FgAGsnLMahwbYXHHIwc8wPax5haFdJ0ZnKL+8gTr3N5E3L5dioUWam5ulxcCYNqktYK1u3EJtbU1UUVEhvoEptnHhXVcgxW+p54160T9s2vaOAy00rbo5mDi4scpJJaDh107WUoHAAl3uuSxOK3iaEaCPx2MMlkpqbKoXbYbJkIleCuj5OHCwwAGkHC14DVvKoN6phDhC1ASCcyymvMD8/UV7Kb11yUEDY6xFa+JMlRvI63+BTh9z0TtjAfLkF9PB/fupqb6BTr51kiaHr/NjnEa3TdIu/1aqaeyk0tpmsrGta4sl5WbC/sQUFhuUH6J1xR61ZQRlJjpr2LF2HYgmqr/KvFC/oah4Kp3ZQDiCFcArPM9gvNpziQauv0191zRQVjZtowY+P9wD/+Qo+WcH07Qq7FaEc+obGqm9c6d44SEA/bOzfH/CMrZsDOjDst2sU+qOA61V+ympqyS/R6dOXRe76cV/fkkC975Sn4A2FFym2roa+vjHPk5bOzqEyi0tLa6yz0DzCgsL5XjQbmqCQtvZ+YFnbV+b2JkaSnniMpxi/L8K+dx/8CB584vo2rXL1N3bx+AdE/DOhcppbCpEkZFx8s/5qa66hh5++GGandhK/b1naeByr2io1i0D1Nx2kOo7mqmsgO06hxYiQow3lUgYE1rO3ZHZeWYGn1BrBbZkwqDbTgZcUndMKftcaWicnsYu0q89rhHAim2Oz2F0oJfGx3todGRSbNfSunaqrypnUHtoaWGWbgwvG5pVgRV2a2t7FTV17GbBVS1CLxAIaMJUzxzjgaeZMGZWc6cC944FrWhXmWBxfXKlhPbiho4sBmhs1k+FBV5JhyvQQw6LATctsLYdHp2g2oYm8W5KLrNu3+bl5oqWRobN2+e6aG5qjDWClrmDyVRTW0f79t/FmqNWtG4wFDLsPf5lSji0SQyKCE1b31BP+/axJm2qo9feyKeei+dZA81SVW2SSgvdNBvIofPnL9DU5CR98pOfpEfuv5uuXt1Ozx4/Qf2Xr1D36UuisfbPbjcoc563kCmzWygzJrfZUZXJvjfsbt1hg++Eedzwcufy+cJPALuZbElDk5ptdXVt8TsqMQKa3xmLS3LLxI1+ZjS/knGG2O6s6zxIHdt3kt2dS4HFJVrWqbB5WqZc5dRYU0W1Ta1UV19HPp9P4tRLwTDFIkEdpBAw2T39H0atu1Hg3rGgXXUDDW0YoujUNNWXlVLdvfcyrhlO+oWKsYaKhpYYyC4KBxcZtCVCg9XEB2Dh9ZwJRejKpYt0Y2jIyHWemZ6iGf88tTQ3U2tLM0sNMkCb0fZGLu1ykDWSh220dgmzlPME7Wc7b2HkPKxbBi7RDAsFpDVOT4xSfPt2qr3nMD1RXEFXOvvoyrkz5L/8dpq9ixCRt6ZJ7F1ougjOV6fsK7MgYWhMs4YKx/nBWjAcCksyvkbpGYg5ybQwlpVug0oX5roMsE6OTND05BhF5/qMn5wM4DsaO3GxbTvHgJ2dnTacTGpDEkVj+w6qaaijcl+x0GoJ4bAwScTjd/xc3Yhj6o4ELSaSxET1m+zy5FFOUT55eGLCrsqfuU624kqyeUsoDF28uExBplk1uR4qSC5Tyj9O8SU/JYuKDDoNuxWOlHxbhHY011Hepz9DUZb6vlwHxew5AlBMdFSTYD8kROQzBVZULo0FuDWNu8QAmZmZkfFWlJTKY0dLI129VEVzs72SDVRX6WY6uUAXe67ScnEh7di+myraWymntYUSDaW0UFFJsyM3KDB9Q0JEoJ8NjTups6ONCsprxUMOYaOFiFZopdORMOxQXCcJI+mJGRi/dr5uYSrB5YiM2eN2alpV7PQVye9hrQdKHplboNjMiAiv6OIYJT3lVMcUuLr9IG3ZOccM5Zqmfce6hf5aQziwWxvbthohnGhoWbRrIhbWKT7TcMRdbb95ZeBmbXtHglY5nwAGSY9jmutmipeX55S4YODqIAVyAxQoLSVPWbl8J8720vRSgBbjU+TtH6flWIS8JRVamAJhBKadtqCfbBUe6qhuYhp8IONvB1lzwPu7NBzh7yBpPcBg0LQaKLLhMNOdY6FQWLfhlsTDioQCeEYHBzvo8uWLZB8fZtBeo8nByxTkiVvmLqCq9hZazuNxtG+jotoWCg4O0bmz56kHTh7d3r0xdJF2dWw14rsqRBSKOPmmh1Y0rh4KwSOPhZacQ0gbL4QOQB5MBskThc1ZpAHd5SAXH0uSO/jzsvkJGoxG6AabFQvz/VSaX2z8LphJXU2lMJazZ96hf37uW5I8IeYGHx9grWCQ1rd2UlNjHQuZPL4WQS3eykJG+SbsKknC5viN1bYKuHdkyMehJzDkMV2TxPM5P4UmZ8jN70+PTtLr/jGaHD5DJU07aA/blC0s3UM8+c6cPk1D534ltld1aD956llj+Eoo7g9QaGyKclLLVOxbpCraS4lwjjhGEqzBkIWl8mbDNj9NLJ2j+ZECeZ3v9UixQC6DH1lR6Z5uu2g12GuYoCHW1qDvcHLV11dTSUkhjY2O0uWufHFA0cIQ9Z09RZPXesjRVE8H7z/Kxy9gDdZPvoIcOrh3F59rraRCArxw+CC+i4yhxjoGTmElU37Wui674RnHA9dKq9t1pbECsVf5vTz+RzkaYJDR5DGfRHiBIsuL5A0FyRn3i6Z3NFYQ5Zaw6VAswmlhfp5SoQAt+6f4+vkEtABsVfUWqqurpeotO4RlYJvnfcOhZT30ZhNhSpZ4t7KjIYQ+rB7jd0OT77iMKIR84DwpKChgm4kBNDFB19hOnGJaluPJoXAkTOMLDlpi+6qQtY/XbafifDflJ1zkdXloOminmbkEhdlebRwZoQqeZPMs9bsuXmR66CFffw55Hc/RxKKLUjyBfYWaI2pxcZFAil16Jckc08MIa5/y8jLatm0bVbIG9fBNcNHqQne5EXpME2AChXczPQStbdmyjerqG2hwaC+dP/UG9XSdFqFy+NHDVNDWRgPjM/T888/zd+ZpV+cW2rH3IDW1L9Fgb62kQ8LerbTEd+GsgpABZQatBf3E74MaRwFkPd0S9FgoMrQba2UAFmZGhIGVnBykVH6+cR6FuXnkjtdQODFOr7x+kobGJuihhx6SsU8PXzeSKADWypottHXrVqptbqeyMi1GLcBORNO88RpwRccYVD4t2SWV/NCHe26FJt9xGVGGAghHaGxslAZZCwGw0VicJ2ZCgLt1S5vs4yutpAWGUd/1Ab4QMSrhCXnP3QdodnpaEszzeLIko3FxFhV4HDQTWKCuC+dpeHyCNVw+dWxpJUeVRq+HJ6bpyrU+nnxz1MR2LQDkYUY3y/R2kH+zjGl4oe6lhmaGdgMItMSOlfzhFfCGKZa0MZ2dp6LiYtrSsY01V5FQyT7WutBo33v6b7VJG/WzlgtTT+8ABcIxamluobbOfZLmd/lyD9u8vYa9q+K7vqoGsdftdgaoPWXkRBupjHqoDJ5jYNbD2lniwXxdSxdmWPMyeBcWKcDaMMBalvT6V1y3qalJqW09fZKv7ZVSmp25Kt5jlM01sX27Y9dOuR7CTNJCZKSnYdIq77Q5gUP7LD309Jukbe+YKh8zPZ6fXxCv6QSDC5UhFTxBELxH25KETgfxOsTUL8gTbp7B6EjGeB6yLdbaSg11dTS/GKRSBktxEU9GfiwG2sg1OSmaG4Btb2kScBQV5IpmcuUWiKbvi7M9zVq+rLqetY+TJmfZTg5GaHhknMrLmP7GU1pOLI8BmiWbt1tSFPXPoYUQfkLiR+GRh3nid7AmvSLghf1aVVtG5ZUlQjsxPjiwKquqGeCVtGfPXlpsqKNr/UO8b39afHdrSx3l+Go0p5OA1MHXgSkpRfhCRgx/QApCi19PTY7T0PVr4mQ61L6XPEzNlwZ7aJzt/4kbTIMXA5TvDtLhA61CzVH00Hs5LOPbc9chST2srmvga5YngmqBrzG0vEF9UyuxZbNT0QCuijuLB/s3Q7NmAu4do2lVPa2WEWUXallaUkIVFeWUw4BCMbaA2hkldypXJqSEOELaBMWm6CAo6zJPOjiFUOaFCQZNVFpWamTk4HU+gxPHsCU0x9eWjq2spWdE45fV1DLQcqh8cV4ob3FxoWivHKctLUMLXmYefeYwlfFHmILxkNBZOMSaWrdoDquaBhpg+3YxMCjeWAAXz8GlKbp6eZ7t4RFqbm5l4dJEJRXV1Hc1X8r/oPWmJ/+Z5mZb0+xdaFL4ykPikPKI51l5cadmr9Nb7xwzKK67oEa+B8AOjC3S+My8XJeaMs0z7vVqYwEVbmThtm3nHir0lVEiGja0qxFKM6VdmsGZdj3MgM0A6t8k4N4xpXkKCKCbsGdVNo6WW7y6cFy9l2mDYwjAgx2KYwmVZtsWgG5rb5ffUiGlqG6iwjMMQDu3O7SywJj2W9AqGAMAjtisy9Q9waYnW6QbLVpaoDn9UeUyI0SEgniHK0co8779+yQJ5GpPN40OXpdsKK93RmK8vDef8Cxd643TcnBJsqoAHp+vVOzN0ZFRocyFRen2LpIjIGyUvb04o2lXJEhAk/uX3cwkfNQ/PEmjM0sUWIgzKwlJWxi7eMHzJQXRk1PD2ryOmiSEU6ldVwa/KsbQkl1sGQFqdjqlaVvT851OjdcC7h0BWvEWQ0t63LS0uEjDNwbFkYP+QZkK2pGyaK7+yPQ5qC4e0OB49PX1STIE7FLQSS3mmX5svA9tGtdjnup38D48wtgmZhfkeDmeXHKg4geZUpjQdrd4bu2GPWdLT3oHmPVJi8ZliekJqYapLC+hokOHaay+icF1ic8dO4+J1tVCSVGm0ddpaHCI2ptqJRZ6YM8Oyfft7e2lgaEhBp7J3q1sIltVhSYkbkzRxb7zRhVOcVULHdreKBR/2u+nRb7O6AiBgvSYHsLxlrRSOWv3msoKaq2pluuFEM5iYM4QRFopo1ZYYS6uyFRskUmg/aZp2jvSpoVGKMgvlPTAGyNj9MMf/likObSSAnWm76zV9whZSEUMtGKEfNhOnZ2ZkaJ62MIb6RFlfU/anTCAMT7xthYViqBRWlvouT1LMbnKC7Zpnzt1Ox5FD8HgMlPvYql8qawso4q6Eaa/l8k/eVGnqW62Xd3UNxwRb/LI5Cz/3aj1oyrdT0W+YgE1bF3Yoe0d81Q6WSzfRUG6Suxv37ZLAC+e8RtDtLgwL/arltjvFu2ObKbWfXfRro5tlOOyC1gnp/16ckRKL0hPsYngSD8vS9mk+TntM6WVUxtvVHAnats7xREFQS+8E1polrXAe9HNEN0cJycmpUOgeKd5soVvVTpKdZFTxqeBmjV4cEEmnRQghNHALZU+WVOJVcBdCYXYjOobhIiQ+4wwTmt7myQp9F5rpL4r3TQxfk32b62HnVrDFHeWzl8K0/WhEWrj/XZu30FtrW109dpVGhkeEa06qodyRiajVKDXuPpKSvhY4zQ25RfNWulDqxdNkwOsO/bulGwwX66Tllmrhh16llRSleuxsLHZM5Y1Ok29ncN6LDtTeeAqEN88YGN3AnDvFJvWhcqZpeUlqqmuokOH7pObGwz4jVI4mfe6DWmzeG2zvS+TKK7RNTiQzO+Z/4adGk2s/I3j4Jjm4xUWF1Ei5aAehGBm/fJA1cvUUCUDAplX+bo9vVIOaKWLaXadbcVpI9UuCT1Fke1atGbds3cPNTCIursbqP/K6wIubKDNefx6YvQGnZ6bp1CchDbXlJXQUmCR5heIAv6UCDwIK1j0c8EoPyYoFRqTVi/m3kylZVtp+967qaa+TjLG7G+8It+ZZfvYzlTbY3dSxLUieIxz4LFGonEK8fmixhjZWDBpBPRxm5Evbe0w8i41q+uOmO93CHNYYDuxCC+QBYUsG0hu/0wuJSJ6TyVnLuXYMgta5A6nUd14yPiOpspDTPdWLlU4pnk91Xv4visZNp5ln5Qr7bueYi2eO8baCmV56LIgtmLAIbRzW3ujgNflzZcxhCJs31J0RctSeksX8wTWMoe0nGCKav2x4HRDX6k9e/dSaXkVDfexgJickP0LCjXgjc3YaHzgLMWDg1KzCvqOVqMwAxQ7QJrlzPU+NhXyqbHKLRlNiUQRNbRWU2VNPZWVl2kJF6k45U9NrbSlWVqmZHnSIAfSc0rSEbXr4ucdx50xmYE5U6yyFxalisrH16aQAQz2oeqTrXTZGgK6mXmyCdrbhx4XmZ1IkrMKesaTzzhBBs9C0sGSP1Ot5VKWA4dWATVNCxvvLel5TkumfKd42n6JZd2+TkbFYVbANiCalyHlEPHMoYES2tZ5HzW2bTE6UiQSLgGvSpi3Tt60zCHniiaKS0nevHiZ0VMKlLmObd65qRkautotxQhEPuhQtlnDFFgYo/xyp9jdEbu2DEdzbSU112ie87dOnyH/MpsKc8UMWqKyigratnMntba2inDwM+CmEhGadeRQXmkllc5OSrIFvOOgx0aTOB2wMwzEcQqRPxzRaYg++IUAeZf9VO0toUoWEhDAPmdK07zRcJrgSjMdNr4VbYL29tnG+VEtUEnEjTV9oqFFrTOh3mFCAGTqNpGtVar9JtqSrNVuNb2zhSbkkbGEpuq5eV5qbGwiOwsGgBa1sQiptI+vlNdptbE5FAmn0uiiOHT0RIRsoRHNJl+U+lOfr4QKahuomhGXE5untxi08BZjQ18m1W4HGhZ2fLGvmA41ltFdD2pga6pvoV+emKehiQj19Caok3ppvD9Xd3RptL6I2US4oJiWPXw9qiop6SmWCLR00NA1LGzXpXhSAIutJCcti5lQRrC8EKLrwYBUTZXmF1JJkZeKPHbyOj20EEkSmU2Hm6fN45ugvY0cyFZnBZLxzcA0A9FuWtwp7SBsczpsNyfBU3a3fEd9F8+iUW2W39Wpdi7bb1hfhoLL5OF9ats7qbSyjlwFveJZDqh0ww4t/FJQ3y7AQMohKoG0hIRUWlcKRRW1FjH2tCJ1PPC9xcsXaMA/Jb2ZkDEFT7GroJ6a64qkNSkcWXDewY6FV1jGWqGFqXbyA10jVYvXM10TdOHyDGvjSxL7rW9uk7RE0OTcsMYOHMLqoyvpmTpge+MLomGtgDVAzA98PsbgHVucpcZwULQuTAoJp1H2Tpo3O082QfvBOqIia2m7TECzMU01Aw3PCmjrgVd9XwCbjK78TlLTqjb9PfNxVCgoSk5ZVAvAHRgZl4SIhtYOOnr0QQbrCL116hQDYtJIN2ydHJQyt4KKJgEv0jMlDqxnE2mVODZJMLEDJAxclbxQ7CsV23BioMfIZkK8FTnAdY07yFdWRUFkJvk1FoC1hODh9nodsvLBYFeecc7oFPnZXYV0sKuJvvezMTrX46fp6RnpOgG6vXP7IcqvaNSAy/uLTS4Op4RoWQB2loWF36Vp72zAtYL3cnCYLgdY20+VU1NFmXTTeBfJFZFN0N5GZu1Nuc0tQAOwrEBcC7jq+2p/PJtfGxo4ueI9Vo4q+V2nS9yYiAUPjE7S9NwSbWlppIqaenrggQdo/EafUGYt3dCf1j4V9i6mOsC+0k4mZdiMwWic5liLFhXYqNRRwRp0kc53X5PsJ2zozVRZUiSJGcsBP82wlsXyGkg/hEd4IeTh54j0ZDZ3iRTg6uD92pda6eLlYqHMGCO0NhxqW7fOU1VDi5QiosAA8Vu7PVcAjDWJMKYSvbAPgFwLuCv0uZ6CDNzBnGlanolJPTE0rxW8aSwru3kT3wTt7eOIWlOCmjWqWRNaQZcJ0FatbP3bDFKbCaRWEMObrKaSWvaxrCChh08C9PaJY1or0fZWKVsD7RwYHqe+69fT28mwRiuvbzN6CCMfGdosEIoIWP0Fdqou8JKztIR6p6aop6ub+i5dMRqp2dx5FGGbGm1K/YshAazaWtv3ka+4iKamZqi79yK9fa5fQkSt9Vi6JEKTEyFD6+7cVkp5u3fRyAkbvfLGKeo69ZoIGjRWLyxpYFpfJc3mUATvcITJJZVETtqraHLOggHcTPatArZ3fpG259RTTrGbFhZX8sfjcZewi01Ne4fYtNZNgU00n95l0ApWs6ZdC8RWWmzdP9t7Kpzk1oU91vKB7kKoBfnCoKxoGXMlOkWzi7upuqqKdnR2SoXSxW4vTfZdEGqr7F1QZlToePXlMpeYNvttQQ0ErNCrZ/00ODFMszcGZZ/KikpZXgOAjQXnhdaqoCUER1XNDtq2a6/kCfv9fsopKKauCxeYBo+JBk4m7NTSVCa2LcAL4Fbl76X2JxvFO/7CRL+0d32LzjDQmdb7mynV2EmusjoqZtqN2HG+UwOdd3mZ3KF88rOdrrzIVvDib2jYdnsV7draQuTJZ8gt0cxSRIrkURyvOlukOQbX7sa4adPeRtu6EtSWAWRW7WnVkNb3rRo104rwGAUAACAASURBVOtsnysPbShhoyDioJ5CySQCTcXCcHn5KwCfvnFBanpRsAAQHbjrAE02NNHAQB/buqNi7yLFcO/uI9LUHF0iPA43tZfWUu/sKPkn52lhYYycC3NUVuilUNwrizHPT02mNVJTyRHV9U1U0dhERT60k3FSSUkJHTh4gGrqGulSTw8ND1xnzRvQ+zPPCHiXGtqoio+xGB+isjw3bd1zSPo/xRaHDVpfzmOElo4xeOvq6slRXEe5zC7gw0UTSx+DtyTIf8aSwhDM4GWeTttc9dTQUKUBVt9ybXFKunP0eHT6qgYb0LqbmvZ22WwOd3wj9NhKYc3aM23fLEA1f2b+3PqdTJpW5TqjAB7VPrm+Etq6Yw9VVFZQb89FGhrQqnNUtlFwaYyunu+nUZ0yd7bUsrYsp96+6zTYr+UELy+/LAtQScilGOVvu6iNaeOlyRnyz8wYY0qy/QvNGtLXygHlRZKEr7SdGrfuoKrKKg0n8/O0rHexgNNrW0cbtbY0UFdvH51/5wz19fcyGLVWMPf4rtMSXafhy4V0YmiG8llg7Ghtp+DUBF2+cllYA+K/EsZim3zG30l7dqELZSXlVxfSkj9JXhEcXqksqgwGaZ4176XwvAC2xuaijsYGWRwarWrG/IvCAOBBzs/PE/vdnlp92zdt2g/JlkpEo1aK5DDRJuVQUsBTdm0mLelYA6hWO1c9Wx1Z2exctaHKB5oPGUu7du2iwsIi2XdksFfWWQVwvdIUzi+T/+2lZabMQSnO39G5ncqZMl9hYCitK3S7qE9ygzu3tktYKclUckFfWkNtUoWjU2E0UquvqxaPMRIXEBZSLUpBO6NRP0XCuVRQWEgHd26nxqpqOtV1gXrPnmFbd8xorD4w5pTMKs/cEtUwba2urqKdu/fQwlSFeMcDfq0EsKp2Uorn0TVj69YOspXwbzFqU34nleUzJeZHHlNfezBKs6xNfRVl0j9LekuxRl6cHqWh4SlxxOXk5lJ+bvZlW9bYopug/ZB4j62hHWXXWoGVyRvsyADAtShzNk27iqeFwrQwMynaAwXth448SGMt7VJed+nqdaGx0IjllXp53fXrQpmxEnpJaakk8V9jkCEZAumG/uUYBbpOy7Ia6HAoC1fRyvIasJ1RS4sG4KjBRT0uCtJnZ2eNRuPaiggrwg4JDki4QGZSSXEBPXbfvbSjuZHOX7hEF7vOsrafkq4Umuc5QCPX36ax0Rqh9TW1jUyv65hBlErW17WhJWYPZ4QyI1YMm7yOqbOAlzTwQus2M2CbKwpodGmO5scX+HOtTFDasvJvuJm6u93uVXasmSKvYdNuatrbaItaKVLCJH3TEh2Sa2vF9TzD1u+aNXE255ayac0bYrUAi+rigHRArDSANVZ95dXU399PEaaV2jbG9mNU2sV0B5eptETz+OZ4PGmlgvP89uX+OfJ5ZqSUrlAvPnc4KgSsKOCHNxfF6GhRmt6XybLKH2pXde9sIBLjMc6Kx7q+vl6K/dtbGunMuXO07O8zigfADtCk/OrVBZrnwWzf2iaLY5dVNdC13qvSq2pyWFsVAd0udu+YlYWz8+s95Mj3US4zEFtpWAC8ePkyjfpviGaGPVxWUkyuvCKqYk0O0MqiW3rT9ExLbGYU3onEpqa9nTWtmR5n8whnA6jDkhxhBbj5GGZqbFvDo7ymxInGpDZ2edlNHr0jRceOXdR97gz1dJ3RbVzNHo0HJmkyFpfEfuQKqw2dNmrramlycooopC21UVhYKT2IaxrbqHbLbumigb5MiJvGTD2FM9gbxvo8UjqXYNCik6luhQC8HZ3bqKKmTiuw7+02Fs4CBZeUDGYKPd3TWl/j6gbau2s7zVSVS0ngElP+tIWztx9iYEaosq2a7IlGmkxN0ujcMh8zRd7KFJWmWAuXVlOBXsa3Ep+2ZSz1ywLYTU17m20xK13K5DnO5JSyal9rNlM2sOJ99bctA8jXHXBsNYULM1AKbU6tCwe6/usVSnA2ORw7qe/GCF3v6ydHfFkyl/LztNu3xDYvQNvc1ExtLa10BbWxE1joqo/m9Q4WtuJ8Ci+XS48p5DPjyKqpmioBXLlutjTaKasEUlK3daPCDLAwdHlpMR9rBzU01MgKhFevXhFab17xDsBE/6iG6gqqbmihuqY2mhoblrWQsAogwlhIq4SXud3PlLltpwAM2rWqooKKfWVSl4viA7fLntZbKtOynOZ7n9C7hyimw4/YJmg/BDatFXxrhXjM+2dzLlkpsvk7a23mjKh0SoD1gdxUqE8sUNfLU320ODwhjhskWpSzfegtKKbGiXGmz+dodHREbE30VS7KjVCYAYwuHXPz8zzZ66ijrZlKCnKlS8W0PFbCL6p9qmpabl6eM4uXTwOIjYym4dgXHTPQ7wleZtBlONPKy8tpuL9XWqaanV9oNDcyNCXFEk2NTVRQUk579+6lsbEK6VUFuiwPHuO2kUmhwhVlFVIwYYTKhKKnA3bNiZ3Zg7ypaW+bk3A6Yys3yyl9iqFBA84cOUEP3+BIEr1ccqQ0T70WWmn6G6/jaCeuT2DMU4/Txe855VKZ38f+6nNxLCVd+sVcXWctxQu5hZLAp9bxgU2bm5cnlBUbVuKAxhkcHKIbfSflPVT71G7fL04j2K9bGIxNjQ10nm3Jrq4LFJobkDBRY5WDlqKFdOPGkNiSWHEOYK+oXKDrg8OypIg5/FLtn5dOishndnj5GrGgAChslhCK6neVDQT4DLnQ2LCaQNV999H0li10+VITjQ+jRndW94Zr2n568iq9NTEhXTLBCO65+x6aaZmWWPD8RL8e331+pdFcZam2tIjeDC8eSxm9mF32VMbxQKDAdPCysAD7SKSvo7SpaW8nemx0Y3RqC0cBtB4ABDWxzlxjKQtIajRiRHNyADROdgZrzKjCceoP8ajqRapO88Uy1djiO9JUjrUoRECmmlttPze5oNnMK9Qz2PO8eeRl4GIpDNVT+OrVq0wp+6T1KMrzSvTlMpZ1mxYTuLasgKbLfDShU1HEXJFnPMSfo9WOlkCxkxpqqyQtsb+0nAHNNmd0SooGIByii6x1gxGjablWv7uaLUAmmZ1oah+8l2fqcrm0vCw2Z2NTI2veahoeHqFrV64IeBOJKdkP45T1aVnYXO/Xjoc2Nnft20VjIyWsjbuFLqsxCjOonJNGcyXecsmqUj6ATJvdoY0NwhCeaLfLtaYZtQna28SmBU2cnZkVjRYOBvQqk1gWnhRbec0TAftGWJpj+Uu3PUlxvbQP74lWdtnSq4b076xMmixBfTXJGPBYeV4JmDGmhj2XLtLkUL84ZNSCy5i4MdZSx156kS5Xd4k3ucCdkrAHWtRgQot2K20SARUKRdlGnpXlJvNZ6y4vJ+jilWvSKrWmppaB75OFoUfHPJKxBI0LexMe3IrKIemfjD7OSMI37EJLT6pMtBntYhSQ1XVADBWrFEITNjCAoe0Gr5PkOmODYwppm8vL03T2fEC6VLY11Ut4CBscWjOLjrQxIlQFAVRc3SAlelq3S9M91ccpLW11Zxm6coJ6o3ZZrTyRsKjdTdB+gNv8wkIU2TyLgUW62N0j1TMIhajnNKqq20jmZ7MWianlMU3fs74nK92FZmkuotfOYpGqHDfl5OUaIZhMWgvfg3cXXSORYPHs8z+jl19+mRb574mJSfHoQpugvWpsupdOnXpHhA86TYJOa/nKRKNLdskUam5kSs+mgDSyC2hF7chhRm/iWf+kpEuW+gaosqJU1iHi68S/v6ylURK6JPbJSgd5PKnzGTxevTQvbmEMmd7T6OpqDKgmeGhPAxoMEC/MzdMonx+a2vk8CS3PmgXTyKwGMNB3FEtoYasoj31OxpiI4ZxWxlgK4eNav80TEkZwvlhGtH+gX+YFnHWsoTdDPrfLlkiljNkzPb0Civd7yzQH3C73ut+DpgVAe69dlWZ0Gu11617lGMW82tiXgzzR2EbF2jjG8d0rq8nP82TEtoj0Q94Xv60oJI6PY/mnp/l3yHjf/Jk6h6gpocyauJAemooan5tfW/cxH8ub5xXBg9/EGPE3xiLnqY9jeISP5RrKOEZ1jdcaY7axGJ951LWNbmra22Xbs3tX9I//+Evkn/PzpEBjtLisjrdGZsy72jyeHMMx43A45ffisuJALONvmrW6z5vDE4xpKjmEysf1hZxhfzssrABphWyBwwUmVS34HavjJa6X+TmdrozeU+s+0ECgynG9UFAdG57oTA6odSeQialYvxPR28War1cmx5Z5jFggzeHONRgQOlqqc9/omMzni9+BsNiGBcxKSu4ITWujO2QLBAJfTySSbt19604kE64kOqNpfztNz+rhYBvUyfs41N/mB3/Wyc+9/Hk7P8PHg07do/x+LX8Iz0qFw2FHW6MS/l3w1kL+zSDvD3dwlPfDWBI4vtnWddgdFkCvDl3AsaPeN4c2YmgQh6J9PgaeUXiQTKn1eN3yntikphY75n3l97AWrd2R9bfNY1hrjGuNOaENBD8S5ZduHk+Qx5LHvyvXiTWeXDd+b4rfQ57iKO9Xy/vJdeZz6eVj4br38Pknkkk5nnrEMzyrR4x/O647K9QjCg2bk5MTZfv5f6PNbXPb3Da3TU37a9ri8fj2cDj8P/jlEX68xtrq3+Xm5h4PhUJHmcr+O9P7L7JGiDjs9ojdbgOHBOcDzULsJ5ZMpkL8vvzNryHZg7rUD/L72FfxTrgwERmCJnbyvnh28T5w2br571zL39jXw397+LWHx/oHOEh+fv72paWl46bxfVV3ov3v/LSdH2AIPfy4xJ/9e/2zZ3Sa/k98LlE+lzAfV8bKx47za9TbQbUu6c+LSW2R2AX+DHNkQT/vVefC+zn1cwKTyeX9wTBy1d/8Of7OUefBdqqHx/N1HssOfWzGPeBzO8rn9m1+3aQ/GnWWM4gHf+fbuEeboP0N3JhKX/L7/Z0o+VKb3URbk8mVhYuVbYX4aKZ1ejaybeR7Vi+20QgO9beJ9NS8W/1dtYKgntL363UWSgN1rYl6Nrtf7We+/tYNnuGiouLXCgryv+p0Oi9tgvYO3yLR6PaZ6elu/+yslJ0pcJjXRzUvUA2PJNbHQTI/cmsRPlATzOr4ee+ZQIzCIS2RA/Wn+/fvE+8qSvlWBM1qW1O1VEXs0tzYXHXs773WS5evXqX5Ob+2RCjW402mTDb3ypQwv/9utmg4RG6+jo2oB961U/owqyUv1z0X/X3zvliJAHW+DN6eoqKCzzK4f6PA6/xNOEmW3Nv9c/PPXO/t7cQar2ZNBmCYvZLmRuY5erLB3Kyfzp49QydOvCVhCIRs0sITupNHQjkZXt/qhrAOjhMJR6i5uUlLzQwEbu7c9fPBynpYcaH3+nV65dVjNDE2aoSIEF5RYRm1qb+t76+3qTRN83fUddjNgMU4kOwQDCLUFDQ1c1/7HOIsfxALx/GxpAoec3NznRUVFd18T3u8Xu9nbTbbpU3Q3iFgHRgY7MRkD+naVdEwUE8sOrWk02Rrx/pc1k7Li0s0MTkpwXlJdOBJh0C/Xde0qrMiYoHIvrmVDcdSxzG0PB8Pi3RJPHZhgcbGxkW4YKV5JHtstFm30lYxNHTj76HYAJ7kluYWqq2rMVYXRNKCNVliI4kMBjPQj2F9jcSMhcASjY+NSdLE2NiYZEEh3BXJIAxUSaW5HlqNC99D6qdKU8X9xPHm5+c7+bNuvsc9+fneO17z3rGghd06OjrWiayYUCiUJrWlHjOpAQ40GXE8sRVgw9q0Gs2YnpoHWra4qCUxtLe20NZt26iEgYv4YTT6/vQJS9rdkq43Mj5G589fkEm7yEInn9+Tha7j6xerqLK1BEJCfE6IA4dQcM/fr6iopAfu2SfdF2OL/uw50+/BhoqdkYlpOv7mSWluvszXe3E5LNlREX2hL3OJXaZidgEt03ZPxKMJFyxK7dJyzGU5Ez6vJem9HOhkTX7Hg/eOAy0DdHtgYaF7eHiYFlhDSdtSnbLhxoZD2mJWkm7IEwSTOZnnNWKbSkO49H1A5VQiANIUm+urqa6qnIJxptCh92cRNntukSyN6ebf7rmslbmh/anTrU1a+006kQAEsIS4ntYJmokqmBIG1BK0VjBEec4VEwHnttbfN7N5SyrIuxyXKiVsSO7I8fC1t+WsEjBZKbfuc8C9wD1LQNiywAR7QCGGKoyHvY97XlRU1FlSUiK0Gd72TdDephtCOEwjn+nv7+/EjVvxljrEbg3xxISGAjgx8VENBIntyLDGj+Glc2g0zKEvaQkqiYT/hXCKbbYgfnTFyZXUvquV+jnSnm9mC0djhHXY4wySaGRFk0Nb2ky9rW6GHhs3W5/8wXCU5niCj41NysLWQRZk1nP3W47jv1m2oNuqdeEgLc4HDLME2ViZxp7tfIyWOKYqLvxDpQ/up8ovx/vKB4H7jwezlc7R0dEUA/jBOylU9KEHbSqV2s70lcE60Im+uwqs4rWEzboconhUW0VPJLbJUwwQgKJZV75bJfV1L2pc8mW1FdwByISepqdNeK3iJ6y/DlpW6VP7mR1d2Z7necwJl5d/NyqdF5y5OUJzzWO7mc760rHQmmKIwv3YMi3q6bjJ9yHlE8dcilmobkLrnmj2Bm/kXKz7KNsXzwq8uFaqNNPssPLPzh4D8/L5fBIL3gTtBwzWoaGhTtVR0BzrQ/0ppLFyxDiySHKnXg2kJq0BCvMkttuyTiL7Gpo60/vWFfuyreC3yqbbIJXMpvHSYrXOld/KcbtY0669XOetaNiNeIXXo/SZwAp25LSnA9ducl4lokljjWIFXtVVkm3dIwzeVFlZ2Q7WvJc2Qftr3NhWuQSwwjkTNDmZpC0J/608peqGZgIsbr7NNNFuFhS5zhSFk44NT/b1NOyaN8l16zHhbMeGHYj2N+Ho3LsCF1mu4UaEkFlYbsihpjsFcX/BjlDsYMugdRVwzZpXFWRgPAg9wWvN4O2emprqKS8v/6rNZju+Cdpfi5NpRBIeIE2VdkVcUNmta4HVOHE7bvA62lw6bjpveRKbQXkrGlbZcErTJm5+acc1N3TcMI/1/drs71EGllH5k1wjs0y/76J18WB7HX8rh5VySPKj8+LFi8dOnDhB27Z1vubzFR/dBO17DNblYPAZBmvn3Jw/LTlCXP6sXUGFMbkxQayF7x/EtlFQbugmuVzvyYQ3YtSw/dboGHkrIH6/QG81Q5QD0WYspObICGJzvFe073JQ5gWcVcioQobbMz/8Mc3yfHri0UeOXLp0KdXW3r7D43Zf2gTtu9jgEWY688zY2Fgn3PlINMDNU/E5aFozFVZtRd6LSSIS3ZG9IDwUt/1ackCNFqA22y3ZtOttsGnD0XSwvh8AfC9rm80saS2tawavOBH199B9cnJqigYH+ulS9yW6fvUqP3fTZz77WaHNRcXFn72dwXvbghZ268jIiNitcCJgsqqOByreqjyHigorqZuwrOWzjmDI7ADhSbZRevx+0EtzCETR442e062C571wIK1l72b7+2aFmNmRdjNsBddP+jYzM8OSn1iREBlu6Pxx7Phr1HP5Cj366MOdT370o5KgUVhYuH0TtBvUrqxVu3t7ewWcxUVF0lcX2mViYoIC8wsSptEKvO2ScKCkrU2ajju06pAsEhifI5tGAvL8z+o9zuSxzOqIir57apgNJDIGrHbgVB0f4mmpfbdy/EzVPWG9OZ15DJlAZV8ndHWzgiy+jhNqrXtgsA/nCiuIxhJpWlcJ7pSqFOK/U6aqLXTCQM+pg+1t0u2k68J5+tXJk/SNb3yLjr/2hoD31KlTqf379++43aqJbhvQqjxheIVBhaFpAFZs1xnA83PzhrTcqI1ntnfwWoUKQKmdeblGSADpfWsPLrWux/RWNZQVAOZjg8bJBOXJKSmWFk270QQLWSVAX2ZTm7Ax9Eu6Ke1nHVum57W+s5aneK00xkzHVmBNJO3SlVFMJhbECDmr+y0OKd5PAdxKpeFVRpIJ2v9s27WTaipLJOPt7JlzstgZ+nKdO3+RPv7kE919fX09LS0tt01BwgcOWhVvvX69n6nwnJSUFRUVk9er9QM+9dYpevHlV2TfI0cepJ07OuRGwlOczaYxa17zTcb30JkPIM2PeCX53Fi8KZFI9z4ixVFf4GqVHehySr7uRmK0GwGz9TiwM2U5TtN6UTksqOABdazjFc9m10l3SqnNTUj3SKwMkF+gLdaMZI61bF7rFt5AfzT1PfwGjq+uIzKi1vI9WM8voYNYCSiVPAHQhZYWJOSHVFSs7OeW3tKaJoamTSEkZ9G05g0FC9oSnwmqbWimJx5y0ZameurquSZU+fzZM3RjcIBOnz3T+cRjj3ePjo72sCL5wMH7gYJW2a1I6oetAa+eKnm7eKGLXnv9NXrrnTPiKMDN37VzB0+47VqvXwZtJts1k2aVicY2cAQJ80G2kYNBSsVg1xQYqX0K1EtMvVOICyrvIyQyGrCx1oMkRk6wTPbFpYxAVs/W9zJt1v3U6gT421tYQAv8O8gT1q+Vdg5oLboBmqyui7kiSBUbSMpfoU/ygs2bWrZEhYLU34YnXAeQw5NI2y8rjXV5mXp6yFvgk5xjbCgYkOvJ4wDgzIDM5PmV7CmmsigjRJUPvL+YK2jLGlyck3MKuXLleMinlmYFeqqjaNSk6ZgWAY+CkSWWP8EAejKXyqp8WOi7paVZCkO6LnbTlZ4e+sXP/5kuXrxEDz38UOdDDx4V8FZXV31gBQkfCGgRwmEt2j3Q3y9pZqgZLSsrk89QanXmndP08iu/lKJztNysq6+XfVAYDm3h4BsnUtMkPZUDSt0gAFYoIVNhTBKANRSOS8NxSHpVYRIlbW0eNTEBbHyGAH4slmTQuGSimTUnEuizAdBcMZPpvbXAa/ydcpEH9Dipg401wTILKZQXzi/cXJFCQkCq3WaVywzNMuefo4mJaVlOU2nOHHfcokVD745F2bWkiJnpaen2CA2Pe4iOISFU+YQ3XiWF5V4AYDiRwJaQO400T7mXsYRUQcWjQRasheTJyWFw52zI4aWK/gFcyfv25pKrsJT27PZJcUhbWyu9c+o0Xb58iZ7+3vdY+56jQ/cd6jx83yHxNJeUlHz2123z/lpBq5L6BweHjHgrHE3oQoAbCSr85ptv0pkzZ6Vio23rVrr/vnsFqFeuXpNuEXFTZkza5NSlslrHB46J6LJWKxvRtScAqzSHmaJFQ4vi9ME4sGCzaAQWJtDCBazxsF29fJkGB4aF5tVVDmWmwlh+BItXm5bLXG9Ta60qGzOKpqY8VggrrM0zeGOYmhrqqba2RpbbMHvMN+Yr0KqVfCU+AWvv9V66cuUa/fKXx+X45vitNGGnlWbfygFm9TorZ45aahP7mF9bt8npWamnRYP1irJyWWM2uBzMqmnVuPE+yhExfgjexfkZWjCv+ODR7nWug3STiYUzf5aL0ktmRvjcrS/HokJEaQUipu4jYDconPAHlihPZ0cFxWV0cL+PWhoa6MLFNnrn9Fmeh1dEmZw7d4EefvBI5z2H7u2em5vvYVPrq0zTj98xoFXxVlBh5AnjBuBm+Hw+SYq42HWRXmcq/OavTtLI8DD609KDR4/QoYP7aduuPdTFnwO0qo+uI5u3VQckgLDEkhOd90GDBaCW/GGrnRkLL5OzMJcOHDwgq7/Nzy9I69GCggJZkwadK+BdHB4ZouJin7G0h3xX72ZRVOzTV1TH5E3pE9tmvF6tPWyifULBZWEc6jjqmLgWEDh37dtLh+8/LCvigYlkm+jZQIt9cU3DrNmu8LlMT/+cxkbHRHvgfdWwHEX8mOQ+Pg+EQgSsG+y+gdas2BcrPagG46C0eI1lWrA9cOQo7d67h/bfdZeAdmlpcZVDDa9BdSEk8vnaY2GvhYVFOsXXHktkKjvZ6rhTIEZfumDAT8ElN1WXssD1lGtOq/hqrWttPKCOCY2LB5gHwFvL1x1rDrU11tHp891i755666Q0m+++1E0PP/Rw545du47N8NzO8Xhey8nJ+Xcs8I9/aEGr8oRht4LaFLJmbWtrk8mECQTNevz1N8Xgx2S568Bd1LF1i6wijvVbsK5OYHHR6AphXb0NF14tZiU2KVMnTHRoyWIvksWTq4Bqdg7hNW620rwDAwPi1Chm2zWVSpLNZmd63kD33ntIulcsszTG8hkqfgpPNjQTKBu0orSIgVfaBL5sm+qiDzC2tbYYy284dRu4trZObNoDBw+ykNM0PttSGwRrSgeBJkRwHh4G5M7du+jRRx4W7YelOxKsIVNsEtiYUlYxy5jnezTIk3JycjLtPMzAzARWxDqxf0dnpxS+gw2ocwnrTkOcB1aSdznhbCyQh3Wc+Buv8axYwNz4kNQuu+DcsrvXdf7hXubxPYHZsTQ9I3NBFgzjOYLXCT0fWWNoKcNEsXrDEdIT8Oqat625kcoqKsTehaa9dOkiPffcC9TbO0D3Hb6H7j5wkNq3bjmS7/UeY+qMefS+VBW9b6BFE7V5Pd4aWFiQG1pdUytgmJyYoDd+dYpe/eUrcuJLi0tit95790Ha3tFGvrIqsUvYKpJQTyYNq2xaZc/m5uZrNPrKVb6I16Sj/Pb2Bjk2KE+mEI355sOWgZfzpz/5CZ07dZKe+MQnqbGxUT7H5HriIx8RbYcb7soQcoKn+z/8x/9D4n3lXi+fa410Z7BqWQgZtUwF1u+Zm5+jJ554nJ786JPSfM2qcUSz5GsTXAmRDWm+DPMZ37377rupo6NDhIXQS5tNGp6LY8mtUcnvP/19+od/+I68hy4XKkyUkd57clhQBqSNzd69++l//p/+nJqbmw0tD3Dg+HiNewpzSI0l0zjV33gGUzp18i3qu9ItZgtWALR6rjPZrSWFmmccHTMu9nQLM2pnRaGaIeAewsyCsDc3sssWqwZtDke1OQKn2o5OHzXWVFBDXQ2dPPW2cUHIfQAAIABJREFUMBYwMDQsOMpzBM3rcJ58vCOo562srHzwvdS87zlo9aT+Z/r7+jtBfzD5KiqrxKsHR8qZ06dZu75BZ1lSYS1VXNAD+/fTrs4tsnIaLgzqUcNLIbKxdMNlzHWsTPy4PmSrTSvhGQYTqPf5CxdFk7gd91F1eancREhSlUhgrUhR4QkkbsBbfYXt2O08ARVoMcEgbPDQAvm6Q8yU8oeV0e9laq0WnsJ5mRvG2eMhsVfdWGBTX+9n0r9AC3xNWlpaJDsHoDVrZi3+6DKFx5LG80bBa/0uloD06h561apFCUQlzDDBDx26R97HCu4aY1hto6vzwGLRlZUVssxlGdusMC/Ueag8cbNAwljUeMznYX0PK9+dPnOa3j71Dh2+e6+suavuVTjDioX4DBox5SmgG6Pj9PbZCzQwxMJkz04RGCKUzDFgEz0WD340lpGVqWcIdUWZMacO37OfaipK6J2uy9THygkCG7b74yzAD993iMr4OqDz5/Jy8Nj4+DhMrdf42n/13YaM3jPQWp1M2NDnCM4d2K1XmHK9euJXdOLYaxK4zvfm067de+jArm3U0LJF3PW2yKKAKxhSoYSctHDJevmryjYCRYWr3sM0bPuOHdTeVEuefB/l8PFx4XED8nSKq+wX/CaEDMJB8xZJawbJ+fPn6Y1fviTxveKy6jTtD8Gxb0dnltHlrXpHUV6snv79kUGhfglmFwm+BgG9L9U999wtNqDX1P1xI4C1AlvRTrWxycJM51UaHBqkcgZaHkClO8+iCRt1treueXxQVbWeFd86qinTFo7+5csv0xtKyPL5zLC2xLpK+/buowcfelDOA+NSALUyAelpZbrfMKn8c3MUCMWYlSwYzicNvC6j6waEPdr0wDQa5+v59rkuusysC4LcIX6Olb7V0gLXVB22Vlzdqn1RewytKwIQWnfPXdSypVPa0r52/A3RuqdZMe1gMwHsUTz+kxM0N+eGH+cIeli92zY47xq0oMGRcNhwMuGiedxOth8K5eIMDQ7SubPn6LU33hAbFg6P1pZ22r17O+3e3kFFpZWGdxC2j5XumMMhsD+ctBLPNHuOlfMiGEtq+ckMKrEx2TAJLC3R9i0t4g0s9pIROwWA4XHUbl5MNB8An8M2bTZ7qbvrIn3jO98TB8u9u9sp7iyUpSqxhGNl0zaqLvMZ3mBMNOWlzNeHHErYjHMBNSvMcdHYlJ9ujIwJBS3gSY0xw2zQSg+dtI0ngJrsaptCh0j+XSw6rRhANu1qthnVhk4OP/rRj8UbumvXLvndRb0rZTMzjKa6qjSvdrYN54h1cZGsAUE2MDopDdxwPSi3VJyIsI8/8YlJ2rN3jyF81LmgaR7MBICqrqHBKIwwtL9TW2EQVBnXFvdJbFsWggAuhK8S7Ajb9PcPSHJEb1+/3EvE/QF8OL4Q400zQfjYyoNstmmzgVgxEbUfvNku1rjllbWyvi96SYMmw/8CsILFxPUUWVxLhL60BnSLnWzzpljz3lIx/rsCLZxMTAc6p3kwygFTxFweFwY23tlzrJWOHxdvGzoelpdXsD21RbQRnEwIvqPliX9+NVizgSZuyRGWRZ9ZUOTne8XbWFaULzcKoAV4UXqF2No0a3f8bm1TK4FxzvMFBx1GR0V0P5zkzy9cuESDLGSKiovTNKhVs0F641Fc1UK5rGYWF+bFSSVaChMssGzYoxBGCJ84mHJj8qn3V7yZBbLGbA3TUAgdOMHwncEBr7G8o92y+gBA8IPvP0M9Vy7TkQeO0Mc/8XHxclu1lgKucupkCzkBpBgDJppKvljWl+AEKNWYzc3NQS3V+wHxM2n7FyEBQprhOeWYJSVlYrdnSmNEmO+Vl16mF372M6quraWnvvhFSWwwa0T8zo0bNzTexceFc84TTwl4k2y3gqZiG2dz6NKV60yHh4wlQOU74lT0yTVc0lkW5hC0P47ty3OTw5MviSLB0NrZapk8zfCXJFzz4uQq9mlmkfJZ4D4CF0gE8vJYXXp1GtoioR68sLCoe3JioqewqOizNwNe561SYZ443VeZEmBgmmfOKxcVf3dd6BK7FYsi44bBmXEvG+d7tm+lurpauUjhCN/k2IL0KMrmIMoUCJcuBCrbhyd1RI/J4bstLa1UVaV5V3/wwx+Jc0Q5Unr7BkSTbw9GqCjPI1QYfZKwzU7foHMXu+lSV5fQr/vYnlP2rJVq4nNMRA9LeNgzmPTQogE+f2gcbHgOJVY692OyQ6PGmDbifTMtw/uUs8IcSgu9FCvIpUG2cV2yvmtuesyTAfu97z5Nx44dk9d+ZgewoR//yBMZaTFeY95Z7UUIViTMByO1xnlo47aJD0HZq4WAY0zry4zPV7ziIr4M5qDeL4HsKMjV7ed8qqoso8WlgIzRbJ9j8j7/3PP0zA9+QMPMiEZGxiUj7itf+YrBHKAAsLoCtBgcmqoRemlZGfn5+7lzs7TkKxXB232tT+6xClMFddbwxKOP0Od///Pyur+vTwCEOTo7M6OH2ZB/DBjkG6bTeqmnq8KF6BnGygd+C03YrHTMhOBVWWwS5dAbrmODGcng7eTz7mabt6ektHRDJYE3BVok9U9PTT/DYE3r1I8bBiAhIQJU+M0Tb0kMCxSyA0ta3LWPtjQ3GFIRgA1bwGqVYNpnrjSHhzkuCq2AiwG6BQcIwkgqjPAHX/gCtW3ZSt/+9rfFOeAGjSwvl2bZqJtE9tUSa/78PK9kGJ186y2JW+7es4d+73O/Tx//2BPiGLJSTGuMNWHPXm8rzjM+rUDcaYBZOw89aT/DsiLYD3YuJqGS1pqwchia6Tyzl5deeoXa25vFOdN7WUv3RPwTAmstx87aSR4e0a4QJrm5rlXC8mbriwBYr/g0CpSgT2NJsKlfZvsXVBICB2wFaYPXeN7s2btXAA729DFmERCU//RP/x+98847AsZ2vreFBV4JJ/kXQ8JaQMnNceKqmlr63O9+hj716U9LrBdsA9c2yPedTTmZN1iA/Nibp2Wse3Ztl9a4M/55sZOzATeTvavSUJUAM/tYIAwRHxdWyPd1iYVfTq7W1lcxCgiPYCjUOT+/IJqXhdKaWVbOjYJ1ZmaWwdorHmEVsAdoJdaoLx/BXF0ybgBYUEwkBUgIhyWnsjuUFzfj76xThB0SCTkrnkBor8bmJqkEQpJGHmskNTkhqY8euZ+2tLfST378U3r66adFi1ZXV4uXE/QPN/nixCVJYEB44Ctf+VO5wfBQWqlm9rCKU3KUV7SN27Sie9SYrBA+KvPJcEK50jOiAFh42RHuggbN6CTh6w5TBHZTU3O9/N5kIEHLgzekbFGxjLUcVtk8zy5LYYAalxI0ZiBbzxECynx+AAEYFTmxOPQVrVAhnkiLseMcJyenWNNHRCigZnqKz22K3xOBzaDFOKGhQf937d5FLzz/Av302ecksQFJIS2tLSJ4kYWF1RiQFgth98Tjj9Hv/8EfoI2MobXx0yoCgO8yNRUb9/nnXqD/+xv/QA89eJQefuCQxJiZktFMMGpyiFJWx5QZuKsAa2IW8NuoNFtp3MAPVfyg2vGAMjO+OmdmZ0XzFhcXZ6TNzvXAyrbaMzduDIvdCsNafkRPHEcTNVWMrgavbBckC8AljoswE4gw9QisipVutJRNTQ7ceAC2oaFe6Di0odmrataKoH8IpXzxqS+Qr6iQ/oElNegyaBjoNCgZqDucML/3u5+lRx57NG3Sm4+VTVO5bXHWQG6ZtNlSKJwbaH2D8wM4pBk38qVDi2lLjKjFosFoCnWBggT20ZExmfygudakk2zgzHYuyhNsTqiwCpqsjCKD1ta0T8iw9WHf2kyZTyrFEI6wNyDMg0GxPzNVVeEed3Z2UiXfnw4Wqt9le/70O2/LPYQDLSKadkrmw5Mf/Qh97nOfp46Orauux/Xr/bJqIOYFPv/yl79MjQ2N9Oxzz4kphwSZI4fvkTBhGdu6MxlCSzezxZK2tKiGtQGd6hypaqYdetN1sImFhYVOn08arsPrbNsQaNWyGvNzc6K+1U1Ubnh4OOP6shjmVpbSwZ4vJPJMDe0aDNzUia/syzZAYalI7lgsQUVMc5pYu7a1t6dJsbVAhpjh57/wB9TAFPr555+X/NFwJETVtXVCyyCVDx8+vIpOZgtLaDcjLkkToTiK4TXAlbrcRgjHrI1cLq2Vp1vP5VXvmz2z+D5eIxEEebVCU2OJDHFRF23bvp3uv/+w1H0iBxbOvX379okjZ6NaVWltTHaV4aSWOIGNbR6vecxmUGYC9cq5RcQxJJRe11bKu6+2xqYmuufuu8VzrLLh9u3dTbWsoZXQsN5TaN1PfPK3RMM+x1r3LQbaxOSMlm21fz899PDD9PgTj69iHEhJffONN5iOvyRjOHz4frr30L3it3jqD5+inbt20rPPPks//9kvxOsMloaMPIls5Gk2qzXGb56rKhphFWC2VHwN/4zd6BwpAOZ7gdJL8zpFsegEM4KCjdFjZHH0wWg3LQeppAAWpDLWYNGbqEmdpyO9SBuDkHCNpYQtUyqhNYhtTNK8Ispl2otJDGdGia9ELvRGAKu8pkrrPvLoo5KOWPy97xIE0dEjR+lBvsmKPqkJrgL/6jhafHPlb5w7UvagGeAFLNGdLgAeJqs1TIL3MX71vrLP55h+zftn+aZooEHFy/Tckmgk2K44X3jcl00uTVzjrVvb6Utf+hKVV7xA46OjQuePMLXDhL6ZxAtt8bGA2IAIdeE8YB+WFKx8ni2pAuejzgOf43sC2pxc3au8wAxjTig/fgOMRhbcMq2YgPH+9qc+JbWwXRcvitly6NB9Aub1Ojfu2LmTtnR00Ev//CKdOPEroblPPPEEHTx4MD0UyHMJ9iscXq8eOyYCAloMiT3IJf+93/ss28cdIvTgxASN/5u/+VvJI0B21z13H6TOlloqYq27pNut5tUY1BxWysls0yY3WD5pLqGUcCkzECn/zM+Xe5DpOM4MGvbr8ArDtkBliJKmqHoJh9PBulYqWSTD4lTWliXZPlOxN/w1PHCdTpzp1rKn9HDSWo4WUHhQRlSsICcYAPDqVBoT/s///M8lNgiKtJazRkCP1m2SB5s00uuQaywNsPm4syO9tFCoOaxgW2khqfiqihhzo3BVDQNHWDwwaVTWqD5QavU6TCAk3KNo3Hx9MU5MTjjT4PiDfYYgvlXwZAOu+kwSDjx6Qr9+HsgVDgZz0jpdWhe7Np8XzgXnCwqs6o21c9FDQcjJ1lmahL0s97y9vY0+9/nP0ZHxo7IOMCqZlD9hPfMEgvtjH/+Y5KojFbNCdxyq76LI4PLlHvrhMz+QVMOqqkrRoND4CO0dO/Ya9fRcod/65Cfosccek/zvr33tazJffvKTZ+n1146LOTXA2n9nxxYJUSLqwcYDgya2biMA+002KpAmBabrrLLIMh0nk6YVEZqjZwyZF61SB8+0ySrfFqkgydZWAz2LIW9ILbdL7GCsl9N97m36xS/fEHsFjoJ9d+3PGD81T1Jko6DuEQXTu3btpq6uC+LwePDoUfrtT39K6HJZWWnaMaxpdcbEzpDI27Gtg373M79DC4sBKioolFrVVDQoVBmOKYRohAmYSvMS+mV2IDHE7pYiCJQK4tnNWnyRtS7sWPl9t5Y5hUwubPt5UiJ2awVdM5sJeJivg/V5rQ0OvI9/7GO0c+cOtpOLpJggotvROAf4DlSZnWoNbr6/SkPYLHXIdv28QaFTDjc1sM2ImOgevhdFRauTQAC28oryrOPO5A03v2+lwhpTHKPvP/2MhMXg6ALt3trSKN5sbK0NdXStf4hOnz1H/8/f/T29+fob9PnPf17Mpa//1V/R4fsO0z9+92l6/fgxaT0zeOAAHbz7ALU0Ncu8cukMDtlRaS11dKfsrW4bXeMoEwJd2NGpawh4udZbWsN6I9cKRltBqp6VdoUnF273X75+QpwDsI//5Z/8CX3yU78t0hBjQpgGYRBFbdUNRE4wCui/+Y1vU1l5GX3mdyJ09VqvVBIN3BimhsYGeuDIkXW1kdmete7TyTZla2srj0MvuHfYjdcaHXZuuDG33ZRKJ8tSZuiejvpgjyn8czPAXMsBhWv5Oyx8Mp2HOof14ubWe4tQnPkczMe0nsd6zjErWDdyvmBZb586Rc/+9FlDuyIs5tNjuSicV/Y6Mr4qqz5CYJXI2vo3/+tfSujsj3mufeZ3P0tHjh6h//cb36Rnvv+MzB84zIQy79shCSAw3Up0hZTvssuaRdZmdUlTU4b1NlUPbl3qZEP0GEJSNQIzT751AWuZqA4jP5SyJmGnUWGXl+ystc52X6Gf/+Ilpn4z9OCDR8TuaGxuFRsIgD158iS9+uqrDNA4fYLpkdmOcUmu8XZ5nDlzmn7x4osrF0Viu4vrgnRdjzFrUfcajeXgZYfjQ9M2azegCwmDSbDWq82aipiJ2mZzkN0MkHF/soW2YD4gjoqulrk647JSZTPDQm45YqFmirreedyMgDELqkwAVu91dXXRf/kv/1VABufiQw8+SLUVPslZRqgS9jd8Cb68qDgNc/JzxScAp+n1vn761Ym3DFb20CMP07/6V39Bj/DzN7/7PXrlhReEMqNX8q5dOyWfHSE6eJq9NU3kDS9onT1FcMVWAfJmFd5aC61l1LTm8IF0tHsPmmNnSsQGqGEnUDJMC7OTdJZtDWQyIXHiy1/+Y/oq258qMwkld8cZrOdQSTExTQts43Z1ddOTjz8qAXhoDty4ew8dov/0H/8Dfes7/yhhAaUdjx59QLyO600MpcljpiVHjMnB18FmCm8lpUzPLVoEN+vChQt04lcnxEEFp4xbl8TWCe/UEyuWmGLDhmpoaKIHHzoqEwj7Lev50GaBI2NES1BI5FRK7LhVk32DdpT1PDRKnCdeW2geFBIg5okUzbzcXFMmXCwjaOHYq6yqpgceuJ92794tx8E5WP0XmQrq1ZhTGeYYkjEwaXN5bBAwbj12mw38Pl+JOLTgzIFfA+fgokZx7OA9VNzQ8pJUJbFokocnJ586tmw1KDOY2d/87d/RsePH6dOf/jT6QtF/5s9fOXyEfvijH9AJFggvvHCD71mD5ifZ0k6P8JGqW7ZKNhuYITKirNryvehZvSZo34sDJzK03DRrVwErvKjz8zR0g+2LM+fp1MkTYhc99dQX6Gt/8Rdid8H7d+liN71x4gT1XNLizM2NdRSuKpewxze++S0aGR+njz75EYm5wukE2wShg5MnTtIQf7+qogJ9fSRUtJb0h0MFmhIOHoDQYWpopi6+lbbAy4ffRLEEMnzeOvmOhISKVSZQImUU6quuFiuTMiU50leuXBfqiPI+aGc0DDDbNJnai1pfrx1vT+90YZXeqrMFqOzrx18TTyuSFaCBVnmd2VxSSfY4H/wNZ1OBnkII+onJbF0c7WadNJq5oLUWgkMG44M/Ava9saaPRfPCsfUXf/E12rVzp/QYe/2NNwWEoMiNzS2S8AGtOyf3V9meS7TMdjjs3X27t1O5L18cn6gQ+u///f+i8yyIweg+8Vsfpc7OLfTDH/6QfvnLY1L8n8/27ejEJP30xVeptWWIJqf8+tyPZVxV8b2yc99z0MZNKYfKEWWuW1VUGJoMieBnz56lC2xTIFG/nUH11FNfZLvij+U7cCq99NLL0iVAA2ujXFSVIrdjSytd7ddKzFAU8KlP/hZ9nB+4uQgL4AFNhgtopoLmG43XcMAAqMgqCuoaAgCGc8WRJQlEMQc46nJZG02Mjcv3AViUHaI4XALnDpnJciPVe4rBqCsFUE+zdh4ZviHhCxT+b4St3CrbMQNeLbINezCwEBABiK1IEt9zjPDdSgJA+vTIzdMqZXAOkxPjNDQwaKxeiMqaW1oXCA0AdK3sztU6ksj4WBDAa44MOAAZ98bKmNR9R4eOH//oR+IXefpHz9P+/fvovrv3S3YenIHLAb8Rhovp7XYgcDC3HnvkIfLP+enixR568cWXZB4+/uADdOTRJ+jP/uzP6OiRI5LDXF5RSn3XB1jzvkA/+/kvJKIADV/C45N1j9dx3lop9EaFm/NWUxuzbR49e0dlRsFID+u2naLCU2M36Aqf7GkGI9qjIvTw6U9/iv71//KvJfMFQHv+2efoe9//PrOZEHV0tEkxtsrLVRUorR07tJzRylL6ztM/ov/63/4bT7oxBv5T0jkCdMqaMWVOnEAMFlQY8c7RkVEtflheJlp2eWlSKpVsWLQpgw2rLjJSK0HflvUEdfGksq2q+j8pyQutGtdjrkrjikTWKSeEGDokOp2LRi1tNkqVeA/pljoP8f6aPJ8YVzSycg7RSNhiE7tWnYNQ5cACeSa1bpfmuOxav53pXNCtESGvKrSO4XsIAECwogsKtG4Fs6difoYfI5Mt/9BDD9GBAwfo2Z/8lL7JptJrr7/O13WZHrhnn7SM8bhKJZnFHFtXcfR8t0ciAx955AHRysfePEX/J2vdV14/SX/0h19k1naf4YPYt/8AWszQt775TdHumiDzCuCgAKSy6D2mx6tE4F/+5V9+fmF+vkOtn6M1uE5mtKHMEgFSCgkC8LLduDEs4YgdW1rIV15CS3zzsS6Of3aa+gcG6MVX36Cfs2QaYU2LBIevf/0/0b/80z8V9z2cCN/8xjfojTdPUnFRIWvfVmqsqWRtlpcGWM0p5BAnCKTvzs5ttBSK0vPPPUfHmeKhg6HUZ6aFiFbOARcUmhFJJCgWwI1zsmaBQwWTD0kHkO5OS9KINBE3U1O9oBoTcJSp+Pyclq6J8ZqFBTQH7DbNM7uS8SMe+liCx8rjZUGD8eJ3rTdZqkTUIly2jS39hbGlYP/qz5nNgpT8FtgCzgkLU2kpq1Gh6hgjHFJ4BhVO2exSm4v3AFhpi4q4Mp9DRUWZpAXCfpTuHugauda84c+yfQ4hkuJ/RYVFVFhUqCWDLGoLhUO4BKV/cshIvczkJMP4oXURLixipnX6zBl67c0TzAIi5ENxSXGxZgLooAdo4RgMh0MMagS6bOJpbm6opdr6BhpnNvXqseN0qbtL5npFVaXY/LCj7z10H7W3tlL7li10990HJHNPCvix4LlehbYWcFN6Sx7sAyWmssLAEP/6r//636+pVRmA7puV7oajQdEBvojFTBEqK7V46FDfVSmdQhkZigmuXb0mHt6vfOXPJC0NnuFzF7pZu/6Y+nqvkzMeoMqKWmquqxbtCs+fsbI3S0LUqxbqWi6Z8Kz0LOZ9Rka0jn3II1WJ52k2GV9AFCMDsFPTsxQNBQ1HEYSAZVYJtQF9tNqBDlM+qWoKJ3nDTI/zkENsWZIC9o+imunaypQ9ped1G27/NToo2G8yrLReqZl5qRWwApfLkUaF8Tq/MCftHBR9TmNaepO8iBQC2G/ZrnOwcFOJKGY7V8VBk3o6LZLs4VeASQQN7HA40sJ1+GlJV/yjP5KY97e++S16+eVXpMb7gfsPS348PMB+/R4qpYBnPJQp1trgEUaFeTM4eIO+/lf/mb779DP0hd//nMxhaN4nPvokPbAclFAX7iN8E273IJsNk+Ksw3VRDdXlOidXt02yroKwIXrMF8a5niMj049IbStLR0hXSAkA6nz3NZqanKAzF69JahgyTCCt/+TLX6I/+hf/gvbs2SMdGL73j9+m02e7pHsD6g1VBwgtnS5iSEFFX+ClA4CR5I5MLXMtJQQB0uEO3H0wLS4IYKKGEl3yhGYpUNNKfyRr0r3Nvn5NpSoImGKJClvUZXcaZXXK9Y+k9soqLRwCBw+cbwoI2DcWC0mR/jjbhNVV1XJz11z75j1c1c6c3YbuEEitVI4zpUkhDH2F+cY5YBLOBZbIQ9oCYeoccP7Q1EhAcOpVLckstlq2ND/1GQBrz7B2kRTG8+fQuMjQg20JgQ7Nj7kB8GSK8eJ9hIEA7L179zJdflMcVaijvmvvbumiohxVmFMKvNJaVo/voqVOGc89FPrj+iD88z/+5u/ofNcFevTRR+nee+8ltyl0B7sbS9xM10yzrTtB05NTcuyI0ynJK5nWZlpv6c5s9mvaQiuQBpkAqxb3RdFANJQQhwGCyyg0BzhfemmeTr1dLNU+Rx44LBQW1LiluZmOMl3B9vOf/Vwad4l2ZaDv37klrbwtUx6vOAsKS6RP8dnuHmm8DQdA57YO+siTTxqJ4GkhCbaD0AESGhZgVeEctaCXYgjxDIkE+My5RuqZVpIYoGtXLstEtmoo0VroqFGmZf2gkZvqL6y0Ff5GxU5pST8VF2rhCfOEX2uBqne7CZPgBwRuH9+fsfEJPe0wXfA4ZRWIcsn6wjkk2f5OwG4X0GrngHpldMKsZJsRWklarWQY63rjl7JP0HpdKTj1nAGZ5Bn8C6qsTXLBUbLX0mKku65KjunslM/vufceeu3461KbjMcVFvyH9u8QLzOcVQq81jmIv+uryqmypIjGppqkU8av3nyLhgaH6MzpM7T/rv20BbFfXetDWKDGG0xgunKaKfaoCL0QWs4CvGKz56FjYZozai1F6cxm5yZ1yigL+JomttKuCrDwnuJiVtVUU1mpT8CJG+iP+CUu+sTjj9OTH/uoOIQSetYMekX95Cc/4ZM8K0Z7c1O9XAQ0hIb2VIFwccjHtNpTZLUgWwp2zRBT4KvXrksHPGygOV946ouiuc0SFjYPKAoafKMOF9pf9cBVgJXlD2ntVd2ySjxdQ6FXE26Eao9qXT81x6alOCYs3ffN+yFsAk0HWplrSlu0v4cOjLUSLXAO0PZo1WKl99ZQlYzLUsSPv+GAg7aFM8p8Drfs7UY8eY1V3kEzNcYVpWsDg8y2+qiQ6SfykdHQALnqmWxdAPquu+4Sjbt33x7Dy/zc9BTt2zsrucauHC+5cgsoaY/wb2jeZbM/BWbbvupqqReHUxW5zOi5dffd99K//bf/RjLvrJpeannZhkaXxrHRUXE8SlcLUxzfYVr5Ips0dzv8AAAgAElEQVRwy6hpM2kc86JI6DcM41rZLXCibNmyVSTG7PSM5Kwi2P7YY4/KxcGg4NwANTz3zkl6652zLNGnpA60vqmJ6iu0NDNQaaVR1VZZnC+aNTfHKaBTOaPQrvv276UHjz5Ijz7+WFqVC8C6wNoVVHhG+lcFBaQogFApd2pCmtcA2kimitJ00msIpgDCOVmcPGqTCg5TAYU9Q9cKxP0yhQassdj3Usua2YhqeQp6bx4fWIPStsghdmYYu1bgbqOkS7eN0UPqXa787ljH2SaLiMF5xr9z7XofvfP2KWlsAK2PRn6Yh/DqwrlZXFwsppJV6wIo8DLv27effvLjH9PzL7wg4IXNWltXQ63/f3tnGh3ldd7xK2kktCAQEkILixYkFkkgsMBgFgsX7+A4dhzsOrZjJ20TN+1pTvfTntRt2g/90DRtnDTN6RbHTttQpzbBTu2c4CBjx7iYgI0ksNkEwggBkti0jkbT+3ve9w53Xr0zGoGwG6R7ziCJ2d7lPvv/+T/lc4WayCTViW/tlkUzXsZwZ4mx6jwrbaveSoX5bvYpD1BwJ7XVJUYWmXGNRlRTjQsnTqjk4/dCLBKWpN9lmGMRu5RXVKjZs2dF3JFbbl2vVq1ZHamLkgnds2ePAA+IX0kQQUEChjNrap4A5bu6OiKCSnsT991cINAs1HdPnPhQvfnOu2JdKd7/xhOPqA2ffCCqtY4SDnHrCa3FKNcwbUDoNaflRHh5TNeN4/oEowTB77yNe+wVGomBXSFjg7FZ/YQxKtSgbc1nGBfvSw2GhsFGjXJIduO4a7HM+ZlxmLj33OfQYFoCFjo6DHDcaCdxNxZxd6wZPylutYLr1fbhSfXWm28KucGsWQ4zCXH5K6++qva/f0AtnL9ALaxaKP3GxvJ6oZDsoSc+94T04kKYt0WHbTt0vMvsJrvcCLuHcITp+J6JgoRFO3ftkowyHuCvPvyQfM6NK1ZE4QD8lrG8TFygZbC19bh01mGYxF02MW6C4IpJ3qwjmrT3kjPX1QxFmqUFtbS0TPx1+wLY2NwjR47ouKFB7Xx7p2hBEjKl5WURjlwGX3n7Ng11CYzySakZ6kLnGfXTPe/JUC7W3Xff6XBAVVZKjc4sg2bCFe7UrjCCiXIgi806qYX+eGurxGpl+hjQ0pyXcYuloO+xDghjShwLh/IaqTnAdi39rBTczPAGkXUOWeAHLxgi0Xhw1BbNyvBK9jsYcuJy99r6zcDxnpe8dkDJe41SGvLp+hptPB7vtWZ/SmiiNzvEBiYDP8XN1H+olTdK/GhLi6pdvFhVL6qR8C1W4wIjV77w5BfVHXfdpTZv/oF2m19Qh48cFKTd6uVLhQoINB9k6GdPtKj/+enrQn1DSPTIIw9L2RI4bSwmTz/cNDxYFRXlEvNieUmSehGFIwqtvrAptpYM9jucs7hP07SbIfVErbWmeHpb7QVgvrFxn3rjtZ+ovfsPy8YkIUWjNZnlvsGwSg8kDQvyiVuNZaXZeO/ePRIr0ES9+qab1IMPPaTd7TqVN2NGxH3Ckpu4tUu73wghmorUukwc0Df1qBvvAKLArT+hL86KG1eIu2woc7wbRLKfJEMsSztsQnkgEJV9BZKIe2msDhaLjTwtZ9CytEGJ/Ybc8lJPT1jax5zkjzupDtA5iQjv3KJRCmxyDBD6SMLD8STrEMPAFDkHFK5ROiQbAb1MygirQMgZMNbv9gUHUgNXJIRXgu6KYATII/SnqjMdXcKUwZSHqVaJjemAJKmY0wQBHokisNYOZW1GVEMCe5q+a5BPq/See/HFF8WSkoeBHYOWyXPnGtX2hh0Cq71h+XL121rQ19y8VgQP2C3ke+wJvFD+z3Q4xSPdw+pmZ09WF7XFBhkHXxa183CCDQPp9kVBCCbrG5bP2IeSEsnOxWpE5yIcPHhIffsfviV4WsjHliycG5X5RVAH+y4pm8+C50hCUS+DHWBv8weC4W1vb9PuTpFAGwFuL1y4IArYf8att6KdcIVxXaDbnORSuZ443irC2qFfJ+MY9YZCK0NRYuIZtHKfy74XiGM1R9L6wrusXXoE1WRe+z2YUDa9NNGnOiTcjnsZlPfxHlgr7In0Q55s4mghgbGO2TejK+cf0MouQwTVWFInyz0QVcc153AZ9RVUAf0+4klodA0RQMpVZrqT4yDCbE+B701N7nWVoAO6OH/hkvRlc3+5rhieXe+8IzBN9gUuM14Y+4RQzt7T7DGEDbYTwBIktba8+CO1a/duqe8a4r0HH9qkHn/8cek0Yz/hWf7jt78thoZqBowYlMvg9VqvP8vmdHbuQzhqlhGgFYFUMtjNIk9IKHtsCJ31u4SjBmYEwPtey+rnr/d0X1D7mg+onW+8qf+qV0trl6iCvCnq9OmzUVlhE9jjcpBkYrDzvoPHhMMJAAaUp7AKrNeCtXLVqojLbVgJEFbcCTtuNVPCjxw5rj5sbRECcuCFQpztZuUQlk590Skz0ZiN50AWctDTgTI4imyySeJQy2RDm+l3+gwdLWo1f/O7mbYX+S6sr7YIoGz69O9TPCCKsQKf+62kFGLDpIggYFEVHNbaAnEOcl303yglPAUUj2kk8DsPAfkHB9VHsYwA4MnZSqTfpdIBekn7I8eL5ZWRIdrbIkuOZwbYAiNEKyKC6xVelsMj9bg2GAt1nPwTwbmTU7nv/vvUZz7zcKS8yGdQwnxJP6hUAL2Ebwq2T7LZy25cHvP4uWZY2E4di5OLETIBd2RrouCKSPaYN9FVMdXNvvlZV+/oCXpfn/z1X5MulyP6oH/y05868UCuQ4hthBaBJW4lRjh7rls1Nv1C/fznO4UX6aaVK9V9992nbr/zjoiwmmFRXV1dQjp98qQDbMdlx6XGFSYLd/DQIXGHDLM/pSYEUIYSu/20mS6D3yW3mcBw08aLaeMlopwYL+DrHsqA5vRJ0VlPi4AcN+oi5NraOmCh0t0kjp97PJbLnA/w0lBSQK6fOU4jiOZc+GkP4aack8P167mMt8ZlJmuaPUU5wAF97F7FN5Jb7p1TGwuB54WVerPKmYEMwU3jMeBZgTnOzZ0qgst9ojOHRhVYRxhVwh5HWMgyM2aF8MrumeZ3gBmMZ6nTVpfzW6vdYbsJBagvRgSjQdseihz3meu2ZEmtxLr2aBbjMWJUCO/oEmPgWDxhjWdp8y9jN503o53IakEXYrdGeQNtw5hH5/+i2lr1T9/5jtr2mtPmBQcybAHErQbpBC7z3VNnhKsHl4NBxrjCMOTZXEFBvUEM9BCcMMghtDnWf4qbPT6kLef+A/vlNaypLioH68VF6TLjLiGLnpQh2tnrKgaiel4DUZsk5BMPmkQU+NM87RlQ1kGzs8mxTE6ZpF+OAaJGLBVaFAtmpq0jqCiQ/LxpUiYTNFQMQq+RhJD3dOuYOmto0C1nDYgHEyuRFfldn0eG3ogFMwokI8o5pLr1bAXQwyqRcQ5A8kj82eeA0IJmoxE+x4dWJtlSfqM9N6NMzT2I/HTZEfutZFmki0rQZk5Wm6HdH+pHX26voLoYUUld3QBBDNILoUF487QxwQKz1xE0u1wDZZHfIm4FiXekxYlH6R0m3l27+iZpYPHS4hjrapJP0pud5tDojuTl+QktHdiZ9gWm8A+qCNeBL+fGxGNvYMEr+9W/+ktV84PN6p/++V/Ulq1bha5jzaqVKjszLVJvNaM7cDcee+xR0UheNBNKA2E8q92Oi9rFRmBJhE3W1pxEUnNTs9wABARhpQG9Vx8zN4ahUtw4O84MGjZJezObkMByj43L7CWkM7/3h5zsM58zRx93lhbebn08uVr5EC/x/iMtRyWDCcDdzPyh/MBUNa4tXStz5vSKJyM9rVCb6mM2WO9hyShvhtkoEDd5lZEcUhmTnOcYihxrqJTNfjnoCkI+CT4trHQZcS6cA54MriRjOdjUKB1q7Aho7U0rBcHFuSHI4v5z3vqaUGmIumaeJJ6fF2GHKAPco+SkKGSYiZFlcJYH727KTvw31pZklHgx2rtiDxjEFgI+UwupmTJBzoN7iJXlcwdD58Qrw6PjNSbb7MeWYRsrZAPPkHCSKRuZWmnTZcQsYONym+wxMSvlT64r+OnUNCffE2UoLl+fYCJCm2lbHeEydgWUTCx9r2w8mzkvVkYM1xS2PZoD/vbrfy9d/wzEMq4z2VZ4h+HloZc203IbOTHiAR7ECDINHtdaB++4J5PdljsEljowWn+mFgZoaBBy8L2G8JtkCptMNPKAAyDw0+SREhddPlro+YxJbogw3HQkybGYZEFAa0g2LK4RpSay18JdC7RT/xzo6xWlghUu0QI+b/482RxO1rlXdTKUSQuwORYD3VP2tDuXUIzrK18Pogtrr8VuwKHvfEsrxJa8vm5u2PzWcNaii31OUiiQpMOAlLCQzPlS1tCwrj9UmCu18BomTpQj7nJb+ynJH3AOCAWbuay0VM4Tz+CS9jSw0ihVM4kwqhyGxaJbCIQT55EcBzyhn7/gUu8W5AfFQAxapbmYb8OTwVXMniZ7gfj7pDohQivMk3o/EOeakTB4PMeOtcjQcozFdO0aJ2VmRqbcSWeR3usSE2uhTvPwMRuKXnOalCDJvzCa9PK4nGiXmNgX4jmy2ca6eoeUR3lzoVBqIkIb2cgG/2gE13AfMziIpBIZNjMM2RZWW3h5rq6uTv3ZV/5UvfjiFvXCf78g5NTLlt+oHnzgUwLsRwHY5Gxn3XorxWbclR7atIac7GbqpIBsLOIOsr7Er6Jp9MU+33UuyhW2wQ5CzD1omPpTYpYRTN14qt6Mpqxk4quQT6dPpLNJX5/CokIpkf3vrndkM5BJzZ7qaPDJLm2LzJ3RYcGOhtdl6h1r2Q11Iuwookgzgc/3eXGpKe6O0Y5sc0ZKyr+np6Xu7BsItuwdyNbyllaRE0hZV5gR+nxPb9/UgaHky+/xiRFD0jaYqnKn5ws81ZwDLmG6e+yQxRP3SoJKu8S85qT2lFg11TUyAR4lh3dks+pHnUcCcTrvoY851YWbeiclJnuuhV1LNr296ZPS5ViM4sAKS2lIu8248lhhE8KIu68VEiEOHhPKl+cvhM7LfqBVD2FDcA3tjbMvhoYZrFgcYsa6gtIzytpcVz+0m5U5Pp+w0Maq7yGE/I3VbdXCBK0IDclMMvPSgJgT4f8BaiPkpSUlYlGgQ12+fFlUCQffHmA//bjEuzRCo50RnlRugtv2xYPEEbGtGXMJiJ3WP+IXA8bHtcOycZMuWk3qhr3fm9AwTBQoADKLpkRFksHGh9o8xpf3YrLcVKw8k+BeeullNbeiQlXOLRfLC5UoC2A5m5pjBnVDjE7Isf62W2VDsDlsRkO/tL/nOMjIfSc3M/Cy/nn41fYP1eutxer19qz9fzXvyK47KmbtyUgafLazZ3DYMXvPCW+FcaGtx4+rrS9tVS++sEUtWLhQauzEqQVuXEYtFOUCzpgSiExG1Mobri427HmLQC90hXBGQyhHosah8b1MXWPjkaGilf5avQ/ATBtFjaCnuPct1mIfkVRjuiGhC0qKGbMzi2dKqEC5CIXgWNxLsucv6f/jGnlxzfEI9yg3nTntjLcccJtVzNC6oRidUNaamnBMG/AgcWzTLcKrtYQ0+eoDIqYhE4tQGpfZ7yRkRMdnHhatY2eFCchlsJQL5TJxKz2V6alObdOpY6ZL3HOyrc1lPeyKZDXbz3QIXYqxotTucGuYGQoNiolt/ep95lyFLlYfDzdk7ty5Mf23cDiMipzm99DW9e9uvvlm2dRodTKqHZ3HRRGgYIDbgX6qnFumFtcuUdXVi9TaNWsoHfy+vpkX9TWii55dP+xnUlJS/0ib/dkjPeqH+7TS6mlXR6fUniotzX5O//dzMc6DrGCu+4j8rs/hCxvuuruqz20y55rTzUKijQ1HooUJC9lamEvLytXi7Cy1QntO2sX8Q7x9LcBoyEvuY9jv+jwuJSq8Zzs6wucZqaqvY5K7/0JuzRrXMhPyOR1WnT1zWsKeLFdhS3kqjlWXcRyDjtKaNClVSPjw1M670xg79d4yLnMq1YfuHpmukZV9XvYHcF72OnsyVn7HAH+wrnZmmNjVCKtfYs7zd1tCMa33ZKM4hdwvCrgze/gb4SX2JKYpLiqSOMdGmnghXJykTaSGK3xGUvNO3Ip1zch0MmkIKzdHBvhq69t++oyALsxcXFPSMW6v7RKjRSlsw3ooDAuhgZiJj4gQDyozS6U61qBfvenYzTxO+jz992w0LKaJtS9eSHMmvetNwrxW4WTSAkFCZMM9G9X69euT1DVaF/V3Zgf8N68+DwbudPg89Q3+2fqjrWG6sYwSNG17ZXNmi6fgxOipauOGDerOu++6ZudgW1fjHUkPrb5PMwpmqBuW1ErJjByJPbhsWFxtA3oCgQgIREAv+mHcf6w7LjOxedd0JwSkQtCrHMYT9jvJWaopWGNvVcUYIid5Gh27xjKEfmg1Z4pDyjBXwS+qP5NIaSECIUPbacGRvlLt9n1w8KBw5gKACHnGWcgJhcNiadv0BmhsbFTv7tmrDrz/gWikoH49vEBYVy7SZBF+JzGAYL+37z39+c4ga/7fxIumwD4cORPWgjI4LFkRdEsiKAX7IqZYmN9gMPjXV7K5tOIKN+3bJwKLtWXY06OPPerkerTrTs8voHLAIDAF7ntXn9MHB8Pa/Woasx3++aui+ZLha/veey/8iz2/EM8AalfyD/n50+V5hPR3vvxlcethLaQJvKmpKcz7xlpYsWjsIy+jgzTBa+Fhj6xcuUKtXLFc3GOESUAfgdQo99zbXoilNbV1pxTnwDAnZ0+RafOEe1Qfdr79tnr//QPO67WgI9CnteHAyDgAn5M65GmRkqVhj6RacOjQwUjXGl6p2Wted9jPPfYIdn8ilrbfL+nh/dtLpmwnqkgkEQNQR/WWh3r0/3OSEKlhZbkYJJnS6OFMvjxt3Yxw4DXHT5wQFxfNTtaPUo/p1nEEMxSVeJKkQySh5jC/G1A7sY8zVjEjwrBA/MONTnH7SN3ER91oNxgb9+mnvynsfcTTjz/2mLr3vk8mdXWdC//Hf/ynuJU52t1au3ZtEoJKOxgDuCn0r123rorBZzNnzrymFmuk1draGn7mu8+oV155VVonH33kV6U2ybV/a+db0vgBVJTwoaWlJTxLx3/btjeop576KmQHVYcPHw7HCy2uZIlLSQZ+MJoIToa8UWLLzRXa1Pf37xfh6bdm4QYHnQmHNtGesbRGsTO4Raya0NymSO8zv/M5ZpxmTc0iMRQILe5z0G1NJRlqElpBFxFGyIhr7M0Mj8TW4SfEScnJg4kIbSiRD44V60psqA8e4W11XWYSGAguAogbjQYjDjYKICOQHqm7mW5+NOyHWotBOE0sRRE/LzcrknEzAjvkQ6BttKq0mFmN54DazRzUqgULBZghZZn+gWFcSn4jOuKtf/2Xfw0/8MCnpTwFb/MXn3wyEhcbFBjfDScVa968yiQs0+2HD1d99at/qX7/d39PPfu9Z9W2bdu2anf5nrHa8KkpiTfRf/+574fv++T9svE/8YmN6nOf/zxWtllbs+r2U6fCbFLcT5PNLS0tTcJDWFp3Q9XffO3r6g//4I/Uv2vltOWFF8Moq7E4fr1Hjul7XRILFcU+w7riuVCGcmq8fXKMdpjn8DWH3b3hxr0h43GlR4SV/dJ1/pwkFA3JAp9rhkIbtBi/s4eFdbLP+T6b59kkm+z4daREry1LlpeakKXtS8Q9TvYBtEc2ipVkwuIO6QvACZFkAq5F3CrlG7dLxv4sQwrW2MyU9hOixbBOTAuPztYC9RuMQNdGWtxI2rfgpK1bdoPUjiU7qY/PRtqEevucEZ9Dod2jSJY0/e7vfFkd0Jp+7c31atODD0YlskKuJU91k2rhcLhYx5MntaWXg/jv538YBtO64/UGtXPn7XUfh4XFrf+t3/ySjFOpq1smtfPa2sU1yckpTd5atpvEknNAoBk+/sRjjzYeaG5WO9/6udr22jaSL00zZsyovtrj0teuRd+PEkkauUkom2RQ2kb1/aIjZkHVQgmzZHayVtgARADbmOqBxLspaVHZ4zQhkHP2T0fHGYE9tksy9JIg9KrmV8rnimvMXjaC6+ZDOBaqAYBJ8NzwQgyzJY9BF3xzpSs8NJy6I2FL6xVOP7b9KA0vnSCOpuECQOZ9trNDCue4wqk+GTdjZYkT9u1rlObg5VrA8l1WClL7fW7sES+VL8iYCJwt4Apnr3gAc+eWqfr6enGpiMG56YaFQwAh2i0nsZCVmfnHCbtv+lwg9cLl3nDX3SBhoqwMSQk2DSWDc04dts5OYt16+23Nf/HnT1VRt11SW1v0cQjtpPT0mnW33NLIhmSWzZIlS2q0UEZi1O7uHoe4DSSPDm3C4aHIObiCnYTyQWCXL1ses21ztEu7pC1aCOrPd52LKGsbBy0KVwsjggKoHwoXRpsAsgHdxf3FzSWRZtgjA24ox97kdee7TgkeuaujK0I2v2DBPGGuoH5OfkVcYjc/YuPPefAcmPkht8Emm9AOKlwP77PX4MX66ZGn0ce08Sytt4brtcBclEg7HidsCWw8d5tSDxdYemGPnRCrTGYvXVq/0i0s6sjdJMx35cYxpJlFkgGqD8AhaGQyhP0u1hdNCV8tbAKxMsd+C4uJtb1fx346FBhmXS5evCD466bGJukRvnvDBpJcW+33a49ke09PT33mGHArXZHQpqU1Ecps2HC3ZN1tgXVd/OaOzq4qzmHXO7vU7Xfc/nv2ObDuf+BTSdqNbuLeGS/iape21o/rWP+zWFOUhXFPbcE1y4wOaWpsVIcOHZbaK5BLUHgIIhUNEpamEYL6KS18CCteGMJWWVqmysrmSkO8oTAi8WmTJQxZzRzJLuOHUSCDcYyJd7/H+um1QYkI7WCiljaRAzInFnD5g+MxQQTdbhxqY6TxETaoVxub+tQ0APX5eYJWycrMcl2aPhXSbrMp+Zj4FrI4YIuGYobYJXvyFCm3AL2jyI2VvXiuS74TsDxuDS2IJSUlNfpYR50FnZ6XVx3bWmQJvhqQBXXA8+eHj/3QbuY69TEvLWgx49CcnJymmbOKqzgHLMil7u56v9f5Ka2rXSTn2trapMiOxTVkaIYnOrIH+T+9z1DGtHee1gI8Qz9mawHE2lIWCpHU0vvwnOsy44HRQ1xTvUCVlZcLhDM7Z5qUmMyUBOOF2YI6LBEbCMTsykrEusYKO5VNjD0WljaWxfVDUpkLPFLLGbEBQrRg/nzRmkzzPtrSKplXHtyEwjmz1FS3/YskAgkp0+lhBBZXlef6XfwoAosLS/8ssTVWheOZMSNfC+sceK4k4XIthAEOrYcf2qQWLapqu2HpDbtLS0vvUb9kSwvOJpJk8yrn15WXlRYVJDjWcqxWUVGRJL2OHTtW1XrsuGP9XHTRkFNXFw9uekGhqqqaL+U1COLXrLpJzdHKGKqhfY37JPtNq57hdK6tLVfV1TVqtt4XYlV1GAC1EoYAhe6d/DdShxLGZNBi1fBmhBP5aRJR0sUUDl959jgRixrvpKTVy8N95KcQiC8RXHC4JaUlAtY4peOoI0ePCG1qm453jx87JhlgNCjT8SQWzbgcQ9HNofSD8pAUy10KEqw0FwKB5fMR4MrKSi2sWZtMwuVaLK0MktR1sMYyq32F11GSXjp82XyspaUKuCvJIVu4JmdlCHHCqpU3yX2WLiy91+ibnVlcLK79wUNHRWCLi2YIEyMAjYFgSDL7duwa2Zf2pAefaYWGD2skeqArsLJjb2kT0TxDnl5IvyKy3V5mWt+ARTocPpmqoKhYkE350/OlBY84l/m0Lfqm0RxAL6rEKb1KGAvMWElQSGjczq4uiWWBR6KZFyxcADCgWcdAm0YTu/6SrsBIIc8v03KVa7X2oKqLZs5spCRIrNsjI0IuCEKubG65hDq7d72jXn3lFXGDV69aLXEq4Aka4g0BHQT6+93GDfYX5R1jPOxxKX5Gyrv3jYtsW9sriWltRFRyUtK1iWnjaQzRPgAXLN7klDgudSQrx4XTGo8bwXtwf7gY639lvZCgk5He8foOtW3bdkHtAGGkEQBeqrWr18hnkPR5+3/fkc+srCiT7KJL6lUzDoRV7jvGRz/OXW8nRuKMjDUuc0lJSRUovKOHj6gO2indgWpigXTYRBLwvXf3quPHc1S3/jtdC5ehn6FJgCHl5EOqqhYIrlga0VVsrmnbU5S9nmBTRCKW1uf7EuqnHfB+SaIC6lsOinNCXnfAe/BcVOq83T292tJOVhWVFWppXV0kq8fkb9L7h/TNCg6lCgh/+Y0rpEWOhnnGWEALomNItazuBmqnDVOmTFmnxs8KXa9Ca7vM4XC4Wntk39KeUz112kvuOA8YKe647VbVogUTyCEeGsIJNzIenGDfO7qk2aBQv7a8rFzN1XuMjHKosyNCxu/FEiQSDvrt80TjWQ+4IiFLG/Q7oJG+eAS/3NeSxjpBXBMIzkAQgR0umJGvqmqqpVGeEg3jMI22gwUCjC9lBupqtPFt3bpV7X13n1px4zIBOnjrphPr+lpueUqUsfbO1l28eOlnZOhB5GE5iwoKI8waJgwji09CijCLhBa46nkL5quKigrhSya+Nd1m4Ju90x+8+9zLZxVwObLi7fME4lkSUQlZ2sF4WmKkgrCftY3y13xcAPtzBAJJml1fSOITElGV8+c1l5eXb+LmAJH72tf/Tl63ZvVNUkoq1pYVXiOoa2iKb37/oDqjtSdtecDwxvF+Th8psXjdBfCBwHbkGBw4/MPkQEIuLdCcWUXO3CJtYUFJMUOKsAkcPDEuDJ0sGuKxstmTs+Unfd02/U8i1K4xk1ZxEri2LBlsvf49IaENepkC4lna0WgNc2J+rPmSNdYXBxI0FvUyGOG10EXVTaUgzsiP7kviFpeVlIirw/yV995rlwrzld4AAAgHSURBVP7O++/9hFq8eJF+/6IxK/L/ErvH4fFystotDhPbNu1rVM8//7wIITVbssSVFZXCrNGulfnOt3bK6++86y61YsUK6cj60ZYtasuPtkpeZFJGulq6ZJG68847Jb49sP+AOnP6tOwzGxxkrG+/yR5H8VWFYoaPsYBF3udd2G5iQuunKWKlr/2+NBZwwn6vwZHyWoGBSffEgI5D84Q/aZ62kH6ABcpAtVogYUygME4MQ032onA6damCnm4ReHh6rpdSy1Ws4HiytG+//bZ65t++K3sjN3e6JCU3btwoLCTFxcWSfHz5pZfDpk6L28se0W5sdUFBYeM3n/6GeuaZZwV8Q+z76QceUIsWL06i8+mtN38u8FrjAU5yu9JCHuM1UgLXLwFr/217nN4cU1yhDViF5FhwxdH650Yr2VlkhPWiMPwNqClTs6WWxuzQ3NzcqOxuV9e57ZcuXayHVO61116TOizFcOIQ3Bxcm9WrVko6nxa+l156Se3Zu0e6VrTFba6uqf5ScnLK9nEotFzscaO4zneda9u1e3cRjRuLF9eqz372EZrzo5BeJCmnZF/m4kJg8eT0z5pPb9rUSC7k3b17ZWpezrRpElrNnj07CZjq0SNHqg407xciBhgajfCaTLLZ236eajx32SvsAuwYGBhd9tgP0eGnOUZKTnk1kKnBEuDjBpNkgu0PV5a6WkFBQYMXzrdjx47wU3/2FQGrG56nVatXqZtvXiu///jll4VrdumSpap+Xb1Q0fz4x/8jPa07d+2mS6Nq+fIbf6Y/B4XQMHPmzPGUPQbHOTReTrZ26ZLd93/qUxspBZKEXL1mdZTAkqRqaGgQsA0dP8eOtqjq6mpw4PcguGSdn3rqK7jVbXyWFtYImASvDzaTwsLCRsjymQ9lklu4zTQsBHxGlfqhoryZYlugKW32ui1+0LpmZmaNbGlDoaGgvFFbsHSfA/GzpInGtLAqdl+4II3paCpijHkLFqjS0pJb9EkPs4S0iz3/X89HXJZZs2arJz73uHrooQcRQOlCefobT4dBuNCdU1BYmET6f9q0aZsXzp9ftb1huzp8+Kj6xZ53JQ7ZcPdd9e2nTm3Xrxsvgjs4nmLauXPn3qO9se133nF7vfbWGkpLS6Puc1tb259TeaBmy3rjzTfUjStXRFohRwqnXO9PasPayFR9cPCwam05KlYbyteCGQ7Tvw2u8FrSWLIhrI+9vfI+FADlyvz8/OZp03L+ZEShTUlJHuBNZnS97Wv7aQw/Cxsl0JyAdoPBiiKwrDmzZwlqpay8vDke0B4t2bB9e5gBSCBfVq1Zo+69995Iryquzfee+Z7EJzIDZWCg2k3/S+1Oa8vG5557Tv3t174uQs9kgY33bKwfR5Z2cDxZWpZXUD2CIS1+zJKFsbPPaTwYdSukqQ1rz3Dz0eLCqv3iMp8WC2lkJmCNRYll6MxzxK9Bl/OqMD8fq96ck5u7yQWQqBGFVgvKn2j//d60tLQqpqmbgzAscqOqx7oHxkFxAmB/y8pKYV1vnlFQsMnb/uW36tetS9Ku7fb9+/fX19bWNtTV1UVuSmdn51/DhkFC6tBhwSU3mhiOz9YXtua2225r3LbtZ9KgXltbTbzcMJ4qIGpiRRZNDutvvTUyg4jeZ5pSrmTZxmHW7DmbP/jg/aoPW0843NkW22ishJQxfsgX78GrdemZamIJa9ybivXDap1ub28ESUJfa0SDWIIbS1Dt5/pcYq6imcXSp1pUXDziQXnX2rVrfbXnoUOH6uidhJ1x++tvqJI5JUJKZso8XFitgNRv/eaT6tyF822rV6/eXVRUdM84E9qhCXG97P4Sl1bOm7cZCiBq/1cLZzXCSyODVgqNwlGlLXg864oBk9qxlim63+gDLi6eiStcnehN9V0G24kQaGtWxcEQqGNxDSvBSNkwDg6h5T1wyBYVFX5xLLtpYMSjaUDHKvJoaqpVt91+m1cBjeeyT79SKm1CXIfFpWNeu2dfa4XwRHd397+Zae5klr0cx4PumBgWwlpQWNg8NSdn02gM2YjuE1YLq5udnd0I+z98OAiizZJum30vftgsXpuUlHxyrLOF69ffsjFFf3betFy1ZvUaNT0/f9PE1oys8HhKRH3cS+/xluTklGGW1chHj1v9gHIY+tnp06dfUeNKQjGP3VHR1dVVZUDZmHhvrBur7GONsBjLpMM9ra2tW9esWVOnlUtRRUWlGq3rfZ2vtAmh/ehWMBhs4WeKOzwNq2riVh7ICllh2kITdYWvOlFhmpAnT87e3NnZIcJrRvXZvE9+Ma+bSTs51hfKrqVNrOEh14TQfqSud8v+/Qfkd5MDMl1uMK7kOnNvr7otdNTZRdOETLllclbW5tOnT1fhMpthTik+PDpW0H5y4tZ+5DHtRAb5I1yDwQEp/ZiMMK6wxK4FBWNGZ3TFN9QF8QtKpL29XbJmzoS5UFS8a7oVxto1nlijimsn1ke0qLVCXQNPWUFBoQAkcnKmJlTevOZCa7kEkXi3tfVEFQOHDAzLCKz7c8LKfvQLntGJks9HuKDhnVUcwhVuKCoq/NK14B4bM9cJ00+WOS8vd3P7qVPiMpuRGxmZGQjuhKWdWNf9orngWn/HmMY7buZWXOazZ8820srUl9JLGQbW/glL+/HEtJMmLsP1ta5JksK4zGc7OraHgsH6jMxMuJm+MHG5J9bE+n8qtGZNz8tbN3GJP9Y17uhmxsNKnrgE1/WaENjrcP0f7CfU13bPEb0AAAAASUVORK5CYII=;" vertex="1" parent="1">
          <mxGeometry x="270" y="90" width="237" height="149" as="geometry" />
        </mxCell>
        <mxCell id="t8Q2t27Iab3_0A_IBycy-8" value="Inductive Loop Detectors" style="text;html=1;align=center;verticalAlign=middle;whiteSpace=wrap;rounded=1;fillColor=#fad9d5;strokeColor=#ae4132;glass=1;" vertex="1" parent="1">
          <mxGeometry x="290" y="530" width="90" height="40" as="geometry" />
        </mxCell>
        <mxCell id="t8Q2t27Iab3_0A_IBycy-10" value="Cameras" style="text;html=1;align=center;verticalAlign=middle;whiteSpace=wrap;rounded=1;glass=1;fillColor=#b1ddf0;strokeColor=#10739e;" vertex="1" parent="1">
          <mxGeometry x="440" y="370" width="60" height="30" as="geometry" />
        </mxCell>
        <mxCell id="t8Q2t27Iab3_0A_IBycy-11" value="" style="endArrow=none;html=1;rounded=0;fillColor=#f8cecc;strokeColor=#b85450;strokeWidth=2;" edge="1" parent="1">
          <mxGeometry width="50" height="50" relative="1" as="geometry">
            <mxPoint x="140" y="504" as="sourcePoint" />
            <mxPoint x="577" y="504" as="targetPoint" />
          </mxGeometry>
        </mxCell>
        <mxCell id="t8Q2t27Iab3_0A_IBycy-13" value="" style="endArrow=none;html=1;rounded=0;fillColor=#f8cecc;strokeColor=#b85450;strokeWidth=2;" edge="1" parent="1">
          <mxGeometry width="50" height="50" relative="1" as="geometry">
            <mxPoint x="141" y="503" as="sourcePoint" />
            <mxPoint x="141" y="340" as="targetPoint" />
          </mxGeometry>
        </mxCell>
        <mxCell id="t8Q2t27Iab3_0A_IBycy-14" value="" style="endArrow=none;html=1;rounded=0;fillColor=#dae8fc;strokeColor=#6c8ebf;strokeWidth=2;shadow=0;flowAnimation=0;" edge="1" parent="1">
          <mxGeometry width="50" height="50" relative="1" as="geometry">
            <mxPoint x="179" y="470" as="sourcePoint" />
            <mxPoint x="180" y="340" as="targetPoint" />
          </mxGeometry>
        </mxCell>
        <mxCell id="t8Q2t27Iab3_0A_IBycy-16" value="Other sources" style="rounded=1;whiteSpace=wrap;html=1;glass=1;fillColor=#b0e3e6;strokeColor=#0e8088;" vertex="1" parent="1">
          <mxGeometry x="50" y="450" width="70" height="30" as="geometry" />
        </mxCell>
        <mxCell id="t8Q2t27Iab3_0A_IBycy-18" value="" style="endArrow=classic;html=1;rounded=0;" edge="1" parent="1">
          <mxGeometry width="50" height="50" relative="1" as="geometry">
            <mxPoint x="340" y="530" as="sourcePoint" />
            <mxPoint x="370" y="500" as="targetPoint" />
          </mxGeometry>
        </mxCell>
        <mxCell id="t8Q2t27Iab3_0A_IBycy-19" value="" style="endArrow=none;html=1;rounded=0;fillColor=#b0e3e6;strokeColor=#0e8088;" edge="1" parent="1">
          <mxGeometry width="50" height="50" relative="1" as="geometry">
            <mxPoint x="100" y="450" as="sourcePoint" />
            <mxPoint x="100" y="340" as="targetPoint" />
          </mxGeometry>
        </mxCell>
        <mxCell id="t8Q2t27Iab3_0A_IBycy-22" value="&lt;h1 style=&quot;margin-top: 0px; font-size: 16px;&quot;&gt;&lt;font color=&quot;#333333&quot;&gt;Stream Aggregator&lt;/font&gt;&lt;/h1&gt;&lt;p&gt;&lt;font color=&quot;#333333&quot;&gt;Aggregates information from the various data streams&lt;/font&gt;&lt;/p&gt;" style="text;html=1;whiteSpace=wrap;overflow=hidden;rounded=1;fillColor=#fad7ac;glass=0;strokeColor=none;shadow=1;perimeterSpacing=4;spacingTop=4;spacingLeft=4;" vertex="1" parent="1">
          <mxGeometry x="60" y="260" width="190" height="80" as="geometry" />
        </mxCell>
        <mxCell id="t8Q2t27Iab3_0A_IBycy-25" value="" style="image;aspect=fixed;perimeter=ellipsePerimeter;html=1;align=center;shadow=0;dashed=0;spacingTop=3;image=img/lib/active_directory/interface.svg;rotation=90;" vertex="1" parent="1">
          <mxGeometry x="85.64" y="350.36" width="28.72" height="13.5" as="geometry" />
        </mxCell>
        <mxCell id="t8Q2t27Iab3_0A_IBycy-27" value="" style="image;aspect=fixed;perimeter=ellipsePerimeter;html=1;align=center;shadow=0;dashed=0;spacingTop=3;image=img/lib/active_directory/interface.svg;rotation=90;" vertex="1" parent="1">
          <mxGeometry x="126.64" y="349.36" width="28.72" height="13.5" as="geometry" />
        </mxCell>
        <mxCell id="t8Q2t27Iab3_0A_IBycy-28" value="" style="image;aspect=fixed;perimeter=ellipsePerimeter;html=1;align=center;shadow=0;dashed=0;spacingTop=3;image=img/lib/active_directory/interface.svg;rotation=90;" vertex="1" parent="1">
          <mxGeometry x="164.64" y="350.36" width="28.72" height="13.5" as="geometry" />
        </mxCell>
        <mxCell id="t8Q2t27Iab3_0A_IBycy-29" value="RPC interfaces unique to each source" style="text;html=1;align=center;verticalAlign=middle;whiteSpace=wrap;rounded=0;fontColor=#595959;" vertex="1" parent="1">
          <mxGeometry x="178" y="360" width="100" height="30" as="geometry" />
        </mxCell>
        <mxCell id="t8Q2t27Iab3_0A_IBycy-30" value="" style="sketch=0;outlineConnect=0;fontColor=#232F3E;gradientColor=none;fillColor=#8C4FFF;strokeColor=none;dashed=0;verticalLabelPosition=bottom;verticalAlign=top;align=center;html=1;fontSize=12;fontStyle=0;aspect=fixed;pointerEvents=1;shape=mxgraph.aws4.data_lake_resource_icon;" vertex="1" parent="1">
          <mxGeometry x="460" y="260" width="78" height="78" as="geometry" />
        </mxCell>
        <mxCell id="t8Q2t27Iab3_0A_IBycy-33" value="" style="edgeStyle=orthogonalEdgeStyle;rounded=0;orthogonalLoop=1;jettySize=auto;html=1;fillColor=#d0cee2;strokeColor=#49889E;curved=0;dashed=1;dashPattern=8 8;" edge="1" parent="1" source="t8Q2t27Iab3_0A_IBycy-31" target="t8Q2t27Iab3_0A_IBycy-30">
          <mxGeometry relative="1" as="geometry" />
        </mxCell>
        <mxCell id="t8Q2t27Iab3_0A_IBycy-34" value="" style="edgeStyle=orthogonalEdgeStyle;rounded=0;orthogonalLoop=1;jettySize=auto;html=1;dashed=1;dashPattern=8 8;strokeColor=#49889E;" edge="1" parent="1" source="t8Q2t27Iab3_0A_IBycy-31" target="t8Q2t27Iab3_0A_IBycy-22">
          <mxGeometry relative="1" as="geometry" />
        </mxCell>
        <mxCell id="t8Q2t27Iab3_0A_IBycy-31" value="Cloud Data&#xa;Transfer" style="sketch=0;html=1;verticalAlign=top;labelPosition=center;verticalLabelPosition=bottom;align=center;spacingTop=-6;fontSize=11;fontStyle=1;fontColor=#999999;shape=image;aspect=fixed;imageAspect=0;image=data:image/svg+xml,PHN2ZyB4bWxucz0iaHR0cDovL3d3dy53My5vcmcvMjAwMC9zdmciIGlkPSJzdmczNjAwOCIgdmVyc2lvbj0iMS4xIiB2aWV3Qm94PSIwIDAgMTIxLjI1MDg4IDEwMC4wNjkyMyIgaGVpZ2h0PSIxMDAuMDY5MjNtbSIgd2lkdGg9IjEyMS4yNTA4OG1tIj4mI3hhOyAgJiN4YTsgIDxkZWZzIGlkPSJkZWZzMzYwMDUiLz4mI3hhOyAgPGcgdHJhbnNmb3JtPSJ0cmFuc2xhdGUoLTQ2LjIyMTU4LC05OC4zMzc4OCkiIGlkPSJsYXllcjEiPiYjeGE7ICAgIDxwYXRoIGQ9Im0gNzkuNjMyOTE4LDE0Ni45MDY4OSA2Ljc2MTM0NSw2LjY3NDAxIC0xNC4xNjk0MiwxNC4yODQ0IGggNDcuMDI4OTA3IHYgOS41MDAyIEggNzIuMjI0ODQzIGwgMTQuMjA4NjkyLDE0LjMzNjU5IC02LjczMDMzOSw2LjcwNTAyIC0yNS41NjYzOTQsLTI1LjY2NDA3IHogbSA2Mi4zNDM0MzIsLTIzLjcxOTU4IC02Ljc2MTM1LDYuNjc0MDEgMTQuMTY5NDIsMTQuMjg0NCBoIC00Ny4wMjg5MSB2IDkuNTAwMTkgaCA0Ny4wMjg5MSBsIC0xNC4yMDg2OSwxNC4zMzY2IDYuNzMwMzMsNi43MDUwMiAyNS41NjY0LC0yNS42NjQwNyB6IiBzdHlsZT0iY29sb3I6IzAwMDAwMDtvcGFjaXR5OjE7ZmlsbDojNDI4NWY0O2ZpbGwtb3BhY2l0eToxO3N0cm9rZS13aWR0aDoxOy1pbmtzY2FwZS1zdHJva2U6bm9uZSIgaWQ9InBhdGgzNjE0Mi02Ii8+JiN4YTsgICAgPHBhdGggaWQ9InBhdGgzNjE0NiIgZD0ibSAxMDUuMzM1OTQsOTguMzM3ODkxIGMgLTExLjEyNjE1NywtMC4wMDg1IC0xOS43MDYxNTEsNC45OTk5MjkgLTI1LjQ3ODUxOCwxMS4xNTQyOTkgLTQuODYwMjQ5LDUuMTgxODkgLTcuODUwMDUzLDExLjAzNjc3IC05LjY2MDE1NiwxNS45OTIxOSAtNy45MTYyNCwxLjUyOTA1IC0xNC45NzI2NTksNS44MzI0NCAtMTkuMDk5NjEsMTIuMTAxNTYgbCAtMC4wODIwMywwLjEyNSAtMC4wNzQyMiwwLjEyODkgYyAtMy44NTQxNTcsNi43NDA3NCAtNS4wNjQ5NTksMTIuNDUwODYgLTQuNjM4NjcyLDE3LjI5MTAyIDAuMjM0MDk5LDIuNjU4MDIgMC44OTI4Nyw0Ljk0NSAxLjYyNTExOCw2Ljk0OTk5IGwgNy45ODk2ODcsLTYuNjU1NTggYyAtMC4wNjcxMiwtMC4zNzM1IC0wLjExODQ2OCwtMC43NDg2NSAtMC4xNTE5MTQsLTEuMTI4NCAtMC4yNDI0LC0yLjc1MjI5IDAuMjUzNjU4LC02LjExNTY3IDMuMzMwMDc4LC0xMS41NTY2NCAyLjgwMDQzMiwtNC4xODk2NSA4Ljg1Mjc1NiwtNy44NjkzMyAxNS4xMDM1MTYsLTguNDIxODcgbCAzLjIwODk4NCwtMC4yODMyIDAuOTIzODI4LC0zLjA4NTk0IGMgMS4yNTQ5ODEsLTQuMTkwMDIgNC4wNDA3NTksLTEwLjI1NDYyIDguNDUzMTI1LC0xNC45NTg5OSA0LjQxMjM2NiwtNC43MDQzNiAxMC4xNzYxMywtOC4xNTg3NSAxOC41NTA3ODQsLTguMTUyMzQgeiIgc3R5bGU9ImNvbG9yOiMwMDAwMDA7b3BhY2l0eToxO2ZpbGw6I2FlY2JmYTtmaWxsLW9wYWNpdHk6MTstaW5rc2NhcGUtc3Ryb2tlOm5vbmUiLz4mI3hhOyAgICA8cGF0aCBpZD0icGF0aDM2MTQ4IiBkPSJtIDEwNS4zMzU5NCw5OC4zMzc4OTEgdiA5LjQ5OTk5OSBjIDkuNDA2OTksMCAxNi40NDYyOSwzLjY2MzUyIDIzLjU2OTA1LDEzLjkzMDExIGwgNi45OTQyOCwtNi41MzY0NSBDIDEyNy42MDIxOCwxMDMuOTc3ODYgMTE3LjE5MzcxLDk4LjMzNzg5MSAxMDUuMzM1OTQsOTguMzM3ODkxIFoiIHN0eWxlPSJjb2xvcjojMDAwMDAwO29wYWNpdHk6MTtmaWxsOiM2NjlkZjY7ZmlsbC1vcGFjaXR5OjE7LWlua3NjYXBlLXN0cm9rZTpub25lIi8+JiN4YTsgIDwvZz4mI3hhOzwvc3ZnPg==;" vertex="1" parent="1">
          <mxGeometry x="340" y="282.34" width="40" height="33.33" as="geometry" />
        </mxCell>
        <mxCell id="t8Q2t27Iab3_0A_IBycy-35" value="&lt;h1 style=&quot;margin-top: 0px; font-size: 16px;&quot;&gt;Data Lake&lt;/h1&gt;&lt;div&gt;Cloud hosted. Aggregator stores required and other meta information in realtime&lt;br&gt;&lt;/div&gt;" style="text;html=1;whiteSpace=wrap;overflow=hidden;rounded=1;fillColor=#b0e3e6;strokeColor=none;glass=0;spacingTop=4;spacingLeft=4;shadow=1;" vertex="1" parent="1">
          <mxGeometry x="550" y="255.36" width="160" height="95" as="geometry" />
        </mxCell>
        <mxCell id="t8Q2t27Iab3_0A_IBycy-39" value="" style="curved=1;endArrow=classic;html=1;rounded=0;entryX=1;entryY=0.75;entryDx=0;entryDy=0;exitX=0.5;exitY=0;exitDx=0;exitDy=0;fillColor=#b1ddf0;strokeColor=#10739e;flowAnimation=0;shadow=1;dashed=1;dashPattern=12 12;" edge="1" parent="1" source="t8Q2t27Iab3_0A_IBycy-35" target="t8Q2t27Iab3_0A_IBycy-3">
          <mxGeometry width="50" height="50" relative="1" as="geometry">
            <mxPoint x="570" y="228.25" as="sourcePoint" />
            <mxPoint x="767" y="130" as="targetPoint" />
            <Array as="points">
              <mxPoint x="620" y="228.25" />
              <mxPoint x="570" y="210" />
            </Array>
          </mxGeometry>
        </mxCell>
        <mxCell id="t8Q2t27Iab3_0A_IBycy-41" value="&lt;div&gt;&lt;font color=&quot;#545454&quot;&gt;Data fetched periodically sync model&lt;/font&gt;&lt;/div&gt;" style="text;html=1;align=center;verticalAlign=middle;whiteSpace=wrap;rounded=0;" vertex="1" parent="1">
          <mxGeometry x="560" y="144.5" width="70" height="40" as="geometry" />
        </mxCell>
        <mxCell id="t8Q2t27Iab3_0A_IBycy-43" value="" style="sketch=0;pointerEvents=1;shadow=0;dashed=0;html=1;strokeColor=none;fillColor=#505050;labelPosition=center;verticalLabelPosition=bottom;verticalAlign=top;outlineConnect=0;align=center;shape=mxgraph.office.communications.exchange_active_sync;fillColor=#2072B8;" vertex="1" parent="1">
          <mxGeometry x="517" y="144.5" width="33" height="34.5" as="geometry" />
        </mxCell>
        <mxCell id="t8Q2t27Iab3_0A_IBycy-44" value="&lt;h1 style=&quot;margin-top: 0px; font-size: 16px;&quot;&gt;&lt;font style=&quot;font-size: 16px;&quot;&gt;Traffic Digital Twin&lt;br&gt;&lt;/font&gt;&lt;/h1&gt;&lt;p&gt;Interactive simulation digital twin in sync with real world data that can model traffic dynamics in different situations&lt;br&gt;&lt;/p&gt;" style="text;html=1;whiteSpace=wrap;overflow=hidden;rounded=1;spacingTop=4;spacingLeft=4;fillColor=#E5F2A5;strokeColor=none;shadow=1;" vertex="1" parent="1">
          <mxGeometry x="85.64" y="101.75" width="180" height="120" as="geometry" />
        </mxCell>
      </root>
    </mxGraphModel>
  </diagram>
</mxfile>
